Veleka-Italic.ufo
<glyph name="parenleft" format="1">
  <advance width="418"/>
  <unicode hex="0028"/>
  <outline>
    <contour>
      <point x="467" y="718" type="curve"/>
      <point x="458" y="672" type="line"/>
      <point x="237" y="642"/>
      <point x="169" y="272"/>
      <point x="169" y="120" type="curve" smooth="yes"/>
      <point x="169" y="-28"/>
      <point x="232" y="-80"/>
      <point x="311" y="-97" type="curve"/>
      <point x="302" y="-143" type="line"/>
      <point x="167" y="-135"/>
      <point x="71" y="-24"/>
      <point x="71" y="139" type="curve" smooth="yes"/>
      <point x="71" y="378"/>
      <point x="198" y="694"/>
    </contour>
  </outline>
</glyph>
<glyph name="one" format="1">
  <advance width="556"/>
  <unicode hex="0031"/>
  <outline>
    <contour>
      <point x="423" y="687" type="line"/>
      <point x="304" y="72" type="line" smooth="yes"/>
      <point x="302" y="61"/>
      <point x="307" y="53"/>
      <point x="323" y="52" type="curve" smooth="yes"/>
      <point x="398" y="47" type="line"/>
      <point x="398" y="0" type="line"/>
      <point x="84" y="0" type="line"/>
      <point x="84" y="47" type="line"/>
      <point x="185" y="52" type="line" smooth="yes"/>
      <point x="196" y="53"/>
      <point x="202" y="62"/>
      <point x="204" y="72" type="curve" smooth="yes"/>
      <point x="306" y="595" type="line"/>
      <point x="149" y="575" type="line"/>
      <point x="149" y="620" type="line"/>
      <point x="386" y="687" type="line"/>
    </contour>
  </outline>
</glyph>
<glyph name="six" format="1">
  <advance width="556"/>
  <unicode hex="0036"/>
  <outline>
    <contour>
      <point x="519" y="271" type="curve" smooth="yes"/>
      <point x="519" y="116"/>
      <point x="398" y="-16"/>
      <point x="246" y="-16" type="curve" smooth="yes"/>
      <point x="152" y="-16"/>
      <point x="34" y="30"/>
      <point x="34" y="215" type="curve" smooth="yes"/>
      <point x="34" y="459"/>
      <point x="217" y="686"/>
      <point x="506" y="717" type="curve"/>
      <point x="507" y="662" type="line"/>
      <point x="334" y="643"/>
      <point x="212" y="534"/>
      <point x="175" y="401" type="curve"/>
      <point x="223" y="433"/>
      <point x="276" y="452"/>
      <point x="336" y="452" type="curve" smooth="yes"/>
      <point x="443" y="452"/>
      <point x="519" y="384"/>
    </contour>
    <contour>
      <point x="413" y="245" type="curve" smooth="yes"/>
      <point x="413" y="332"/>
      <point x="376" y="388"/>
      <point x="293" y="388" type="curve" smooth="yes"/>
      <point x="253" y="388"/>
      <point x="213" y="376"/>
      <point x="160" y="336" type="curve"/>
      <point x="157" y="323"/>
      <point x="140" y="252"/>
      <point x="140" y="204" type="curve" smooth="yes"/>
      <point x="140" y="136"/>
      <point x="159" y="34"/>
      <point x="251" y="34" type="curve" smooth="yes"/>
      <point x="335" y="34"/>
      <point x="413" y="133"/>
    </contour>
  </outline>
</glyph>
<glyph name="bracketleft" format="1">
  <advance width="420"/>
  <unicode hex="005B"/>
  <outline>
    <contour>
      <point x="471" y="661" type="line"/>
      <point x="308" y="661" type="line"/>
      <point x="159" y="-85" type="line"/>
      <point x="312" y="-85" type="line"/>
      <point x="312" y="-132" type="line"/>
      <point x="54" y="-132" type="line"/>
      <point x="222" y="708" type="line"/>
      <point x="471" y="708" type="line"/>
    </contour>
  </outline>
</glyph>
<glyph name="asciicircum" format="1">
  <advance width="342"/>
  <unicode hex="005E"/>
  <outline>
    <contour>
      <point x="400" y="551" type="line"/>
      <point x="330" y="551" type="line"/>
      <point x="248" y="643" type="line"/>
      <point x="128" y="551" type="line"/>
      <point x="58" y="551" type="line"/>
      <point x="223" y="720" type="line"/>
      <point x="302" y="720" type="line"/>
    </contour>
  </outline>
</glyph>
<glyph name="exclamdown" format="1">
  <advance width="337"/>
  <unicode hex="00A1"/>
  <outline>
    <contour>
      <point x="268" y="438" type="curve" smooth="yes"/>
      <point x="268" y="403"/>
      <point x="241" y="376"/>
      <point x="204" y="376" type="curve" smooth="yes"/>
      <point x="168" y="376"/>
      <point x="138" y="402"/>
      <point x="138" y="434" type="curve" smooth="yes"/>
      <point x="138" y="468"/>
      <point x="165" y="494"/>
      <point x="204" y="494" type="curve" smooth="yes"/>
      <point x="233" y="494"/>
      <point x="268" y="475"/>
    </contour>
    <contour>
      <point x="219" y="316" type="line"/>
      <point x="167" y="-120" type="line" smooth="yes"/>
      <point x="160" y="-176"/>
      <point x="130" y="-198"/>
      <point x="89" y="-198" type="curve" smooth="yes"/>
      <point x="51" y="-198"/>
      <point x="36" y="-178"/>
      <point x="36" y="-148" type="curve" smooth="yes"/>
      <point x="36" y="-125"/>
      <point x="155" y="316"/>
      <point x="155" y="316" type="curve"/>
    </contour>
  </outline>
</glyph>
<glyph name="yen" format="1">
  <advance width="556"/>
  <unicode hex="00A5"/>
  <outline>
    <contour>
      <point x="639" y="621" type="line"/>
      <point x="578" y="608" type="line"/>
      <point x="436" y="422" type="line"/>
      <point x="551" y="422" type="line"/>
      <point x="551" y="377" type="line"/>
      <point x="396" y="377" type="line"/>
      <point x="323" y="280" type="line"/>
      <point x="522" y="280" type="line"/>
      <point x="522" y="234" type="line"/>
      <point x="315" y="234" type="line"/>
      <point x="284" y="67" type="line" smooth="yes"/>
      <point x="283" y="61"/>
      <point x="282" y="51"/>
      <point x="297" y="49" type="curve" smooth="yes"/>
      <point x="364" y="44" type="line"/>
      <point x="364" y="0" type="line"/>
      <point x="93" y="0" type="line"/>
      <point x="93" y="44" type="line"/>
      <point x="112" y="45"/>
      <point x="134" y="44"/>
      <point x="151" y="46" type="curve" smooth="yes"/>
      <point x="166" y="48"/>
      <point x="186" y="52"/>
      <point x="188" y="67" type="curve" smooth="yes"/>
      <point x="219" y="234" type="line"/>
      <point x="28" y="234" type="line"/>
      <point x="28" y="280" type="line"/>
      <point x="227" y="280" type="line"/>
      <point x="195" y="377" type="line"/>
      <point x="57" y="377" type="line"/>
      <point x="57" y="422" type="line"/>
      <point x="176" y="422" type="line"/>
      <point x="116" y="610" type="line"/>
      <point x="62" y="622" type="line"/>
      <point x="62" y="664" type="line"/>
      <point x="294" y="664" type="line"/>
      <point x="294" y="620" type="line"/>
      <point x="236" y="615" type="line" smooth="yes"/>
      <point x="227" y="614"/>
      <point x="223" y="606"/>
      <point x="226" y="597" type="curve" smooth="yes"/>
      <point x="304" y="352" type="line"/>
      <point x="489" y="592" type="line" smooth="yes"/>
      <point x="494" y="599"/>
      <point x="499" y="608"/>
      <point x="483" y="611" type="curve" smooth="yes"/>
      <point x="439" y="621" type="line"/>
      <point x="439" y="664" type="line"/>
      <point x="639" y="664" type="line"/>
    </contour>
  </outline>
</glyph>
<glyph name="brokenbar" format="1">
  <advance width="345"/>
  <unicode hex="00A6"/>
  <outline>
    <contour>
      <point x="198" y="336" type="line"/>
      <point x="147" y="336" type="line"/>
      <point x="147" y="736" type="line"/>
      <point x="198" y="736" type="line"/>
    </contour>
    <contour>
      <point x="198" y="-198" type="line"/>
      <point x="147" y="-198" type="line"/>
      <point x="147" y="202" type="line"/>
      <point x="198" y="202" type="line"/>
    </contour>
  </outline>
</glyph>
<glyph name="twosuperior" format="1">
  <advance width="360"/>
  <unicode hex="00B2"/>
  <outline>
    <contour>
      <point x="398" y="701" type="curve" smooth="yes"/>
      <point x="398" y="590"/>
      <point x="221" y="492"/>
      <point x="139" y="438" type="curve"/>
      <point x="313" y="438" type="line"/>
      <point x="334" y="488" type="line"/>
      <point x="371" y="488" type="line"/>
      <point x="350" y="383" type="line"/>
      <point x="47" y="383" type="line"/>
      <point x="56" y="427" type="line"/>
      <point x="241" y="549"/>
      <point x="328" y="610"/>
      <point x="328" y="694" type="curve" smooth="yes"/>
      <point x="328" y="735"/>
      <point x="303" y="754"/>
      <point x="262" y="754" type="curve" smooth="yes"/>
      <point x="235" y="754"/>
      <point x="214" y="744"/>
      <point x="208" y="741" type="curve"/>
      <point x="195" y="679" type="line"/>
      <point x="195" y="679"/>
      <point x="181" y="668"/>
      <point x="160" y="668" type="curve" smooth="yes"/>
      <point x="152" y="668"/>
      <point x="126" y="671"/>
      <point x="126" y="696" type="curve" smooth="yes"/>
      <point x="126" y="744"/>
      <point x="202" y="792"/>
      <point x="281" y="792" type="curve" smooth="yes"/>
      <point x="342" y="792"/>
      <point x="398" y="769"/>
    </contour>
  </outline>
</glyph>
<glyph name="Eth" format="1">
  <advance width="670"/>
  <unicode hex="00D0"/>
  <outline>
    <contour>
      <point x="29" y="326" type="line"/>
      <point x="29" y="379" type="line"/>
      <point x="347" y="379" type="line"/>
      <point x="347" y="326" type="line"/>
    </contour>
    <contour>
      <point x="653" y="415" type="curve" smooth="yes"/>
      <point x="653" y="169"/>
      <point x="476" y="0"/>
      <point x="220" y="0" type="curve" smooth="yes"/>
      <point x="-15" y="0" type="line"/>
      <point x="-15" y="42" type="line"/>
      <point x="47" y="47" type="line" smooth="yes"/>
      <point x="60" y="48"/>
      <point x="64" y="54"/>
      <point x="67" y="66" type="curve" smooth="yes"/>
      <point x="171" y="604" type="line" smooth="yes"/>
      <point x="173" y="615"/>
      <point x="169" y="623"/>
      <point x="151" y="624" type="curve" smooth="yes"/>
      <point x="95" y="629" type="line"/>
      <point x="95" y="671" type="line"/>
      <point x="334" y="671" type="line" smooth="yes"/>
      <point x="516" y="671"/>
      <point x="653" y="605"/>
    </contour>
    <contour>
      <point x="545" y="424" type="curve" smooth="yes"/>
      <point x="545" y="591"/>
      <point x="435" y="617"/>
      <point x="311" y="621" type="curve"/>
      <point x="275" y="621" type="line"/>
      <point x="165" y="52" type="line"/>
      <point x="238" y="52" type="line" smooth="yes"/>
      <point x="440" y="54"/>
      <point x="545" y="234"/>
    </contour>
  </outline>
</glyph>
<glyph name="ntilde" format="1">
  <advance width="529"/>
  <unicode hex="00F1"/>
  <outline>
    <contour>
      <point x="527" y="20" type="line"/>
      <point x="510" y="14"/>
      <point x="435" y="-12"/>
      <point x="393" y="-12" type="curve" smooth="yes"/>
      <point x="369" y="-12"/>
      <point x="301" y="-7"/>
      <point x="312" y="47" type="curve" smooth="yes"/>
      <point x="373" y="354" type="line" smooth="yes"/>
      <point x="383" y="407"/>
      <point x="351" y="423"/>
      <point x="329" y="423" type="curve" smooth="yes"/>
      <point x="297" y="423"/>
      <point x="229" y="383"/>
      <point x="185" y="336" type="curve"/>
      <point x="116" y="0" type="line"/>
      <point x="23" y="0" type="line"/>
      <point x="110" y="425" type="line"/>
      <point x="26" y="434" type="line"/>
      <point x="26" y="463" type="line"/>
      <point x="177" y="494" type="line"/>
      <point x="217" y="494" type="line"/>
      <point x="198" y="401" type="line"/>
      <point x="242" y="446"/>
      <point x="317" y="494"/>
      <point x="384" y="494" type="curve" smooth="yes"/>
      <point x="457" y="494"/>
      <point x="489" y="456"/>
      <point x="473" y="366" type="curve" smooth="yes"/>
      <point x="420" y="84" type="line" smooth="yes"/>
      <point x="413" y="46"/>
      <point x="451" y="42"/>
      <point x="463" y="42" type="curve" smooth="yes"/>
      <point x="481" y="42"/>
      <point x="503" y="48"/>
      <point x="526" y="55" type="curve"/>
    </contour>
    <contour>
      <point x="530" y="691" type="line"/>
      <point x="502" y="633"/>
      <point x="457" y="585"/>
      <point x="385" y="585" type="curve" smooth="yes"/>
      <point x="358" y="585"/>
      <point x="340" y="595"/>
      <point x="319" y="608" type="curve" smooth="yes"/>
      <point x="302" y="619"/>
      <point x="286" y="631"/>
      <point x="255" y="631" type="curve" smooth="yes"/>
      <point x="238" y="631"/>
      <point x="210" y="612"/>
      <point x="199" y="585" type="curve"/>
      <point x="146" y="585" type="line"/>
      <point x="174" y="643"/>
      <point x="218" y="691"/>
      <point x="290" y="691" type="curve" smooth="yes"/>
      <point x="317" y="691"/>
      <point x="336" y="681"/>
      <point x="357" y="667" type="curve" smooth="yes"/>
      <point x="374" y="657"/>
      <point x="390" y="645"/>
      <point x="421" y="645" type="curve" smooth="yes"/>
      <point x="439" y="645"/>
      <point x="466" y="664"/>
      <point x="477" y="691" type="curve"/>
    </contour>
  </outline>
</glyph>
<glyph name="ugrave" format="1">
  <advance width="526"/>
  <unicode hex="00F9"/>
  <outline>
    <contour>
      <point x="524" y="24" type="line"/>
      <point x="499" y="10"/>
      <point x="431" y="-12"/>
      <point x="388" y="-12" type="curve" smooth="yes"/>
      <point x="313" y="-12"/>
      <point x="323" y="47"/>
      <point x="323" y="63" type="curve"/>
      <point x="271" y="13"/>
      <point x="214" y="-12"/>
      <point x="147" y="-12" type="curve" smooth="yes"/>
      <point x="54" y="-12"/>
      <point x="34" y="61"/>
      <point x="45" y="113" type="curve" smooth="yes"/>
      <point x="110" y="425" type="line"/>
      <point x="26" y="434" type="line"/>
      <point x="26" y="463" type="line"/>
      <point x="177" y="494" type="line"/>
      <point x="218" y="494" type="line"/>
      <point x="138" y="113" type="line" smooth="yes"/>
      <point x="131" y="79"/>
      <point x="164" y="50"/>
      <point x="190" y="50" type="curve" smooth="yes"/>
      <point x="238" y="50"/>
      <point x="290" y="79"/>
      <point x="328" y="114" type="curve"/>
      <point x="404" y="482" type="line"/>
      <point x="497" y="482" type="line"/>
      <point x="417" y="97" type="line" smooth="yes"/>
      <point x="408" y="56"/>
      <point x="439" y="41"/>
      <point x="461" y="41" type="curve" smooth="yes"/>
      <point x="474" y="41"/>
      <point x="496" y="43"/>
      <point x="524" y="59" type="curve"/>
    </contour>
    <contour>
      <point x="422" y="551" type="line"/>
      <point x="360" y="551" type="line"/>
      <point x="215" y="646" type="line" smooth="yes"/>
      <point x="201" y="655"/>
      <point x="192" y="668"/>
      <point x="192" y="688" type="curve" smooth="yes"/>
      <point x="192" y="708"/>
      <point x="202" y="732"/>
      <point x="237" y="732" type="curve" smooth="yes"/>
      <point x="265" y="732"/>
      <point x="276" y="721"/>
      <point x="288" y="707" type="curve" smooth="yes"/>
    </contour>
  </outline>
</glyph>
<glyph name="uacute" format="1">
  <advance width="526"/>
  <unicode hex="00FA"/>
  <outline>
    <contour>
      <point x="524" y="24" type="line"/>
      <point x="499" y="10"/>
      <point x="431" y="-12"/>
      <point x="388" y="-12" type="curve" smooth="yes"/>
      <point x="313" y="-12"/>
      <point x="323" y="47"/>
      <point x="323" y="63" type="curve"/>
      <point x="271" y="13"/>
      <point x="214" y="-12"/>
      <point x="147" y="-12" type="curve" smooth="yes"/>
      <point x="54" y="-12"/>
      <point x="34" y="61"/>
      <point x="45" y="113" type="curve" smooth="yes"/>
      <point x="110" y="425" type="line"/>
      <point x="26" y="434" type="line"/>
      <point x="26" y="463" type="line"/>
      <point x="177" y="494" type="line"/>
      <point x="218" y="494" type="line"/>
      <point x="138" y="113" type="line" smooth="yes"/>
      <point x="131" y="79"/>
      <point x="164" y="50"/>
      <point x="190" y="50" type="curve" smooth="yes"/>
      <point x="238" y="50"/>
      <point x="290" y="79"/>
      <point x="328" y="114" type="curve"/>
      <point x="404" y="482" type="line"/>
      <point x="497" y="482" type="line"/>
      <point x="417" y="97" type="line" smooth="yes"/>
      <point x="408" y="56"/>
      <point x="439" y="41"/>
      <point x="461" y="41" type="curve" smooth="yes"/>
      <point x="474" y="41"/>
      <point x="496" y="43"/>
      <point x="524" y="59" type="curve"/>
    </contour>
    <contour>
      <point x="485" y="689" type="curve" smooth="yes"/>
      <point x="485" y="670"/>
      <point x="476" y="658"/>
      <point x="461" y="648" type="curve" smooth="yes"/>
      <point x="312" y="551" type="line"/>
      <point x="241" y="551" type="line"/>
      <point x="377" y="707" type="line" smooth="yes"/>
      <point x="390" y="722"/>
      <point x="405" y="732"/>
      <point x="435" y="732" type="curve" smooth="yes"/>
      <point x="470" y="732"/>
      <point x="485" y="709"/>
    </contour>
  </outline>
</glyph>
<glyph name="Cacute" format="1">
  <advance width="629"/>
  <unicode hex="0106"/>
  <outline>
    <contour>
      <point x="644" y="647" type="curve"/>
      <point x="617" y="491" type="line"/>
      <point x="558" y="491" type="line"/>
      <point x="558" y="584" type="line" smooth="yes"/>
      <point x="558" y="594"/>
      <point x="549" y="608"/>
      <point x="540" y="611" type="curve" smooth="yes"/>
      <point x="535" y="614"/>
      <point x="503" y="636"/>
      <point x="455" y="636" type="curve" smooth="yes"/>
      <point x="302" y="636"/>
      <point x="154" y="487"/>
      <point x="154" y="256" type="curve" smooth="yes"/>
      <point x="154" y="105"/>
      <point x="247" y="35"/>
      <point x="359" y="35" type="curve" smooth="yes"/>
      <point x="402" y="35"/>
      <point x="429" y="50"/>
      <point x="434" y="52" type="curve" smooth="yes"/>
      <point x="442" y="53"/>
      <point x="453" y="63"/>
      <point x="457" y="72" type="curve" smooth="yes"/>
      <point x="500" y="186" type="line"/>
      <point x="559" y="186" type="line"/>
      <point x="532" y="24" type="line"/>
      <point x="517" y="19"/>
      <point x="423" y="-16"/>
      <point x="326" y="-16" type="curve" smooth="yes"/>
      <point x="127" y="-16"/>
      <point x="48" y="125"/>
      <point x="48" y="267" type="curve" smooth="yes"/>
      <point x="48" y="480"/>
      <point x="212" y="687"/>
      <point x="450" y="687" type="curve" smooth="yes"/>
      <point x="515" y="687"/>
      <point x="567" y="672"/>
    </contour>
    <contour>
      <point x="605" y="884" type="curve" smooth="yes"/>
      <point x="605" y="865"/>
      <point x="597" y="853"/>
      <point x="582" y="843" type="curve" smooth="yes"/>
      <point x="432" y="746" type="line"/>
      <point x="361" y="746" type="line"/>
      <point x="498" y="902" type="line" smooth="yes"/>
      <point x="511" y="917"/>
      <point x="525" y="927"/>
      <point x="555" y="927" type="curve" smooth="yes"/>
      <point x="590" y="927"/>
      <point x="605" y="904"/>
    </contour>
  </outline>
</glyph>
<glyph name="cdotaccent" format="1">
  <advance width="435"/>
  <unicode hex="010B"/>
  <outline>
    <contour>
      <point x="403" y="424" type="curve" smooth="yes"/>
      <point x="403" y="398"/>
      <point x="390" y="367"/>
      <point x="326" y="359" type="curve"/>
      <point x="269" y="436" type="line"/>
      <point x="161" y="431"/>
      <point x="127" y="266"/>
      <point x="127" y="186" type="curve" smooth="yes"/>
      <point x="127" y="121"/>
      <point x="150" y="53"/>
      <point x="216" y="53" type="curve" smooth="yes"/>
      <point x="269" y="53"/>
      <point x="325" y="93"/>
      <point x="382" y="149" type="curve"/>
      <point x="382" y="86" type="line"/>
      <point x="341" y="46"/>
      <point x="275" y="-12"/>
      <point x="186" y="-12" type="curve" smooth="yes"/>
      <point x="91" y="-12"/>
      <point x="32" y="55"/>
      <point x="32" y="174" type="curve" smooth="yes"/>
      <point x="32" y="353"/>
      <point x="165" y="494"/>
      <point x="301" y="494" type="curve" smooth="yes"/>
      <point x="373" y="494"/>
      <point x="403" y="454"/>
    </contour>
    <contour>
      <point x="377" y="641" type="curve" smooth="yes"/>
      <point x="377" y="610"/>
      <point x="352" y="585"/>
      <point x="321" y="585" type="curve" smooth="yes"/>
      <point x="290" y="585"/>
      <point x="266" y="610"/>
      <point x="266" y="641" type="curve" smooth="yes"/>
      <point x="266" y="672"/>
      <point x="289" y="698"/>
      <point x="321" y="698" type="curve" smooth="yes"/>
      <point x="352" y="698"/>
      <point x="377" y="673"/>
    </contour>
  </outline>
</glyph>
<glyph name="Ebreve" format="1">
  <advance width="558"/>
  <unicode hex="0114"/>
  <outline>
    <contour>
      <point x="580" y="671" type="line"/>
      <point x="550" y="521" type="line"/>
      <point x="486" y="521" type="line"/>
      <point x="486" y="602" type="line" smooth="yes"/>
      <point x="486" y="616"/>
      <point x="482" y="621"/>
      <point x="467" y="621" type="curve" smooth="yes"/>
      <point x="275" y="621" type="line"/>
      <point x="229" y="375" type="line"/>
      <point x="363" y="375" type="line" smooth="yes"/>
      <point x="377" y="375"/>
      <point x="384" y="380"/>
      <point x="388" y="394" type="curve" smooth="yes"/>
      <point x="407" y="461" type="line"/>
      <point x="463" y="461" type="line"/>
      <point x="419" y="232" type="line"/>
      <point x="362" y="232" type="line"/>
      <point x="372" y="303" type="line" smooth="yes"/>
      <point x="374" y="316"/>
      <point x="367" y="323"/>
      <point x="353" y="323" type="curve" smooth="yes"/>
      <point x="218" y="323" type="line"/>
      <point x="166" y="50" type="line"/>
      <point x="401" y="50" type="line" smooth="yes"/>
      <point x="415" y="50"/>
      <point x="422" y="58"/>
      <point x="426" y="70" type="curve" smooth="yes"/>
      <point x="457" y="166" type="line"/>
      <point x="518" y="166" type="line"/>
      <point x="485" y="0" type="line"/>
      <point x="-15" y="0" type="line"/>
      <point x="-15" y="42" type="line"/>
      <point x="43" y="47" type="line" smooth="yes"/>
      <point x="56" y="48"/>
      <point x="65" y="54"/>
      <point x="67" y="66" type="curve" smooth="yes"/>
      <point x="171" y="604" type="line" smooth="yes"/>
      <point x="173" y="615"/>
      <point x="169" y="623"/>
      <point x="152" y="624" type="curve" smooth="yes"/>
      <point x="96" y="629" type="line"/>
      <point x="96" y="671" type="line"/>
    </contour>
    <contour>
      <point x="545" y="890" type="line"/>
      <point x="529" y="822"/>
      <point x="469" y="746"/>
      <point x="364" y="746" type="curve" smooth="yes"/>
      <point x="269" y="746"/>
      <point x="233" y="806"/>
      <point x="233" y="863" type="curve" smooth="yes"/>
      <point x="233" y="871"/>
      <point x="234" y="880"/>
      <point x="235" y="890" type="curve"/>
      <point x="288" y="890" type="line"/>
      <point x="291" y="831"/>
      <point x="335" y="812"/>
      <point x="374" y="812" type="curve" smooth="yes"/>
      <point x="415" y="812"/>
      <point x="469" y="832"/>
      <point x="495" y="890" type="curve"/>
    </contour>
  </outline>
</glyph>
<glyph name="gdotaccent" format="1">
  <advance width="439"/>
  <unicode hex="0121"/>
  <outline>
    <contour>
      <point x="485" y="421" type="line"/>
      <point x="393" y="421" type="line"/>
      <point x="399" y="406"/>
      <point x="406" y="381"/>
      <point x="406" y="354" type="curve" smooth="yes"/>
      <point x="406" y="227"/>
      <point x="305" y="163"/>
      <point x="189" y="163" type="curve"/>
      <point x="180" y="143"/>
      <point x="175" y="114"/>
      <point x="178" y="103" type="curve"/>
      <point x="312" y="42" type="line" smooth="yes"/>
      <point x="373" y="14"/>
      <point x="414" y="-10"/>
      <point x="414" y="-68" type="curve" smooth="yes"/>
      <point x="414" y="-154"/>
      <point x="288" y="-229"/>
      <point x="161" y="-229" type="curve" smooth="yes"/>
      <point x="30" y="-229"/>
      <point x="-31" y="-159"/>
      <point x="-31" y="-83" type="curve" smooth="yes"/>
      <point x="-31" y="-15"/>
      <point x="29" y="31"/>
      <point x="102" y="55" type="curve"/>
      <point x="96" y="86"/>
      <point x="114" y="145"/>
      <point x="141" y="172" type="curve"/>
      <point x="88" y="195"/>
      <point x="48" y="232"/>
      <point x="48" y="296" type="curve" smooth="yes"/>
      <point x="48" y="393"/>
      <point x="123" y="494"/>
      <point x="250" y="494" type="curve" smooth="yes"/>
      <point x="298" y="494"/>
      <point x="337" y="475"/>
      <point x="349" y="468" type="curve"/>
      <point x="485" y="468" type="line"/>
    </contour>
    <contour>
      <point x="310" y="359" type="curve" smooth="yes"/>
      <point x="310" y="408"/>
      <point x="292" y="452"/>
      <point x="252" y="452" type="curve" smooth="yes"/>
      <point x="204" y="452"/>
      <point x="144" y="377"/>
      <point x="144" y="283" type="curve" smooth="yes"/>
      <point x="144" y="235"/>
      <point x="166" y="200"/>
      <point x="201" y="200" type="curve" smooth="yes"/>
      <point x="268" y="200"/>
      <point x="310" y="296"/>
    </contour>
    <contour>
      <point x="321" y="-88" type="curve" smooth="yes"/>
      <point x="321" y="-64"/>
      <point x="309" y="-44"/>
      <point x="270" y="-26" type="curve" smooth="yes"/>
      <point x="145" y="31" type="line"/>
      <point x="81" y="15"/>
      <point x="63" y="-26"/>
      <point x="63" y="-66" type="curve" smooth="yes"/>
      <point x="63" y="-112"/>
      <point x="102" y="-183"/>
      <point x="187" y="-183" type="curve" smooth="yes"/>
      <point x="283" y="-183"/>
      <point x="321" y="-121"/>
    </contour>
    <contour>
      <point x="358" y="641" type="curve" smooth="yes"/>
      <point x="358" y="610"/>
      <point x="333" y="585"/>
      <point x="302" y="585" type="curve" smooth="yes"/>
      <point x="271" y="585"/>
      <point x="246" y="610"/>
      <point x="246" y="641" type="curve" smooth="yes"/>
      <point x="246" y="672"/>
      <point x="270" y="698"/>
      <point x="302" y="698" type="curve" smooth="yes"/>
      <point x="333" y="698"/>
      <point x="358" y="673"/>
    </contour>
  </outline>
</glyph>
<glyph name="Gcedilla" format="1">
  <advance width="687"/>
  <unicode hex="0122"/>
  <outline>
    <contour>
      <point x="675" y="282" type="line"/>
      <point x="618" y="277" type="line" smooth="yes"/>
      <point x="605" y="276"/>
      <point x="596" y="271"/>
      <point x="593" y="258" type="curve" smooth="yes"/>
      <point x="548" y="23" type="line"/>
      <point x="528" y="18"/>
      <point x="415" y="-16"/>
      <point x="332" y="-16" type="curve" smooth="yes"/>
      <point x="104" y="-16"/>
      <point x="48" y="156"/>
      <point x="48" y="268" type="curve" smooth="yes"/>
      <point x="48" y="524"/>
      <point x="264" y="687"/>
      <point x="479" y="687" type="curve" smooth="yes"/>
      <point x="544" y="687"/>
      <point x="588" y="677"/>
      <point x="665" y="653" type="curve"/>
      <point x="634" y="492" type="line"/>
      <point x="566" y="492" type="line"/>
      <point x="569" y="584" type="line" smooth="yes"/>
      <point x="570" y="599"/>
      <point x="562" y="609"/>
      <point x="550" y="612" type="curve" smooth="yes"/>
      <point x="545" y="614"/>
      <point x="515" y="633"/>
      <point x="467" y="633" type="curve" smooth="yes"/>
      <point x="317" y="633"/>
      <point x="158" y="483"/>
      <point x="158" y="252" type="curve" smooth="yes"/>
      <point x="158" y="91"/>
      <point x="280" y="37"/>
      <point x="352" y="37" type="curve" smooth="yes"/>
      <point x="392" y="37"/>
      <point x="437" y="50"/>
      <point x="453" y="54" type="curve"/>
      <point x="492" y="258" type="line" smooth="yes"/>
      <point x="494" y="269"/>
      <point x="490" y="276"/>
      <point x="472" y="277" type="curve" smooth="yes"/>
      <point x="417" y="282" type="line"/>
      <point x="417" y="324" type="line"/>
      <point x="675" y="324" type="line"/>
    </contour>
    <contour>
      <point x="357" y="-121" type="curve" smooth="yes"/>
      <point x="357" y="-204"/>
      <point x="285" y="-252"/>
      <point x="210" y="-266" type="curve"/>
      <point x="216" y="-232" type="line"/>
      <point x="270" y="-216"/>
      <point x="290" y="-202"/>
      <point x="301" y="-145" type="curve"/>
      <point x="249" y="-145" type="line"/>
      <point x="243" y="-138"/>
      <point x="240" y="-127"/>
      <point x="240" y="-118" type="curve" smooth="yes"/>
      <point x="240" y="-84"/>
      <point x="269" y="-61"/>
      <point x="301" y="-61" type="curve" smooth="yes"/>
      <point x="338" y="-61"/>
      <point x="357" y="-85"/>
    </contour>
  </outline>
</glyph>
<glyph name="ibreve" format="1">
  <advance width="266"/>
  <unicode hex="012D"/>
  <outline>
    <contour>
      <point x="263" y="29" type="line"/>
      <point x="248" y="22"/>
      <point x="172" y="-12"/>
      <point x="117" y="-12" type="curve" smooth="yes"/>
      <point x="49" y="-12"/>
      <point x="39" y="40"/>
      <point x="48" y="86" type="curve" smooth="yes"/>
      <point x="112" y="425" type="line"/>
      <point x="26" y="434" type="line"/>
      <point x="26" y="463" type="line"/>
      <point x="177" y="494" type="line"/>
      <point x="218" y="494" type="line"/>
      <point x="142" y="94" type="line" smooth="yes"/>
      <point x="137" y="67"/>
      <point x="154" y="43"/>
      <point x="181" y="43" type="curve" smooth="yes"/>
      <point x="204" y="43"/>
      <point x="250" y="63"/>
      <point x="263" y="67" type="curve"/>
    </contour>
    <contour>
      <point x="373" y="695" type="line"/>
      <point x="357" y="627"/>
      <point x="296" y="551"/>
      <point x="191" y="551" type="curve" smooth="yes"/>
      <point x="96" y="551"/>
      <point x="61" y="611"/>
      <point x="61" y="668" type="curve" smooth="yes"/>
      <point x="61" y="676"/>
      <point x="61" y="685"/>
      <point x="62" y="695" type="curve"/>
      <point x="115" y="695" type="line"/>
      <point x="118" y="636"/>
      <point x="162" y="617"/>
      <point x="201" y="617" type="curve" smooth="yes"/>
      <point x="242" y="617"/>
      <point x="296" y="637"/>
      <point x="322" y="695" type="curve"/>
    </contour>
  </outline>
</glyph>
<glyph name="IJ" format="1">
  <advance width="781"/>
  <unicode hex="0132"/>
  <outline>
    <contour>
      <point x="341" y="629" type="line"/>
      <point x="277" y="624" type="line" smooth="yes"/>
      <point x="264" y="623"/>
      <point x="260" y="617"/>
      <point x="257" y="604" type="curve" smooth="yes"/>
      <point x="153" y="66" type="line" smooth="yes"/>
      <point x="151" y="56"/>
      <point x="155" y="48"/>
      <point x="173" y="47" type="curve" smooth="yes"/>
      <point x="231" y="42" type="line"/>
      <point x="231" y="0" type="line"/>
      <point x="-30" y="0" type="line"/>
      <point x="-30" y="42" type="line"/>
      <point x="33" y="47" type="line" smooth="yes"/>
      <point x="45" y="48"/>
      <point x="50" y="54"/>
      <point x="52" y="66" type="curve" smooth="yes"/>
      <point x="156" y="604" type="line" smooth="yes"/>
      <point x="158" y="615"/>
      <point x="154" y="623"/>
      <point x="137" y="624" type="curve" smooth="yes"/>
      <point x="81" y="629" type="line"/>
      <point x="81" y="671" type="line"/>
      <point x="341" y="671" type="line"/>
    </contour>
    <contour>
      <point x="821" y="629" type="line"/>
      <point x="764" y="624" type="line" smooth="yes"/>
      <point x="751" y="623"/>
      <point x="742" y="617"/>
      <point x="739" y="604" type="curve" smooth="yes"/>
      <point x="675" y="256" type="line" smooth="yes"/>
      <point x="645" y="91"/>
      <point x="597" y="-16"/>
      <point x="426" y="-16" type="curve" smooth="yes"/>
      <point x="347" y="-16"/>
      <point x="304" y="9"/>
      <point x="294" y="14" type="curve"/>
      <point x="327" y="185" type="line"/>
      <point x="393" y="185" type="line"/>
      <point x="393" y="63" type="line" smooth="yes"/>
      <point x="393" y="46"/>
      <point x="412" y="36"/>
      <point x="433" y="36" type="curve" smooth="yes"/>
      <point x="518" y="36"/>
      <point x="548" y="113"/>
      <point x="572" y="247" type="curve" smooth="yes"/>
      <point x="638" y="604" type="line" smooth="yes"/>
      <point x="640" y="615"/>
      <point x="636" y="623"/>
      <point x="619" y="624" type="curve" smooth="yes"/>
      <point x="561" y="629" type="line"/>
      <point x="561" y="671" type="line"/>
      <point x="821" y="671" type="line"/>
    </contour>
  </outline>
</glyph>
<glyph name="Lcaron" format="1">
  <advance width="518"/>
  <unicode hex="013D"/>
  <outline>
    <contour>
      <point x="483" y="185" type="line"/>
      <point x="447" y="0" type="line"/>
      <point x="-15" y="0" type="line"/>
      <point x="-15" y="42" type="line"/>
      <point x="43" y="47" type="line" smooth="yes"/>
      <point x="56" y="48"/>
      <point x="65" y="54"/>
      <point x="67" y="66" type="curve" smooth="yes"/>
      <point x="171" y="604" type="line" smooth="yes"/>
      <point x="173" y="615"/>
      <point x="169" y="623"/>
      <point x="152" y="624" type="curve" smooth="yes"/>
      <point x="96" y="629" type="line"/>
      <point x="96" y="671" type="line"/>
      <point x="356" y="671" type="line"/>
      <point x="356" y="629" type="line"/>
      <point x="297" y="624" type="line" smooth="yes"/>
      <point x="282" y="623"/>
      <point x="274" y="614"/>
      <point x="272" y="604" type="curve" smooth="yes"/>
      <point x="166" y="50" type="line"/>
      <point x="363" y="50" type="line" smooth="yes"/>
      <point x="376" y="50"/>
      <point x="384" y="58"/>
      <point x="388" y="70" type="curve" smooth="yes"/>
      <point x="424" y="185" type="line"/>
    </contour>
    <contour>
      <point x="531" y="652" type="curve" smooth="yes"/>
      <point x="531" y="568"/>
      <point x="460" y="521"/>
      <point x="385" y="507" type="curve"/>
      <point x="391" y="540" type="line"/>
      <point x="445" y="557"/>
      <point x="465" y="571"/>
      <point x="476" y="628" type="curve"/>
      <point x="423" y="628" type="line"/>
      <point x="417" y="635"/>
      <point x="415" y="646"/>
      <point x="415" y="655" type="curve" smooth="yes"/>
      <point x="415" y="688"/>
      <point x="444" y="712"/>
      <point x="476" y="712" type="curve" smooth="yes"/>
      <point x="513" y="712"/>
      <point x="531" y="688"/>
    </contour>
  </outline>
</glyph>
<glyph name="ldot" format="1">
  <advance width="398"/>
  <unicode hex="0140"/>
  <outline>
    <contour>
      <point x="263" y="26" type="line"/>
      <point x="247" y="20"/>
      <point x="171" y="-12"/>
      <point x="124" y="-12" type="curve" smooth="yes"/>
      <point x="63" y="-12"/>
      <point x="39" y="18"/>
      <point x="39" y="61" type="curve" smooth="yes"/>
      <point x="39" y="71"/>
      <point x="40" y="83"/>
      <point x="42" y="96" type="curve" smooth="yes"/>
      <point x="152" y="668" type="line"/>
      <point x="63" y="677" type="line"/>
      <point x="63" y="707" type="line"/>
      <point x="219" y="737" type="line"/>
      <point x="258" y="737" type="line"/>
      <point x="136" y="99" type="line" smooth="yes"/>
      <point x="131" y="72"/>
      <point x="154" y="44"/>
      <point x="182" y="44" type="curve" smooth="yes"/>
      <point x="201" y="44"/>
      <point x="252" y="61"/>
      <point x="263" y="64" type="curve"/>
    </contour>
    <contour>
      <point x="394" y="340" type="curve" smooth="yes"/>
      <point x="394" y="307"/>
      <point x="368" y="281"/>
      <point x="335" y="281" type="curve" smooth="yes"/>
      <point x="302" y="281"/>
      <point x="276" y="307"/>
      <point x="276" y="340" type="curve" smooth="yes"/>
      <point x="276" y="373"/>
      <point x="302" y="399"/>
      <point x="335" y="399" type="curve" smooth="yes"/>
      <point x="368" y="399"/>
      <point x="394" y="373"/>
    </contour>
  </outline>
</glyph>
<glyph name="Eng" format="1">
  <advance width="725"/>
  <unicode hex="014A"/>
  <outline>
    <contour>
      <point x="689" y="512" type="curve" smooth="yes"/>
      <point x="689" y="501"/>
      <point x="688" y="490"/>
      <point x="686" y="478" type="curve" smooth="yes"/>
      <point x="588" y="-44" type="line" smooth="yes"/>
      <point x="564" y="-177"/>
      <point x="499" y="-229"/>
      <point x="354" y="-229" type="curve" smooth="yes"/>
      <point x="316" y="-229"/>
      <point x="262" y="-203"/>
      <point x="262" y="-165" type="curve" smooth="yes"/>
      <point x="262" y="-131"/>
      <point x="291" y="-88"/>
      <point x="319" y="-88" type="curve"/>
      <point x="393" y="-173" type="line"/>
      <point x="464" y="-160"/>
      <point x="474" y="-113"/>
      <point x="487" y="-44" type="curve" smooth="yes"/>
      <point x="584" y="478" type="line" smooth="yes"/>
      <point x="599" y="558"/>
      <point x="535" y="614"/>
      <point x="459" y="614" type="curve" smooth="yes"/>
      <point x="382" y="614"/>
      <point x="270" y="507"/>
      <point x="245" y="463" type="curve"/>
      <point x="168" y="66" type="line" smooth="yes"/>
      <point x="166" y="56"/>
      <point x="171" y="48"/>
      <point x="188" y="47" type="curve" smooth="yes"/>
      <point x="246" y="42" type="line"/>
      <point x="246" y="0" type="line"/>
      <point x="-15" y="0" type="line"/>
      <point x="-15" y="42" type="line"/>
      <point x="43" y="47" type="line" smooth="yes"/>
      <point x="56" y="48"/>
      <point x="65" y="54"/>
      <point x="67" y="66" type="curve" smooth="yes"/>
      <point x="171" y="604" type="line" smooth="yes"/>
      <point x="173" y="615"/>
      <point x="169" y="623"/>
      <point x="151" y="624" type="curve" smooth="yes"/>
      <point x="95" y="629" type="line"/>
      <point x="95" y="671" type="line"/>
      <point x="285" y="671" type="line"/>
      <point x="262" y="551" type="line"/>
      <point x="326" y="639"/>
      <point x="409" y="687"/>
      <point x="503" y="687" type="curve" smooth="yes"/>
      <point x="593" y="687"/>
      <point x="689" y="617"/>
    </contour>
  </outline>
</glyph>
<glyph name="Obreve" format="1">
  <advance width="709"/>
  <unicode hex="014E"/>
  <outline>
    <contour>
      <point x="691" y="417" type="curve" smooth="yes"/>
      <point x="691" y="206"/>
      <point x="555" y="-16"/>
      <point x="320" y="-16" type="curve" smooth="yes"/>
      <point x="160" y="-16"/>
      <point x="48" y="94"/>
      <point x="48" y="262" type="curve" smooth="yes"/>
      <point x="48" y="477"/>
      <point x="200" y="687"/>
      <point x="420" y="687" type="curve" smooth="yes"/>
      <point x="586" y="687"/>
      <point x="691" y="566"/>
    </contour>
    <contour>
      <point x="577" y="417" type="curve" smooth="yes"/>
      <point x="577" y="550"/>
      <point x="507" y="637"/>
      <point x="411" y="637" type="curve" smooth="yes"/>
      <point x="265" y="637"/>
      <point x="161" y="431"/>
      <point x="161" y="254" type="curve" smooth="yes"/>
      <point x="161" y="119"/>
      <point x="234" y="36"/>
      <point x="327" y="36" type="curve" smooth="yes"/>
      <point x="473" y="36"/>
      <point x="577" y="247"/>
    </contour>
    <contour>
      <point x="623" y="890" type="line"/>
      <point x="607" y="822"/>
      <point x="546" y="746"/>
      <point x="441" y="746" type="curve" smooth="yes"/>
      <point x="346" y="746"/>
      <point x="311" y="806"/>
      <point x="311" y="863" type="curve" smooth="yes"/>
      <point x="311" y="871"/>
      <point x="312" y="880"/>
      <point x="313" y="890" type="curve"/>
      <point x="365" y="890" type="line"/>
      <point x="368" y="831"/>
      <point x="412" y="812"/>
      <point x="451" y="812" type="curve" smooth="yes"/>
      <point x="492" y="812"/>
      <point x="546" y="832"/>
      <point x="572" y="890" type="curve"/>
    </contour>
  </outline>
</glyph>
<glyph name="OE" format="1">
  <advance width="1004"/>
  <unicode hex="0152"/>
  <outline>
    <contour>
      <point x="1027" y="671" type="line"/>
      <point x="998" y="521" type="line"/>
      <point x="934" y="521" type="line"/>
      <point x="934" y="602" type="line" smooth="yes"/>
      <point x="934" y="616"/>
      <point x="929" y="621"/>
      <point x="914" y="621" type="curve" smooth="yes"/>
      <point x="724" y="621" type="line"/>
      <point x="676" y="375" type="line"/>
      <point x="811" y="375" type="line" smooth="yes"/>
      <point x="825" y="375"/>
      <point x="831" y="380"/>
      <point x="835" y="394" type="curve" smooth="yes"/>
      <point x="854" y="461" type="line"/>
      <point x="911" y="461" type="line"/>
      <point x="866" y="232" type="line"/>
      <point x="810" y="232" type="line"/>
      <point x="819" y="303" type="line" smooth="yes"/>
      <point x="821" y="316"/>
      <point x="814" y="323"/>
      <point x="800" y="323" type="curve" smooth="yes"/>
      <point x="667" y="323" type="line"/>
      <point x="613" y="50" type="line"/>
      <point x="849" y="50" type="line" smooth="yes"/>
      <point x="862" y="50"/>
      <point x="869" y="58"/>
      <point x="873" y="70" type="curve" smooth="yes"/>
      <point x="904" y="166" type="line"/>
      <point x="965" y="166" type="line"/>
      <point x="933" y="0" type="line"/>
      <point x="504" y="0" type="line"/>
      <point x="518" y="67" type="line"/>
      <point x="456" y="11"/>
      <point x="392" y="-16"/>
      <point x="320" y="-16" type="curve" smooth="yes"/>
      <point x="169" y="-16"/>
      <point x="48" y="87"/>
      <point x="48" y="263" type="curve" smooth="yes"/>
      <point x="48" y="469"/>
      <point x="197" y="687"/>
      <point x="419" y="687" type="curve" smooth="yes"/>
      <point x="521" y="687"/>
      <point x="580" y="642"/>
      <point x="616" y="578" type="curve"/>
      <point x="633" y="671" type="line"/>
    </contour>
    <contour>
      <point x="577" y="417" type="curve" smooth="yes"/>
      <point x="577" y="573"/>
      <point x="493" y="637"/>
      <point x="410" y="637" type="curve" smooth="yes"/>
      <point x="269" y="637"/>
      <point x="161" y="433"/>
      <point x="161" y="252" type="curve" smooth="yes"/>
      <point x="161" y="108"/>
      <point x="240" y="36"/>
      <point x="327" y="36" type="curve" smooth="yes"/>
      <point x="471" y="36"/>
      <point x="577" y="240"/>
    </contour>
  </outline>
</glyph>
<glyph name="sacute" format="1">
  <advance width="370"/>
  <unicode hex="015B"/>
  <outline>
    <contour>
      <point x="349" y="431" type="curve" smooth="yes"/>
      <point x="349" y="385"/>
      <point x="302" y="378"/>
      <point x="277" y="376" type="curve"/>
      <point x="232" y="437" type="line" smooth="yes"/>
      <point x="228" y="440"/>
      <point x="219" y="445"/>
      <point x="207" y="445" type="curve" smooth="yes"/>
      <point x="163" y="445"/>
      <point x="148" y="402"/>
      <point x="148" y="376" type="curve" smooth="yes"/>
      <point x="148" y="340"/>
      <point x="194" y="301"/>
      <point x="237" y="267" type="curve" smooth="yes"/>
      <point x="281" y="232"/>
      <point x="323" y="194"/>
      <point x="323" y="145" type="curve" smooth="yes"/>
      <point x="323" y="63"/>
      <point x="256" y="-12"/>
      <point x="132" y="-12" type="curve" smooth="yes"/>
      <point x="35" y="-12"/>
      <point x="-8" y="34"/>
      <point x="-8" y="80" type="curve" smooth="yes"/>
      <point x="-8" y="112"/>
      <point x="11" y="134"/>
      <point x="52" y="134" type="curve" smooth="yes"/>
      <point x="76" y="134"/>
      <point x="97" y="119"/>
      <point x="104" y="113" type="curve"/>
      <point x="85" y="64" type="line"/>
      <point x="99" y="44"/>
      <point x="119" y="28"/>
      <point x="153" y="28" type="curve" smooth="yes"/>
      <point x="194" y="28"/>
      <point x="231" y="60"/>
      <point x="231" y="111" type="curve" smooth="yes"/>
      <point x="231" y="152"/>
      <point x="197" y="180"/>
      <point x="149" y="217" type="curve" smooth="yes"/>
      <point x="108" y="249"/>
      <point x="68" y="293"/>
      <point x="68" y="343" type="curve" smooth="yes"/>
      <point x="68" y="441"/>
      <point x="166" y="494"/>
      <point x="248" y="494" type="curve" smooth="yes"/>
      <point x="323" y="494"/>
      <point x="349" y="455"/>
    </contour>
    <contour>
      <point x="415" y="689" type="curve" smooth="yes"/>
      <point x="415" y="670"/>
      <point x="406" y="658"/>
      <point x="391" y="648" type="curve" smooth="yes"/>
      <point x="241" y="551" type="line"/>
      <point x="170" y="551" type="line"/>
      <point x="307" y="707" type="line" smooth="yes"/>
      <point x="320" y="722"/>
      <point x="334" y="732"/>
      <point x="364" y="732" type="curve" smooth="yes"/>
      <point x="399" y="732"/>
      <point x="415" y="709"/>
    </contour>
  </outline>
</glyph>
<glyph name="wcircumflex" format="1">
  <advance width="702"/>
  <unicode hex="0175"/>
  <outline>
    <contour>
      <point x="706" y="435" type="curve" smooth="yes"/>
      <point x="706" y="323"/>
      <point x="458" y="12"/>
      <point x="438" y="-12" type="curve"/>
      <point x="376" y="-12" type="line"/>
      <point x="354" y="329" type="line"/>
      <point x="295" y="203"/>
      <point x="225" y="74"/>
      <point x="169" y="-12" type="curve"/>
      <point x="95" y="-12" type="line"/>
      <point x="105" y="11" type="line"/>
      <point x="77" y="424" type="line"/>
      <point x="2" y="432" type="line"/>
      <point x="2" y="460" type="line"/>
      <point x="123" y="494" type="line"/>
      <point x="168" y="491" type="line"/>
      <point x="190" y="117" type="line"/>
      <point x="242" y="213"/>
      <point x="307" y="350"/>
      <point x="359" y="469" type="curve"/>
      <point x="434" y="478" type="line"/>
      <point x="459" y="97" type="line"/>
      <point x="521" y="177"/>
      <point x="566" y="260"/>
      <point x="606" y="352" type="curve"/>
      <point x="586" y="469" type="line"/>
      <point x="591" y="474"/>
      <point x="612" y="494"/>
      <point x="646" y="494" type="curve" smooth="yes"/>
      <point x="694" y="494"/>
      <point x="706" y="451"/>
    </contour>
    <contour>
      <point x="560" y="551" type="line"/>
      <point x="490" y="551" type="line"/>
      <point x="408" y="643" type="line"/>
      <point x="288" y="551" type="line"/>
      <point x="218" y="551" type="line"/>
      <point x="383" y="720" type="line"/>
      <point x="461" y="720" type="line"/>
    </contour>
  </outline>
</glyph>
<glyph name="uni018E" format="1">
  <advance width="565"/>
  <unicode hex="018E"/>
  <outline>
    <contour>
      <point x="143" y="671" type="line"/>
      <point x="610" y="671" type="line"/>
      <point x="610" y="628" type="line"/>
      <point x="559" y="624" type="line" smooth="yes"/>
      <point x="545" y="623"/>
      <point x="535" y="612"/>
      <point x="533" y="602" type="curve" smooth="yes"/>
      <point x="431" y="69" type="line" smooth="yes"/>
      <point x="430" y="59"/>
      <point x="435" y="48"/>
      <point x="449" y="47" type="curve" smooth="yes"/>
      <point x="499" y="43" type="line"/>
      <point x="499" y="0" type="line"/>
      <point x="-17" y="0" type="line"/>
      <point x="15" y="167" type="line"/>
      <point x="67" y="167" type="line"/>
      <point x="66" y="68" type="line" smooth="yes"/>
      <point x="66" y="61"/>
      <point x="72" y="49"/>
      <point x="80" y="49" type="curve" smooth="yes"/>
      <point x="328" y="49" type="line"/>
      <point x="380" y="324" type="line"/>
      <point x="233" y="324" type="line" smooth="yes"/>
      <point x="225" y="324"/>
      <point x="213" y="313"/>
      <point x="212" y="306" type="curve" smooth="yes"/>
      <point x="189" y="237" type="line"/>
      <point x="139" y="237" type="line"/>
      <point x="182" y="460" type="line"/>
      <point x="231" y="460" type="line"/>
      <point x="229" y="391" type="line" smooth="yes"/>
      <point x="228" y="384"/>
      <point x="234" y="374"/>
      <point x="243" y="374" type="curve" smooth="yes"/>
      <point x="390" y="374" type="line"/>
      <point x="438" y="623" type="line"/>
      <point x="225" y="623" type="line" smooth="yes"/>
      <point x="216" y="623"/>
      <point x="206" y="614"/>
      <point x="203" y="604" type="curve" smooth="yes"/>
      <point x="173" y="522" type="line"/>
      <point x="114" y="522" type="line"/>
    </contour>
  </outline>
</glyph>
<glyph name="uni0190" format="1">
  <advance width="543"/>
  <unicode hex="0190"/>
  <outline>
    <contour>
      <point x="559" y="569" type="curve" smooth="yes"/>
      <point x="559" y="532"/>
      <point x="532" y="490"/>
      <point x="481" y="490" type="curve" smooth="yes"/>
      <point x="450" y="490"/>
      <point x="437" y="511"/>
      <point x="437" y="511" type="curve"/>
      <point x="394" y="625" type="line"/>
      <point x="384" y="630"/>
      <point x="378" y="631"/>
      <point x="375" y="631" type="curve" smooth="yes"/>
      <point x="292" y="631"/>
      <point x="232" y="555"/>
      <point x="232" y="471" type="curve" smooth="yes"/>
      <point x="232" y="397"/>
      <point x="287" y="377"/>
      <point x="340" y="377" type="curve" smooth="yes"/>
      <point x="346" y="377"/>
      <point x="357" y="377"/>
      <point x="373" y="378" type="curve"/>
      <point x="361" y="313" type="line"/>
      <point x="342" y="315"/>
      <point x="316" y="318"/>
      <point x="303" y="318" type="curve" smooth="yes"/>
      <point x="209" y="318"/>
      <point x="132" y="264"/>
      <point x="132" y="162" type="curve" smooth="yes"/>
      <point x="132" y="83"/>
      <point x="198" y="36"/>
      <point x="265" y="36" type="curve" smooth="yes"/>
      <point x="289" y="36"/>
      <point x="316" y="43"/>
      <point x="343" y="62" type="curve"/>
      <point x="389" y="146" type="line"/>
      <point x="396" y="148"/>
      <point x="415" y="154"/>
      <point x="426" y="154" type="curve" smooth="yes"/>
      <point x="463" y="154"/>
      <point x="480" y="135"/>
      <point x="480" y="108" type="curve" smooth="yes"/>
      <point x="480" y="37"/>
      <point x="359" y="-16"/>
      <point x="254" y="-16" type="curve" smooth="yes"/>
      <point x="123" y="-16"/>
      <point x="20" y="27"/>
      <point x="20" y="146" type="curve" smooth="yes"/>
      <point x="20" y="301"/>
      <point x="154" y="344"/>
      <point x="232" y="355" type="curve"/>
      <point x="166" y="382"/>
      <point x="123" y="420"/>
      <point x="123" y="482" type="curve" smooth="yes"/>
      <point x="123" y="604"/>
      <point x="234" y="687"/>
      <point x="363" y="687" type="curve" smooth="yes"/>
      <point x="466" y="687"/>
      <point x="559" y="661"/>
    </contour>
  </outline>
</glyph>
<glyph name="uni0196" format="1">
  <advance width="408"/>
  <unicode hex="0196"/>
  <outline>
    <contour>
      <point x="391" y="91" type="curve" smooth="yes"/>
      <point x="391" y="16"/>
      <point x="270" y="-16"/>
      <point x="211" y="-16" type="curve" smooth="yes"/>
      <point x="136" y="-16"/>
      <point x="77" y="10"/>
      <point x="77" y="94" type="curve" smooth="yes"/>
      <point x="77" y="109"/>
      <point x="79" y="124"/>
      <point x="82" y="139" type="curve" smooth="yes"/>
      <point x="171" y="604" type="line" smooth="yes"/>
      <point x="173" y="615"/>
      <point x="169" y="623"/>
      <point x="152" y="624" type="curve" smooth="yes"/>
      <point x="96" y="629" type="line"/>
      <point x="96" y="671" type="line"/>
      <point x="286" y="671" type="line"/>
      <point x="187" y="161" type="line" smooth="yes"/>
      <point x="185" y="149"/>
      <point x="183" y="136"/>
      <point x="183" y="124" type="curve" smooth="yes"/>
      <point x="183" y="73"/>
      <point x="211" y="46"/>
      <point x="263" y="46" type="curve"/>
      <point x="326" y="164" type="line"/>
      <point x="359" y="161"/>
      <point x="391" y="124"/>
    </contour>
  </outline>
</glyph>
<glyph name="uni01A5" format="1">
  <advance width="494"/>
  <unicode hex="01A5"/>
  <outline>
    <contour>
      <point x="509" y="640" type="curve" smooth="yes"/>
      <point x="509" y="609"/>
      <point x="478" y="583"/>
      <point x="448" y="583" type="curve" smooth="yes"/>
      <point x="434" y="583"/>
      <point x="425" y="588"/>
      <point x="425" y="588" type="curve"/>
      <point x="408" y="672" type="line"/>
      <point x="398" y="682"/>
      <point x="380" y="686"/>
      <point x="358" y="686" type="curve" smooth="yes"/>
      <point x="294" y="686"/>
      <point x="227" y="631"/>
      <point x="205" y="521" type="curve" smooth="yes"/>
      <point x="187" y="432" type="line"/>
      <point x="221" y="454"/>
      <point x="275" y="494"/>
      <point x="331" y="494" type="curve" smooth="yes"/>
      <point x="432" y="494"/>
      <point x="462" y="398"/>
      <point x="462" y="309" type="curve" smooth="yes"/>
      <point x="462" y="145"/>
      <point x="339" y="-12"/>
      <point x="176" y="-12" type="curve" smooth="yes"/>
      <point x="146" y="-12"/>
      <point x="121" y="-1"/>
      <point x="105" y="6" type="curve"/>
      <point x="73" y="-155" type="line" smooth="yes"/>
      <point x="71" y="-166"/>
      <point x="75" y="-173"/>
      <point x="93" y="-175" type="curve" smooth="yes"/>
      <point x="156" y="-180" type="line"/>
      <point x="156" y="-218" type="line"/>
      <point x="-96" y="-218" type="line"/>
      <point x="-96" y="-180" type="line"/>
      <point x="-44" y="-175" type="line" smooth="yes"/>
      <point x="-31" y="-174"/>
      <point x="-22" y="-168"/>
      <point x="-20" y="-155" type="curve" smooth="yes"/>
      <point x="116" y="542" type="line" smooth="yes"/>
      <point x="135" y="637"/>
      <point x="225" y="737"/>
      <point x="363" y="737" type="curve" smooth="yes"/>
      <point x="451" y="737"/>
      <point x="509" y="708"/>
    </contour>
    <contour>
      <point x="363" y="305" type="curve" smooth="yes"/>
      <point x="363" y="364"/>
      <point x="339" y="433"/>
      <point x="285" y="433" type="curve" smooth="yes"/>
      <point x="237" y="433"/>
      <point x="186" y="383"/>
      <point x="176" y="375" type="curve"/>
      <point x="116" y="65" type="line"/>
      <point x="128" y="58"/>
      <point x="161" y="35"/>
      <point x="196" y="35" type="curve" smooth="yes"/>
      <point x="305" y="35"/>
      <point x="363" y="194"/>
    </contour>
  </outline>
</glyph>
<glyph name="uni01A8" format="1">
  <advance width="368"/>
  <unicode hex="01A8"/>
  <outline>
    <contour>
      <point x="213" y="450" type="curve" smooth="yes"/>
      <point x="201" y="450"/>
      <point x="177" y="440"/>
      <point x="173" y="437" type="curve" smooth="yes"/>
      <point x="148" y="376" type="line"/>
      <point x="141" y="374"/>
      <point x="122" y="364"/>
      <point x="108" y="366" type="curve" smooth="yes"/>
      <point x="87" y="369"/>
      <point x="71" y="379"/>
      <point x="71" y="407" type="curve" smooth="yes"/>
      <point x="71" y="463"/>
      <point x="139" y="493"/>
      <point x="214" y="493" type="curve" smooth="yes"/>
      <point x="306" y="493"/>
      <point x="360" y="459"/>
      <point x="360" y="392" type="curve" smooth="yes"/>
      <point x="360" y="311"/>
      <point x="316" y="278"/>
      <point x="229" y="222" type="curve" smooth="yes"/>
      <point x="151" y="172"/>
      <point x="93" y="164"/>
      <point x="93" y="95" type="curve" smooth="yes"/>
      <point x="93" y="61"/>
      <point x="121" y="33"/>
      <point x="166" y="33" type="curve" smooth="yes"/>
      <point x="192" y="33"/>
      <point x="211" y="45"/>
      <point x="229" y="64" type="curve"/>
      <point x="244" y="134" type="line"/>
      <point x="250" y="138"/>
      <point x="270" y="144"/>
      <point x="292" y="144" type="curve" smooth="yes"/>
      <point x="314" y="144"/>
      <point x="337" y="125"/>
      <point x="337" y="92" type="curve" smooth="yes"/>
      <point x="337" y="30"/>
      <point x="244" y="-12"/>
      <point x="164" y="-12" type="curve" smooth="yes"/>
      <point x="69" y="-12"/>
      <point x="14" y="22"/>
      <point x="14" y="95" type="curve" smooth="yes"/>
      <point x="14" y="181"/>
      <point x="78" y="228"/>
      <point x="158" y="276" type="curve" smooth="yes"/>
      <point x="250" y="331"/>
      <point x="279" y="337"/>
      <point x="279" y="396" type="curve" smooth="yes"/>
      <point x="279" y="426"/>
      <point x="246" y="450"/>
    </contour>
  </outline>
</glyph>
<glyph name="uni01AC" format="1">
  <advance width="585"/>
  <unicode hex="01AC"/>
  <outline>
    <contour>
      <point x="649" y="671" type="line"/>
      <point x="618" y="518" type="line"/>
      <point x="555" y="518" type="line"/>
      <point x="559" y="606" type="line" smooth="yes"/>
      <point x="560" y="620"/>
      <point x="554" y="626"/>
      <point x="540" y="626" type="curve" smooth="yes"/>
      <point x="411" y="626" type="line"/>
      <point x="307" y="66" type="line" smooth="yes"/>
      <point x="305" y="56"/>
      <point x="309" y="48"/>
      <point x="327" y="47" type="curve" smooth="yes"/>
      <point x="384" y="42" type="line"/>
      <point x="384" y="0" type="line"/>
      <point x="124" y="0" type="line"/>
      <point x="124" y="42" type="line"/>
      <point x="182" y="47" type="line" smooth="yes"/>
      <point x="194" y="48"/>
      <point x="204" y="54"/>
      <point x="206" y="66" type="curve" smooth="yes"/>
      <point x="310" y="626" type="line"/>
      <point x="200" y="626" type="line" smooth="yes"/>
      <point x="152" y="626"/>
      <point x="129" y="614"/>
      <point x="129" y="581" type="curve"/>
      <point x="202" y="513" type="line"/>
      <point x="179" y="492"/>
      <point x="151" y="478"/>
      <point x="127" y="478" type="curve" smooth="yes"/>
      <point x="98" y="478"/>
      <point x="66" y="498"/>
      <point x="66" y="558" type="curve" smooth="yes"/>
      <point x="66" y="640"/>
      <point x="127" y="671"/>
      <point x="203" y="671" type="curve" smooth="yes"/>
    </contour>
  </outline>
</glyph>
<glyph name="uni01AE" format="1">
  <advance width="585"/>
  <unicode hex="01AE"/>
  <outline>
    <contour>
      <point x="411" y="626" type="line"/>
      <point x="291" y="-23" type="line" smooth="yes"/>
      <point x="276" y="-99"/>
      <point x="269" y="-164"/>
      <point x="302" y="-185" type="curve"/>
      <point x="411" y="-118" type="line"/>
      <point x="430" y="-125"/>
      <point x="449" y="-141"/>
      <point x="443" y="-175" type="curve" smooth="yes"/>
      <point x="435" y="-213"/>
      <point x="397" y="-231"/>
      <point x="357" y="-231" type="curve" smooth="yes"/>
      <point x="231" y="-231"/>
      <point x="190" y="-155"/>
      <point x="190" y="-60" type="curve" smooth="yes"/>
      <point x="190" y="-28"/>
      <point x="195" y="6"/>
      <point x="201" y="40" type="curve" smooth="yes"/>
      <point x="310" y="626" type="line"/>
      <point x="185" y="626" type="line" smooth="yes"/>
      <point x="173" y="626"/>
      <point x="164" y="619"/>
      <point x="160" y="606" type="curve" smooth="yes"/>
      <point x="129" y="518" type="line"/>
      <point x="66" y="518" type="line"/>
      <point x="95" y="671" type="line"/>
      <point x="649" y="671" type="line"/>
      <point x="618" y="518" type="line"/>
      <point x="555" y="518" type="line"/>
      <point x="559" y="606" type="line" smooth="yes"/>
      <point x="560" y="620"/>
      <point x="554" y="626"/>
      <point x="540" y="626" type="curve" smooth="yes"/>
    </contour>
  </outline>
</glyph>
<glyph name="uhorn" format="1">
  <advance width="645"/>
  <unicode hex="01B0"/>
  <outline>
    <contour>
      <point x="646" y="550" type="curve" smooth="yes"/>
      <point x="646" y="466"/>
      <point x="560" y="387"/>
      <point x="472" y="361" type="curve"/>
      <point x="417" y="97" type="line" smooth="yes"/>
      <point x="408" y="56"/>
      <point x="439" y="41"/>
      <point x="461" y="41" type="curve" smooth="yes"/>
      <point x="474" y="41"/>
      <point x="496" y="43"/>
      <point x="524" y="59" type="curve"/>
      <point x="524" y="24" type="line"/>
      <point x="499" y="10"/>
      <point x="431" y="-12"/>
      <point x="388" y="-12" type="curve" smooth="yes"/>
      <point x="313" y="-12"/>
      <point x="323" y="47"/>
      <point x="323" y="63" type="curve"/>
      <point x="271" y="13"/>
      <point x="214" y="-12"/>
      <point x="147" y="-12" type="curve" smooth="yes"/>
      <point x="54" y="-12"/>
      <point x="34" y="61"/>
      <point x="45" y="113" type="curve" smooth="yes"/>
      <point x="110" y="425" type="line"/>
      <point x="26" y="434" type="line"/>
      <point x="26" y="463" type="line"/>
      <point x="177" y="494" type="line"/>
      <point x="218" y="494" type="line"/>
      <point x="138" y="113" type="line" smooth="yes"/>
      <point x="131" y="79"/>
      <point x="164" y="50"/>
      <point x="190" y="50" type="curve" smooth="yes"/>
      <point x="238" y="50"/>
      <point x="290" y="79"/>
      <point x="328" y="114" type="curve"/>
      <point x="404" y="482" type="line"/>
      <point x="497" y="482" type="line"/>
      <point x="482" y="409" type="line"/>
      <point x="537" y="431"/>
      <point x="565" y="472"/>
      <point x="576" y="520" type="curve"/>
      <point x="506" y="520" type="line"/>
      <point x="506" y="520"/>
      <point x="493" y="542"/>
      <point x="493" y="566" type="curve" smooth="yes"/>
      <point x="493" y="608"/>
      <point x="534" y="636"/>
      <point x="572" y="636" type="curve" smooth="yes"/>
      <point x="618" y="636"/>
      <point x="646" y="603"/>
    </contour>
    <contour>
      <point x="473" y="400" type="line"/>
      <point x="527" y="429"/>
      <point x="572" y="468"/>
      <point x="583" y="520" type="curve"/>
      <point x="518" y="520" type="line"/>
      <point x="518" y="520"/>
      <point x="503" y="546"/>
      <point x="508" y="574" type="curve" smooth="yes"/>
      <point x="515" y="609"/>
      <point x="551" y="631"/>
      <point x="583" y="631" type="curve" smooth="yes"/>
      <point x="628" y="631"/>
      <point x="652" y="589"/>
      <point x="638" y="524" type="curve" smooth="yes"/>
      <point x="625" y="460"/>
      <point x="545" y="396"/>
      <point x="466" y="363" type="curve"/>
    </contour>
  </outline>
</glyph>
<glyph name="uni01B2" format="1">
  <advance width="703"/>
  <unicode hex="01B2"/>
  <outline>
    <contour>
      <point x="680" y="450" type="curve" smooth="yes"/>
      <point x="680" y="191"/>
      <point x="519" y="-14"/>
      <point x="278" y="-14" type="curve" smooth="yes"/>
      <point x="172" y="-14"/>
      <point x="79" y="43"/>
      <point x="79" y="160" type="curve" smooth="yes"/>
      <point x="79" y="171"/>
      <point x="85" y="212"/>
      <point x="96" y="264" type="curve" smooth="yes"/>
      <point x="165" y="604" type="line" smooth="yes"/>
      <point x="167" y="615"/>
      <point x="163" y="623"/>
      <point x="146" y="624" type="curve" smooth="yes"/>
      <point x="89" y="629" type="line"/>
      <point x="89" y="671" type="line"/>
      <point x="280" y="671" type="line"/>
      <point x="197" y="264" type="line" smooth="yes"/>
      <point x="189" y="228"/>
      <point x="186" y="202"/>
      <point x="186" y="195" type="curve" smooth="yes"/>
      <point x="186" y="104"/>
      <point x="248" y="57"/>
      <point x="324" y="57" type="curve" smooth="yes"/>
      <point x="482" y="57"/>
      <point x="607" y="287"/>
      <point x="607" y="414" type="curve" smooth="yes"/>
      <point x="607" y="491"/>
      <point x="575" y="549"/>
      <point x="561" y="563" type="curve"/>
      <point x="458" y="563" type="line"/>
      <point x="458" y="563"/>
      <point x="437" y="585"/>
      <point x="437" y="611" type="curve" smooth="yes"/>
      <point x="437" y="655"/>
      <point x="485" y="687"/>
      <point x="535" y="687" type="curve" smooth="yes"/>
      <point x="637" y="687"/>
      <point x="680" y="544"/>
    </contour>
  </outline>
</glyph>
<glyph name="uni01B8" format="1">
  <advance width="588"/>
  <unicode hex="01B8"/>
  <outline>
    <contour>
      <point x="621" y="671" type="line"/>
      <point x="579" y="458" type="line"/>
      <point x="522" y="458" type="line"/>
      <point x="531" y="553" type="line" smooth="yes"/>
      <point x="531" y="564"/>
      <point x="523" y="576"/>
      <point x="514" y="576" type="curve" smooth="yes"/>
      <point x="235" y="576" type="line"/>
      <point x="417" y="271" type="line"/>
      <point x="380" y="236" type="line"/>
      <point x="375" y="241"/>
      <point x="364" y="250"/>
      <point x="339" y="250" type="curve" smooth="yes"/>
      <point x="258" y="250"/>
      <point x="114" y="185"/>
      <point x="114" y="31" type="curve" smooth="yes"/>
      <point x="114" y="-63"/>
      <point x="176" y="-162"/>
      <point x="269" y="-162" type="curve" smooth="yes"/>
      <point x="305" y="-162"/>
      <point x="358" y="-152"/>
      <point x="384" y="-131" type="curve"/>
      <point x="411" y="-24" type="line"/>
      <point x="429" y="-12"/>
      <point x="442" y="-10"/>
      <point x="461" y="-10" type="curve" smooth="yes"/>
      <point x="505" y="-10"/>
      <point x="530" y="-29"/>
      <point x="530" y="-78" type="curve" smooth="yes"/>
      <point x="530" y="-146"/>
      <point x="411" y="-229"/>
      <point x="259" y="-229" type="curve" smooth="yes"/>
      <point x="112" y="-229"/>
      <point x="0" y="-113"/>
      <point x="0" y="18" type="curve" smooth="yes"/>
      <point x="0" y="184"/>
      <point x="161" y="300"/>
      <point x="315" y="300" type="curve"/>
      <point x="140" y="599" type="line"/>
      <point x="154" y="671" type="line"/>
    </contour>
  </outline>
</glyph>
<glyph name="uni01B9" format="1">
  <advance width="516"/>
  <unicode hex="01B9"/>
  <outline>
    <contour>
      <point x="516" y="389" type="curve" smooth="yes"/>
      <point x="516" y="346"/>
      <point x="493" y="298"/>
      <point x="449" y="298" type="curve" smooth="yes"/>
      <point x="419" y="298"/>
      <point x="402" y="315"/>
      <point x="399" y="332" type="curve"/>
      <point x="465" y="389" type="line"/>
      <point x="461" y="405"/>
      <point x="435" y="418"/>
      <point x="415" y="418" type="curve" smooth="yes"/>
      <point x="376" y="418"/>
      <point x="332" y="396"/>
      <point x="295" y="396" type="curve" smooth="yes"/>
      <point x="261" y="396"/>
      <point x="188" y="400"/>
      <point x="188" y="400" type="curve"/>
      <point x="371" y="145" type="line"/>
      <point x="307" y="100" type="line"/>
      <point x="289" y="149" type="line"/>
      <point x="195" y="142"/>
      <point x="90" y="64"/>
      <point x="90" y="-37" type="curve" smooth="yes"/>
      <point x="90" y="-105"/>
      <point x="143" y="-177"/>
      <point x="217" y="-177" type="curve" smooth="yes"/>
      <point x="244" y="-177"/>
      <point x="294" y="-166"/>
      <point x="319" y="-141" type="curve"/>
      <point x="348" y="-42" type="line"/>
      <point x="362" y="-38"/>
      <point x="382" y="-31"/>
      <point x="394" y="-31" type="curve" smooth="yes"/>
      <point x="432" y="-31"/>
      <point x="448" y="-57"/>
      <point x="448" y="-82" type="curve" smooth="yes"/>
      <point x="448" y="-180"/>
      <point x="305" y="-229"/>
      <point x="209" y="-229" type="curve" smooth="yes"/>
      <point x="98" y="-229"/>
      <point x="-10" y="-153"/>
      <point x="-10" y="-48" type="curve" smooth="yes"/>
      <point x="-10" y="95"/>
      <point x="134" y="191"/>
      <point x="258" y="191" type="curve"/>
      <point x="76" y="452" type="line"/>
      <point x="159" y="500" type="line"/>
      <point x="173" y="455" type="line"/>
      <point x="187" y="453"/>
      <point x="199" y="449"/>
      <point x="213" y="449" type="curve" smooth="yes"/>
      <point x="251" y="449"/>
      <point x="343" y="494"/>
      <point x="396" y="494" type="curve" smooth="yes"/>
      <point x="468" y="494"/>
      <point x="516" y="453"/>
    </contour>
  </outline>
</glyph>
<glyph name="uni01BA" format="1">
  <advance width="474"/>
  <unicode hex="01BA"/>
  <outline>
    <contour>
      <point x="508" y="452" type="line"/>
      <point x="287" y="247" type="line"/>
      <point x="307" y="247"/>
      <point x="403" y="253"/>
      <point x="403" y="162" type="curve" smooth="yes"/>
      <point x="403" y="-26"/>
      <point x="111" y="8"/>
      <point x="111" y="-121" type="curve" smooth="yes"/>
      <point x="111" y="-152"/>
      <point x="148" y="-184"/>
      <point x="181" y="-184" type="curve" smooth="yes"/>
      <point x="214" y="-184"/>
      <point x="264" y="-173"/>
      <point x="276" y="-154" type="curve"/>
      <point x="276" y="-87" type="line"/>
      <point x="286" y="-75"/>
      <point x="308" y="-64"/>
      <point x="329" y="-64" type="curve" smooth="yes"/>
      <point x="356" y="-64"/>
      <point x="369" y="-86"/>
      <point x="369" y="-113" type="curve" smooth="yes"/>
      <point x="369" y="-156"/>
      <point x="286" y="-229"/>
      <point x="181" y="-229" type="curve" smooth="yes"/>
      <point x="119" y="-229"/>
      <point x="38" y="-181"/>
      <point x="38" y="-104" type="curve" smooth="yes"/>
      <point x="38" y="58"/>
      <point x="323" y="44"/>
      <point x="323" y="150" type="curve" smooth="yes"/>
      <point x="323" y="181"/>
      <point x="274" y="207"/>
      <point x="239" y="207" type="curve" smooth="yes"/>
      <point x="205" y="207"/>
      <point x="176" y="183"/>
      <point x="176" y="183" type="curve"/>
      <point x="153" y="203" type="line"/>
      <point x="372" y="400" type="line"/>
      <point x="372" y="400"/>
      <point x="292" y="396"/>
      <point x="258" y="396" type="curve" smooth="yes"/>
      <point x="221" y="396"/>
      <point x="186" y="418"/>
      <point x="147" y="418" type="curve" smooth="yes"/>
      <point x="127" y="418"/>
      <point x="105" y="405"/>
      <point x="95" y="389" type="curve"/>
      <point x="146" y="325" type="line"/>
      <point x="136" y="308"/>
      <point x="114" y="292"/>
      <point x="93" y="292" type="curve" smooth="yes"/>
      <point x="60" y="292"/>
      <point x="39" y="320"/>
      <point x="39" y="351" type="curve" smooth="yes"/>
      <point x="39" y="425"/>
      <point x="101" y="494"/>
      <point x="176" y="494" type="curve" smooth="yes"/>
      <point x="244" y="494"/>
      <point x="304" y="449"/>
      <point x="370" y="449" type="curve" smooth="yes"/>
      <point x="384" y="449"/>
      <point x="398" y="453"/>
      <point x="412" y="455" type="curve"/>
      <point x="444" y="500" type="line"/>
    </contour>
  </outline>
</glyph>
<glyph name="uni01BE" format="1">
  <advance width="438"/>
  <unicode hex="01BE"/>
  <outline>
    <contour>
      <point x="413" y="435" type="line"/>
      <point x="283" y="435" type="line"/>
      <point x="273" y="388" type="line"/>
      <point x="341" y="355"/>
      <point x="406" y="327"/>
      <point x="406" y="194" type="curve" smooth="yes"/>
      <point x="406" y="43"/>
      <point x="267" y="-12"/>
      <point x="137" y="-12" type="curve" smooth="yes"/>
      <point x="40" y="-12"/>
      <point x="9" y="31"/>
      <point x="9" y="70" type="curve" smooth="yes"/>
      <point x="9" y="110"/>
      <point x="39" y="141"/>
      <point x="81" y="141" type="curve" smooth="yes"/>
      <point x="104" y="141" type="line"/>
      <point x="124" y="42" type="line"/>
      <point x="229" y="42"/>
      <point x="300" y="86"/>
      <point x="300" y="200" type="curve" smooth="yes"/>
      <point x="300" y="289"/>
      <point x="231" y="331"/>
      <point x="173" y="352" type="curve"/>
      <point x="190" y="435" type="line"/>
      <point x="62" y="435" type="line"/>
      <point x="62" y="486" type="line"/>
      <point x="200" y="486" type="line"/>
      <point x="223" y="600" type="line" smooth="yes"/>
      <point x="225" y="609"/>
      <point x="213" y="619"/>
      <point x="204" y="620" type="curve" smooth="yes"/>
      <point x="152" y="625" type="line"/>
      <point x="152" y="671" type="line"/>
      <point x="393" y="671" type="line"/>
      <point x="393" y="625" type="line"/>
      <point x="341" y="620" type="line" smooth="yes"/>
      <point x="332" y="619"/>
      <point x="318" y="609"/>
      <point x="316" y="600" type="curve" smooth="yes"/>
      <point x="293" y="486" type="line"/>
      <point x="413" y="486" type="line"/>
    </contour>
  </outline>
</glyph>
<glyph name="uni01BF" format="1">
  <advance width="492"/>
  <unicode hex="01BF"/>
  <outline>
    <contour>
      <point x="156" y="-180" type="line"/>
      <point x="156" y="-218" type="line"/>
      <point x="-96" y="-218" type="line"/>
      <point x="-96" y="-180" type="line"/>
      <point x="-44" y="-175" type="line" smooth="yes"/>
      <point x="-31" y="-174"/>
      <point x="-22" y="-168"/>
      <point x="-20" y="-155" type="curve" smooth="yes"/>
      <point x="93" y="425" type="line"/>
      <point x="9" y="434" type="line"/>
      <point x="9" y="463" type="line"/>
      <point x="160" y="494" type="line"/>
      <point x="199" y="494" type="line"/>
      <point x="187" y="432" type="line"/>
      <point x="222" y="463"/>
      <point x="275" y="494"/>
      <point x="331" y="494" type="curve" smooth="yes"/>
      <point x="422" y="494"/>
      <point x="460" y="437"/>
      <point x="460" y="364" type="curve" smooth="yes"/>
      <point x="460" y="157"/>
      <point x="251" y="-9"/>
      <point x="87" y="-87" type="curve"/>
      <point x="73" y="-155" type="line" smooth="yes"/>
      <point x="71" y="-166"/>
      <point x="75" y="-174"/>
      <point x="93" y="-175" type="curve" smooth="yes"/>
    </contour>
    <contour>
      <point x="176" y="375" type="curve"/>
      <point x="98" y="-28" type="line"/>
      <point x="223" y="38"/>
      <point x="358" y="188"/>
      <point x="358" y="345" type="curve" smooth="yes"/>
      <point x="358" y="398"/>
      <point x="321" y="433"/>
      <point x="285" y="433" type="curve" smooth="yes"/>
      <point x="256" y="433"/>
      <point x="218" y="408"/>
    </contour>
  </outline>
</glyph>
<glyph name="uni01C0" format="1">
  <advance width="221"/>
  <unicode hex="01C0"/>
  <outline>
    <contour>
      <point x="51" y="-215" type="line"/>
      <point x="-5" y="-215" type="line"/>
      <point x="176" y="736" type="line"/>
      <point x="232" y="736" type="line"/>
    </contour>
  </outline>
</glyph>
<glyph name="uni01C9" format="1">
  <advance width="538"/>
  <unicode hex="01C9"/>
  <outline>
    <contour>
      <point x="263" y="26" type="line"/>
      <point x="247" y="20"/>
      <point x="171" y="-12"/>
      <point x="124" y="-12" type="curve" smooth="yes"/>
      <point x="63" y="-12"/>
      <point x="39" y="18"/>
      <point x="39" y="61" type="curve" smooth="yes"/>
      <point x="39" y="71"/>
      <point x="40" y="83"/>
      <point x="42" y="96" type="curve" smooth="yes"/>
      <point x="152" y="668" type="line"/>
      <point x="63" y="677" type="line"/>
      <point x="63" y="707" type="line"/>
      <point x="219" y="737" type="line"/>
      <point x="258" y="737" type="line"/>
      <point x="136" y="99" type="line" smooth="yes"/>
      <point x="131" y="72"/>
      <point x="154" y="44"/>
      <point x="182" y="44" type="curve" smooth="yes"/>
      <point x="201" y="44"/>
      <point x="252" y="61"/>
      <point x="263" y="64" type="curve"/>
    </contour>
    <contour>
      <point x="531" y="641" type="curve" smooth="yes"/>
      <point x="531" y="617"/>
      <point x="506" y="585"/>
      <point x="469" y="585" type="curve" smooth="yes"/>
      <point x="433" y="585"/>
      <point x="407" y="609"/>
      <point x="407" y="641" type="curve" smooth="yes"/>
      <point x="407" y="671"/>
      <point x="427" y="698"/>
      <point x="469" y="698" type="curve" smooth="yes"/>
      <point x="509" y="698"/>
      <point x="531" y="671"/>
    </contour>
    <contour>
      <point x="496" y="494" type="line"/>
      <point x="425" y="80" type="line" smooth="yes"/>
      <point x="408" y="-20"/>
      <point x="337" y="-229"/>
      <point x="203" y="-229" type="curve" smooth="yes"/>
      <point x="161" y="-229"/>
      <point x="136" y="-206"/>
      <point x="136" y="-176" type="curve" smooth="yes"/>
      <point x="136" y="-151"/>
      <point x="154" y="-137"/>
      <point x="164" y="-131" type="curve"/>
      <point x="264" y="-158" type="line"/>
      <point x="283" y="-137"/>
      <point x="307" y="-67"/>
      <point x="317" y="-12" type="curve" smooth="yes"/>
      <point x="392" y="425" type="line"/>
      <point x="308" y="434" type="line"/>
      <point x="308" y="463" type="line"/>
      <point x="459" y="494" type="line"/>
    </contour>
  </outline>
</glyph>
<glyph name="Icaron" format="1">
  <advance width="313"/>
  <unicode hex="01CF"/>
  <outline>
    <contour>
      <point x="356" y="629" type="line"/>
      <point x="292" y="624" type="line" smooth="yes"/>
      <point x="279" y="623"/>
      <point x="275" y="617"/>
      <point x="272" y="604" type="curve" smooth="yes"/>
      <point x="168" y="66" type="line" smooth="yes"/>
      <point x="166" y="56"/>
      <point x="170" y="48"/>
      <point x="188" y="47" type="curve" smooth="yes"/>
      <point x="246" y="42" type="line"/>
      <point x="246" y="0" type="line"/>
      <point x="-15" y="0" type="line"/>
      <point x="-15" y="42" type="line"/>
      <point x="48" y="47" type="line" smooth="yes"/>
      <point x="60" y="48"/>
      <point x="65" y="54"/>
      <point x="67" y="66" type="curve" smooth="yes"/>
      <point x="171" y="604" type="line" smooth="yes"/>
      <point x="173" y="615"/>
      <point x="169" y="623"/>
      <point x="152" y="624" type="curve" smooth="yes"/>
      <point x="96" y="629" type="line"/>
      <point x="96" y="671" type="line"/>
      <point x="356" y="671" type="line"/>
    </contour>
    <contour>
      <point x="447" y="916" type="line"/>
      <point x="281" y="746" type="line"/>
      <point x="202" y="746" type="line"/>
      <point x="104" y="916" type="line"/>
      <point x="174" y="916" type="line"/>
      <point x="257" y="823" type="line"/>
      <point x="376" y="916" type="line"/>
    </contour>
  </outline>
</glyph>
<glyph name="uni01D6" format="1">
  <advance width="526"/>
  <unicode hex="01D6"/>
  <outline>
    <contour>
      <point x="524" y="24" type="line"/>
      <point x="499" y="10"/>
      <point x="431" y="-12"/>
      <point x="388" y="-12" type="curve" smooth="yes"/>
      <point x="313" y="-12"/>
      <point x="323" y="47"/>
      <point x="323" y="63" type="curve"/>
      <point x="271" y="13"/>
      <point x="214" y="-12"/>
      <point x="147" y="-12" type="curve" smooth="yes"/>
      <point x="54" y="-12"/>
      <point x="34" y="61"/>
      <point x="45" y="113" type="curve" smooth="yes"/>
      <point x="110" y="425" type="line"/>
      <point x="26" y="434" type="line"/>
      <point x="26" y="463" type="line"/>
      <point x="177" y="494" type="line"/>
      <point x="218" y="494" type="line"/>
      <point x="138" y="113" type="line" smooth="yes"/>
      <point x="131" y="79"/>
      <point x="164" y="50"/>
      <point x="190" y="50" type="curve" smooth="yes"/>
      <point x="238" y="50"/>
      <point x="290" y="79"/>
      <point x="328" y="114" type="curve"/>
      <point x="404" y="482" type="line"/>
      <point x="497" y="482" type="line"/>
      <point x="417" y="97" type="line" smooth="yes"/>
      <point x="408" y="56"/>
      <point x="439" y="41"/>
      <point x="461" y="41" type="curve" smooth="yes"/>
      <point x="474" y="41"/>
      <point x="496" y="43"/>
      <point x="524" y="59" type="curve"/>
    </contour>
    <contour>
      <point x="499" y="641" type="curve" smooth="yes"/>
      <point x="499" y="611"/>
      <point x="475" y="585"/>
      <point x="445" y="585" type="curve" smooth="yes"/>
      <point x="415" y="585"/>
      <point x="390" y="611"/>
      <point x="390" y="641" type="curve" smooth="yes"/>
      <point x="390" y="669"/>
      <point x="417" y="696"/>
      <point x="445" y="696" type="curve" smooth="yes"/>
      <point x="475" y="696"/>
      <point x="499" y="671"/>
    </contour>
    <contour>
      <point x="292" y="641" type="curve" smooth="yes"/>
      <point x="292" y="611"/>
      <point x="267" y="585"/>
      <point x="237" y="585" type="curve" smooth="yes"/>
      <point x="208" y="585"/>
      <point x="183" y="611"/>
      <point x="183" y="640" type="curve" smooth="yes"/>
      <point x="183" y="669"/>
      <point x="208" y="696"/>
      <point x="237" y="696" type="curve" smooth="yes"/>
      <point x="267" y="696"/>
      <point x="292" y="671"/>
    </contour>
    <contour>
      <point x="516" y="847" type="line"/>
      <point x="503" y="781" type="line"/>
      <point x="200" y="781" type="line"/>
      <point x="214" y="847" type="line"/>
    </contour>
  </outline>
</glyph>
<glyph name="uni01DB" format="1">
  <advance width="707"/>
  <unicode hex="01DB"/>
  <outline>
    <contour>
      <point x="749" y="629" type="line"/>
      <point x="691" y="624" type="line" smooth="yes"/>
      <point x="679" y="623"/>
      <point x="669" y="617"/>
      <point x="667" y="604" type="curve" smooth="yes"/>
      <point x="590" y="214" type="line" smooth="yes"/>
      <point x="562" y="69"/>
      <point x="470" y="-16"/>
      <point x="311" y="-16" type="curve" smooth="yes"/>
      <point x="188" y="-16"/>
      <point x="92" y="32"/>
      <point x="92" y="159" type="curve" smooth="yes"/>
      <point x="92" y="179"/>
      <point x="96" y="218"/>
      <point x="105" y="264" type="curve" smooth="yes"/>
      <point x="175" y="604" type="line" smooth="yes"/>
      <point x="177" y="615"/>
      <point x="173" y="623"/>
      <point x="155" y="624" type="curve" smooth="yes"/>
      <point x="99" y="629" type="line"/>
      <point x="99" y="671" type="line"/>
      <point x="359" y="671" type="line"/>
      <point x="359" y="629" type="line"/>
      <point x="300" y="624" type="line" smooth="yes"/>
      <point x="288" y="623"/>
      <point x="278" y="617"/>
      <point x="276" y="604" type="curve" smooth="yes"/>
      <point x="207" y="264" type="line" smooth="yes"/>
      <point x="199" y="225"/>
      <point x="196" y="193"/>
      <point x="196" y="175" type="curve" smooth="yes"/>
      <point x="196" y="91"/>
      <point x="251" y="49"/>
      <point x="337" y="49" type="curve" smooth="yes"/>
      <point x="467" y="49"/>
      <point x="508" y="142"/>
      <point x="529" y="249" type="curve" smooth="yes"/>
      <point x="599" y="604" type="line" smooth="yes"/>
      <point x="601" y="615"/>
      <point x="597" y="623"/>
      <point x="579" y="624" type="curve" smooth="yes"/>
      <point x="523" y="629" type="line"/>
      <point x="523" y="671" type="line"/>
      <point x="749" y="671" type="line"/>
    </contour>
    <contour>
      <point x="618" y="836" type="curve" smooth="yes"/>
      <point x="618" y="806"/>
      <point x="594" y="780"/>
      <point x="564" y="780" type="curve" smooth="yes"/>
      <point x="534" y="780"/>
      <point x="509" y="806"/>
      <point x="509" y="836" type="curve" smooth="yes"/>
      <point x="509" y="864"/>
      <point x="536" y="891"/>
      <point x="564" y="891" type="curve" smooth="yes"/>
      <point x="594" y="891"/>
      <point x="618" y="866"/>
    </contour>
    <contour>
      <point x="411" y="836" type="curve" smooth="yes"/>
      <point x="411" y="806"/>
      <point x="386" y="780"/>
      <point x="356" y="780" type="curve" smooth="yes"/>
      <point x="327" y="780"/>
      <point x="302" y="806"/>
      <point x="302" y="835" type="curve" smooth="yes"/>
      <point x="302" y="864"/>
      <point x="327" y="891"/>
      <point x="356" y="891" type="curve" smooth="yes"/>
      <point x="386" y="891"/>
      <point x="411" y="866"/>
    </contour>
    <contour>
      <point x="562" y="941" type="line"/>
      <point x="500" y="941" type="line"/>
      <point x="355" y="1037" type="line" smooth="yes"/>
      <point x="341" y="1046"/>
      <point x="333" y="1059"/>
      <point x="333" y="1079" type="curve" smooth="yes"/>
      <point x="333" y="1099"/>
      <point x="342" y="1123"/>
      <point x="377" y="1123" type="curve" smooth="yes"/>
      <point x="405" y="1123"/>
      <point x="417" y="1112"/>
      <point x="429" y="1098" type="curve" smooth="yes"/>
    </contour>
  </outline>
</glyph>
<glyph name="uni01ED" format="1">
  <advance width="505"/>
  <unicode hex="01ED"/>
  <outline>
    <contour>
      <point x="475" y="300" type="curve" smooth="yes"/>
      <point x="475" y="197"/>
      <point x="425" y="80"/>
      <point x="337" y="26" type="curve" smooth="yes"/>
      <point x="263" y="-19"/>
      <point x="215" y="-71"/>
      <point x="215" y="-123" type="curve" smooth="yes"/>
      <point x="215" y="-147"/>
      <point x="233" y="-157"/>
      <point x="255" y="-157" type="curve" smooth="yes"/>
      <point x="268" y="-157"/>
      <point x="280" y="-155"/>
      <point x="292" y="-152" type="curve"/>
      <point x="284" y="-209" type="line"/>
      <point x="267" y="-213"/>
      <point x="247" y="-216"/>
      <point x="229" y="-216" type="curve" smooth="yes"/>
      <point x="186" y="-216"/>
      <point x="147" y="-199"/>
      <point x="147" y="-150" type="curve" smooth="yes"/>
      <point x="147" y="-97"/>
      <point x="187" y="-45"/>
      <point x="229" y="-11" type="curve"/>
      <point x="223" y="-11"/>
      <point x="215" y="-12"/>
      <point x="209" y="-12" type="curve" smooth="yes"/>
      <point x="99" y="-12"/>
      <point x="31" y="61"/>
      <point x="31" y="177" type="curve" smooth="yes"/>
      <point x="31" y="339"/>
      <point x="139" y="494"/>
      <point x="296" y="494" type="curve" smooth="yes"/>
      <point x="392" y="494"/>
      <point x="475" y="435"/>
    </contour>
    <contour>
      <point x="374" y="304" type="curve" smooth="yes"/>
      <point x="374" y="399"/>
      <point x="336" y="451"/>
      <point x="285" y="451" type="curve" smooth="yes"/>
      <point x="198" y="451"/>
      <point x="132" y="312"/>
      <point x="132" y="182" type="curve" smooth="yes"/>
      <point x="132" y="83"/>
      <point x="171" y="33"/>
      <point x="221" y="33" type="curve" smooth="yes"/>
      <point x="316" y="33"/>
      <point x="374" y="186"/>
    </contour>
    <contour>
      <point x="488" y="652" type="line"/>
      <point x="475" y="586" type="line"/>
      <point x="172" y="586" type="line"/>
      <point x="187" y="652" type="line"/>
    </contour>
  </outline>
</glyph>
<glyph name="uni0202" format="1">
  <advance width="672"/>
  <unicode hex="0202"/>
  <outline>
    <contour>
      <point x="626" y="0" type="line"/>
      <point x="391" y="0" type="line"/>
      <point x="391" y="42" type="line"/>
      <point x="437" y="47" type="line" smooth="yes"/>
      <point x="452" y="49"/>
      <point x="458" y="55"/>
      <point x="456" y="66" type="curve" smooth="yes"/>
      <point x="426" y="257" type="line"/>
      <point x="199" y="257" type="line"/>
      <point x="97" y="66" type="line" smooth="yes"/>
      <point x="90" y="53"/>
      <point x="97" y="49"/>
      <point x="116" y="47" type="curve" smooth="yes"/>
      <point x="162" y="42" type="line"/>
      <point x="162" y="0" type="line"/>
      <point x="-53" y="0" type="line"/>
      <point x="-53" y="42" type="line"/>
      <point x="3" y="48" type="line"/>
      <point x="372" y="687" type="line"/>
      <point x="452" y="687" type="line"/>
      <point x="560" y="66" type="line" smooth="yes"/>
      <point x="562" y="53"/>
      <point x="566" y="48"/>
      <point x="580" y="47" type="curve" smooth="yes"/>
      <point x="626" y="42" type="line"/>
    </contour>
    <contour>
      <point x="417" y="304" type="line"/>
      <point x="374" y="564" type="line"/>
      <point x="226" y="304" type="line"/>
    </contour>
    <contour>
      <point x="562" y="774" type="curve" smooth="yes"/>
      <point x="562" y="765"/>
      <point x="562" y="755"/>
      <point x="560" y="746" type="curve"/>
      <point x="517" y="746" type="line"/>
      <point x="516" y="800"/>
      <point x="476" y="821"/>
      <point x="429" y="821" type="curve" smooth="yes"/>
      <point x="382" y="821"/>
      <point x="331" y="800"/>
      <point x="308" y="746" type="curve"/>
      <point x="265" y="746" type="line"/>
      <point x="279" y="814"/>
      <point x="341" y="890"/>
      <point x="439" y="890" type="curve" smooth="yes"/>
      <point x="524" y="890"/>
      <point x="562" y="833"/>
    </contour>
  </outline>
</glyph>
<glyph name="uni020D" format="1">
  <advance width="505"/>
  <unicode hex="020D"/>
  <outline>
    <contour>
      <point x="475" y="300" type="curve" smooth="yes"/>
      <point x="475" y="138"/>
      <point x="363" y="-12"/>
      <point x="209" y="-12" type="curve" smooth="yes"/>
      <point x="99" y="-12"/>
      <point x="31" y="61"/>
      <point x="31" y="177" type="curve" smooth="yes"/>
      <point x="31" y="339"/>
      <point x="139" y="494"/>
      <point x="296" y="494" type="curve" smooth="yes"/>
      <point x="392" y="494"/>
      <point x="475" y="435"/>
    </contour>
    <contour>
      <point x="374" y="304" type="curve" smooth="yes"/>
      <point x="374" y="399"/>
      <point x="336" y="451"/>
      <point x="285" y="451" type="curve" smooth="yes"/>
      <point x="198" y="451"/>
      <point x="132" y="312"/>
      <point x="132" y="182" type="curve" smooth="yes"/>
      <point x="132" y="83"/>
      <point x="171" y="33"/>
      <point x="221" y="33" type="curve" smooth="yes"/>
      <point x="316" y="33"/>
      <point x="374" y="186"/>
    </contour>
    <contour>
      <point x="488" y="551" type="line"/>
      <point x="430" y="551" type="line"/>
      <point x="297" y="648" type="line" smooth="yes"/>
      <point x="287" y="655"/>
      <point x="281" y="666"/>
      <point x="281" y="679" type="curve" smooth="yes"/>
      <point x="281" y="710"/>
      <point x="306" y="733"/>
      <point x="337" y="733" type="curve" smooth="yes"/>
      <point x="364" y="733"/>
      <point x="373" y="723"/>
      <point x="384" y="706" type="curve" smooth="yes"/>
    </contour>
    <contour>
      <point x="302" y="551" type="line"/>
      <point x="245" y="551" type="line"/>
      <point x="112" y="648" type="line" smooth="yes"/>
      <point x="102" y="655"/>
      <point x="96" y="665"/>
      <point x="96" y="679" type="curve" smooth="yes"/>
      <point x="96" y="710"/>
      <point x="120" y="733"/>
      <point x="152" y="733" type="curve" smooth="yes"/>
      <point x="179" y="733"/>
      <point x="187" y="723"/>
      <point x="198" y="706" type="curve" smooth="yes"/>
    </contour>
  </outline>
</glyph>
<glyph name="uni0219" format="1">
  <advance width="370"/>
  <unicode hex="0219"/>
  <outline>
    <contour>
      <point x="349" y="431" type="curve" smooth="yes"/>
      <point x="349" y="385"/>
      <point x="302" y="378"/>
      <point x="277" y="376" type="curve"/>
      <point x="232" y="437" type="line" smooth="yes"/>
      <point x="228" y="440"/>
      <point x="219" y="445"/>
      <point x="207" y="445" type="curve" smooth="yes"/>
      <point x="163" y="445"/>
      <point x="148" y="402"/>
      <point x="148" y="376" type="curve" smooth="yes"/>
      <point x="148" y="340"/>
      <point x="194" y="301"/>
      <point x="237" y="267" type="curve" smooth="yes"/>
      <point x="281" y="232"/>
      <point x="323" y="194"/>
      <point x="323" y="145" type="curve" smooth="yes"/>
      <point x="323" y="63"/>
      <point x="256" y="-12"/>
      <point x="132" y="-12" type="curve" smooth="yes"/>
      <point x="35" y="-12"/>
      <point x="-8" y="34"/>
      <point x="-8" y="80" type="curve" smooth="yes"/>
      <point x="-8" y="112"/>
      <point x="11" y="134"/>
      <point x="52" y="134" type="curve" smooth="yes"/>
      <point x="76" y="134"/>
      <point x="97" y="119"/>
      <point x="104" y="113" type="curve"/>
      <point x="85" y="64" type="line"/>
      <point x="99" y="44"/>
      <point x="119" y="28"/>
      <point x="153" y="28" type="curve" smooth="yes"/>
      <point x="194" y="28"/>
      <point x="231" y="60"/>
      <point x="231" y="111" type="curve" smooth="yes"/>
      <point x="231" y="152"/>
      <point x="197" y="180"/>
      <point x="149" y="217" type="curve" smooth="yes"/>
      <point x="108" y="249"/>
      <point x="68" y="293"/>
      <point x="68" y="343" type="curve" smooth="yes"/>
      <point x="68" y="441"/>
      <point x="166" y="494"/>
      <point x="248" y="494" type="curve" smooth="yes"/>
      <point x="323" y="494"/>
      <point x="349" y="455"/>
    </contour>
    <contour>
      <point x="169" y="-121" type="curve" smooth="yes"/>
      <point x="169" y="-204"/>
      <point x="97" y="-252"/>
      <point x="22" y="-266" type="curve"/>
      <point x="28" y="-232" type="line"/>
      <point x="82" y="-216"/>
      <point x="102" y="-202"/>
      <point x="113" y="-145" type="curve"/>
      <point x="60" y="-145" type="line"/>
      <point x="54" y="-138"/>
      <point x="52" y="-127"/>
      <point x="52" y="-118" type="curve" smooth="yes"/>
      <point x="52" y="-84"/>
      <point x="81" y="-61"/>
      <point x="113" y="-61" type="curve" smooth="yes"/>
      <point x="150" y="-61"/>
      <point x="169" y="-85"/>
    </contour>
  </outline>
</glyph>
<glyph name="uni0223" format="1">
  <advance width="540"/>
  <unicode hex="0223"/>
  <outline>
    <contour>
      <point x="351" y="737" type="curve" smooth="yes"/>
      <point x="442" y="737"/>
      <point x="509" y="683"/>
      <point x="509" y="587" type="curve" smooth="yes"/>
      <point x="509" y="477"/>
      <point x="417" y="395"/>
      <point x="341" y="383" type="curve"/>
      <point x="409" y="365"/>
      <point x="464" y="318"/>
      <point x="464" y="231" type="curve" smooth="yes"/>
      <point x="464" y="93"/>
      <point x="338" y="-12"/>
      <point x="209" y="-12" type="curve" smooth="yes"/>
      <point x="100" y="-12"/>
      <point x="31" y="47"/>
      <point x="31" y="150" type="curve" smooth="yes"/>
      <point x="31" y="271"/>
      <point x="126" y="365"/>
      <point x="226" y="383" type="curve"/>
      <point x="176" y="392"/>
      <point x="122" y="429"/>
      <point x="122" y="513" type="curve" smooth="yes"/>
      <point x="122" y="648"/>
      <point x="237" y="737"/>
    </contour>
    <contour>
      <point x="340" y="687" type="curve" smooth="yes"/>
      <point x="257" y="687"/>
      <point x="220" y="594"/>
      <point x="220" y="516" type="curve" smooth="yes"/>
      <point x="220" y="462"/>
      <point x="240" y="411"/>
      <point x="288" y="411" type="curve" smooth="yes"/>
      <point x="362" y="411"/>
      <point x="412" y="496"/>
      <point x="412" y="586" type="curve" smooth="yes"/>
      <point x="412" y="645"/>
      <point x="386" y="687"/>
    </contour>
    <contour>
      <point x="219" y="41" type="curve" smooth="yes"/>
      <point x="308" y="41"/>
      <point x="363" y="139"/>
      <point x="363" y="236" type="curve" smooth="yes"/>
      <point x="363" y="303"/>
      <point x="328" y="356"/>
      <point x="278" y="356" type="curve" smooth="yes"/>
      <point x="188" y="356"/>
      <point x="132" y="254"/>
      <point x="132" y="157" type="curve" smooth="yes"/>
      <point x="132" y="94"/>
      <point x="167" y="41"/>
    </contour>
  </outline>
</glyph>
<glyph name="uni024B" format="1">
  <advance width="521"/>
  <unicode hex="024B"/>
  <outline>
    <contour>
      <point x="539" y="-158" type="curve" smooth="yes"/>
      <point x="539" y="-209"/>
      <point x="486" y="-229"/>
      <point x="442" y="-229" type="curve" smooth="yes"/>
      <point x="355" y="-229"/>
      <point x="285" y="-201"/>
      <point x="285" y="-104" type="curve" smooth="yes"/>
      <point x="285" y="-62"/>
      <point x="312" y="53"/>
      <point x="312" y="53" type="curve"/>
      <point x="266" y="15"/>
      <point x="217" y="-12"/>
      <point x="170" y="-12" type="curve" smooth="yes"/>
      <point x="90" y="-12"/>
      <point x="32" y="50"/>
      <point x="32" y="169" type="curve" smooth="yes"/>
      <point x="32" y="323"/>
      <point x="146" y="494"/>
      <point x="313" y="494" type="curve" smooth="yes"/>
      <point x="355" y="494"/>
      <point x="389" y="479"/>
      <point x="407" y="465" type="curve"/>
      <point x="431" y="494" type="line"/>
      <point x="491" y="494" type="line"/>
      <point x="386" y="-37" type="line" smooth="yes"/>
      <point x="381" y="-65"/>
      <point x="372" y="-96"/>
      <point x="372" y="-125" type="curve" smooth="yes"/>
      <point x="372" y="-151"/>
      <point x="384" y="-165"/>
      <point x="408" y="-174" type="curve"/>
      <point x="503" y="-115" type="line"/>
      <point x="523" y="-119"/>
      <point x="539" y="-137"/>
    </contour>
    <contour>
      <point x="377" y="388" type="line" smooth="yes"/>
      <point x="380" y="403"/>
      <point x="341" y="448"/>
      <point x="326" y="448" type="curve" smooth="yes"/>
      <point x="217" y="448"/>
      <point x="129" y="329"/>
      <point x="129" y="173" type="curve" smooth="yes"/>
      <point x="129" y="97"/>
      <point x="160" y="49"/>
      <point x="210" y="49" type="curve" smooth="yes"/>
      <point x="251" y="49"/>
      <point x="288" y="82"/>
      <point x="323" y="113" type="curve"/>
    </contour>
  </outline>
</glyph>
<glyph name="uni024F" format="1">
  <advance width="497"/>
  <unicode hex="024F"/>
  <outline>
    <contour>
      <point x="524" y="444" type="line"/>
      <point x="474" y="413" type="line" smooth="yes"/>
      <point x="466" y="406"/>
      <point x="451" y="383"/>
      <point x="435" y="358" type="curve"/>
      <point x="494" y="358" type="line"/>
      <point x="494" y="308" type="line"/>
      <point x="406" y="308" type="line"/>
      <point x="401" y="298"/>
      <point x="395" y="288"/>
      <point x="392" y="280" type="curve" smooth="yes"/>
      <point x="364" y="216"/>
      <point x="315" y="92"/>
      <point x="251" y="-16" type="curve" smooth="yes"/>
      <point x="189" y="-122"/>
      <point x="109" y="-229"/>
      <point x="13" y="-229" type="curve" smooth="yes"/>
      <point x="-60" y="-229"/>
      <point x="-80" y="-188"/>
      <point x="-80" y="-163" type="curve" smooth="yes"/>
      <point x="-80" y="-133"/>
      <point x="-51" y="-106"/>
      <point x="-11" y="-104" type="curve"/>
      <point x="47" y="-162" type="line"/>
      <point x="89" y="-158"/>
      <point x="124" y="-105"/>
      <point x="192" y="18" type="curve"/>
      <point x="189" y="34"/>
      <point x="171" y="133"/>
      <point x="150" y="229" type="curve" smooth="yes"/>
      <point x="144" y="255"/>
      <point x="137" y="283"/>
      <point x="131" y="308" type="curve"/>
      <point x="9" y="308" type="line"/>
      <point x="9" y="358" type="line"/>
      <point x="118" y="358" type="line"/>
      <point x="107" y="399"/>
      <point x="98" y="427"/>
      <point x="93" y="428" type="curve" smooth="yes"/>
      <point x="2" y="435" type="line"/>
      <point x="2" y="460" type="line"/>
      <point x="20" y="466"/>
      <point x="104" y="494"/>
      <point x="122" y="494" type="curve" smooth="yes"/>
      <point x="165" y="494"/>
      <point x="185" y="452"/>
      <point x="205" y="386" type="curve" smooth="yes"/>
      <point x="213" y="358" type="line"/>
      <point x="355" y="358" type="line"/>
      <point x="412" y="494" type="line"/>
      <point x="441" y="494" type="line"/>
      <point x="524" y="467" type="line"/>
    </contour>
    <contour>
      <point x="225" y="308" type="line"/>
      <point x="236" y="257"/>
      <point x="248" y="197"/>
      <point x="260" y="130" type="curve"/>
      <point x="334" y="308" type="line"/>
    </contour>
  </outline>
</glyph>
<glyph name="uni0255" format="1">
  <advance width="435"/>
  <unicode hex="0255"/>
  <outline>
    <contour>
      <point x="403" y="424" type="curve" smooth="yes"/>
      <point x="403" y="398"/>
      <point x="390" y="367"/>
      <point x="326" y="359" type="curve"/>
      <point x="269" y="436" type="line"/>
      <point x="161" y="431"/>
      <point x="127" y="266"/>
      <point x="127" y="186" type="curve" smooth="yes"/>
      <point x="127" y="146"/>
      <point x="136" y="105"/>
      <point x="158" y="80" type="curve"/>
      <point x="189" y="148"/>
      <point x="231" y="210"/>
      <point x="310" y="210" type="curve" smooth="yes"/>
      <point x="352" y="210"/>
      <point x="383" y="183"/>
      <point x="383" y="140" type="curve" smooth="yes"/>
      <point x="383" y="45"/>
      <point x="272" y="-12"/>
      <point x="192" y="-12" type="curve" smooth="yes"/>
      <point x="186" y="-12"/>
      <point x="173" y="-11"/>
      <point x="167" y="-10" type="curve"/>
      <point x="153" y="-48"/>
      <point x="139" y="-90"/>
      <point x="132" y="-129" type="curve"/>
      <point x="84" y="-129" type="line"/>
      <point x="92" y="-88"/>
      <point x="106" y="-43"/>
      <point x="121" y="0" type="curve"/>
      <point x="65" y="25"/>
      <point x="32" y="85"/>
      <point x="32" y="174" type="curve" smooth="yes"/>
      <point x="32" y="353"/>
      <point x="165" y="494"/>
      <point x="301" y="494" type="curve" smooth="yes"/>
      <point x="373" y="494"/>
      <point x="403" y="454"/>
    </contour>
    <contour>
      <point x="328" y="136" type="curve" smooth="yes"/>
      <point x="328" y="151"/>
      <point x="319" y="162"/>
      <point x="301" y="162" type="curve" smooth="yes"/>
      <point x="249" y="162"/>
      <point x="216" y="106"/>
      <point x="194" y="56" type="curve"/>
      <point x="205" y="54"/>
      <point x="220" y="51"/>
      <point x="233" y="51" type="curve" smooth="yes"/>
      <point x="273" y="51"/>
      <point x="328" y="93"/>
    </contour>
  </outline>
</glyph>
<glyph name="uni025E" format="1">
  <advance width="503"/>
  <unicode hex="025E"/>
  <outline>
    <contour>
      <point x="473" y="380" type="curve" smooth="yes"/>
      <point x="473" y="314"/>
      <point x="395" y="263"/>
      <point x="340" y="243" type="curve"/>
      <point x="393" y="236"/>
      <point x="439" y="216"/>
      <point x="439" y="156" type="curve" smooth="yes"/>
      <point x="439" y="29"/>
      <point x="305" y="-12"/>
      <point x="201" y="-12" type="curve" smooth="yes"/>
      <point x="87" y="-12"/>
      <point x="32" y="64"/>
      <point x="32" y="172" type="curve" smooth="yes"/>
      <point x="32" y="351"/>
      <point x="139" y="494"/>
      <point x="326" y="494" type="curve" smooth="yes"/>
      <point x="394" y="494"/>
      <point x="473" y="458"/>
    </contour>
    <contour>
      <point x="375" y="383" type="curve" smooth="yes"/>
      <point x="375" y="428"/>
      <point x="347" y="456"/>
      <point x="302" y="456" type="curve" smooth="yes"/>
      <point x="172" y="456"/>
      <point x="97" y="297"/>
      <point x="97" y="185" type="curve" smooth="yes"/>
      <point x="97" y="116"/>
      <point x="133" y="34"/>
      <point x="214" y="34" type="curve" smooth="yes"/>
      <point x="279" y="34"/>
      <point x="343" y="90"/>
      <point x="343" y="157" type="curve" smooth="yes"/>
      <point x="343" y="221"/>
      <point x="283" y="216"/>
      <point x="236" y="216" type="curve"/>
      <point x="236" y="256" type="line"/>
      <point x="308" y="257"/>
      <point x="375" y="307"/>
    </contour>
  </outline>
</glyph>
<glyph name="uni0262" format="1">
  <advance width="524"/>
  <unicode hex="0262"/>
  <outline>
    <contour>
      <point x="528" y="200" type="line"/>
      <point x="484" y="196" type="line" smooth="yes"/>
      <point x="475" y="195"/>
      <point x="470" y="192"/>
      <point x="469" y="186" type="curve" smooth="yes"/>
      <point x="433" y="17" type="line"/>
      <point x="377" y="3"/>
      <point x="316" y="-12"/>
      <point x="259" y="-12" type="curve" smooth="yes"/>
      <point x="77" y="-12"/>
      <point x="32" y="113"/>
      <point x="32" y="193" type="curve" smooth="yes"/>
      <point x="32" y="378"/>
      <point x="204" y="494"/>
      <point x="375" y="494" type="curve" smooth="yes"/>
      <point x="426" y="494"/>
      <point x="461" y="486"/>
      <point x="526" y="468" type="curve"/>
      <point x="500" y="347" type="line"/>
      <point x="438" y="347" type="line"/>
      <point x="441" y="417" type="line" smooth="yes"/>
      <point x="441" y="425"/>
      <point x="437" y="430"/>
      <point x="429" y="432" type="curve" smooth="yes"/>
      <point x="407" y="442"/>
      <point x="389" y="446"/>
      <point x="365" y="446" type="curve" smooth="yes"/>
      <point x="250" y="446"/>
      <point x="131" y="343"/>
      <point x="131" y="183" type="curve" smooth="yes"/>
      <point x="131" y="72"/>
      <point x="220" y="35"/>
      <point x="275" y="35" type="curve" smooth="yes"/>
      <point x="300" y="35"/>
      <point x="324" y="41"/>
      <point x="348" y="46" type="curve"/>
      <point x="376" y="187" type="line" smooth="yes"/>
      <point x="377" y="191"/>
      <point x="377" y="195"/>
      <point x="365" y="196" type="curve" smooth="yes"/>
      <point x="322" y="200" type="line"/>
      <point x="322" y="238" type="line"/>
      <point x="528" y="238" type="line"/>
    </contour>
  </outline>
</glyph>
<glyph name="uni0263" format="1">
  <advance width="461"/>
  <unicode hex="0263"/>
  <outline>
    <contour>
      <point x="467" y="434" type="curve" smooth="yes"/>
      <point x="467" y="401"/>
      <point x="452" y="372"/>
      <point x="446" y="359" type="curve" smooth="yes"/>
      <point x="384" y="246"/>
      <point x="319" y="156"/>
      <point x="229" y="49" type="curve"/>
      <point x="231" y="33"/>
      <point x="244" y="-91"/>
      <point x="244" y="-104" type="curve" smooth="yes"/>
      <point x="244" y="-162"/>
      <point x="187" y="-229"/>
      <point x="122" y="-229" type="curve" smooth="yes"/>
      <point x="64" y="-229"/>
      <point x="15" y="-200"/>
      <point x="15" y="-137" type="curve" smooth="yes"/>
      <point x="15" y="-76"/>
      <point x="92" y="5"/>
      <point x="140" y="43" type="curve"/>
      <point x="130" y="140"/>
      <point x="119" y="321"/>
      <point x="96" y="408" type="curve" smooth="yes"/>
      <point x="92" y="422"/>
      <point x="84" y="428"/>
      <point x="73" y="428" type="curve" smooth="yes"/>
      <point x="2" y="432" type="line"/>
      <point x="2" y="461" type="line"/>
      <point x="109" y="494" type="line"/>
      <point x="163" y="493"/>
      <point x="186" y="470"/>
      <point x="191" y="423" type="curve" smooth="yes"/>
      <point x="222" y="115" type="line"/>
      <point x="290" y="204"/>
      <point x="336" y="272"/>
      <point x="367" y="351" type="curve"/>
      <point x="348" y="472" type="line"/>
      <point x="361" y="485"/>
      <point x="381" y="494"/>
      <point x="406" y="494" type="curve" smooth="yes"/>
      <point x="448" y="494"/>
      <point x="467" y="470"/>
    </contour>
    <contour>
      <point x="151" y="-94" type="curve" smooth="yes"/>
      <point x="151" y="-85"/>
      <point x="145" y="-41"/>
      <point x="143" y="-22" type="curve"/>
      <point x="127" y="-37"/>
      <point x="73" y="-106"/>
      <point x="73" y="-125" type="curve" smooth="yes"/>
      <point x="73" y="-140"/>
      <point x="83" y="-161"/>
      <point x="103" y="-161" type="curve" smooth="yes"/>
      <point x="125" y="-161"/>
      <point x="151" y="-136"/>
    </contour>
  </outline>
</glyph>
<glyph name="uni0265" format="1">
  <advance width="523"/>
  <unicode hex="0265"/>
  <outline>
    <contour>
      <point x="496" y="482" type="line"/>
      <point x="362" y="-161" type="line"/>
      <point x="451" y="-169" type="line"/>
      <point x="451" y="-199" type="line"/>
      <point x="295" y="-229" type="line"/>
      <point x="255" y="-229" type="line"/>
      <point x="317" y="68" type="line"/>
      <point x="276" y="23"/>
      <point x="204" y="-12"/>
      <point x="137" y="-12" type="curve" smooth="yes"/>
      <point x="64" y="-12"/>
      <point x="24" y="33"/>
      <point x="42" y="123" type="curve" smooth="yes"/>
      <point x="98" y="392" type="line" smooth="yes"/>
      <point x="106" y="430"/>
      <point x="67" y="441"/>
      <point x="55" y="441" type="curve" smooth="yes"/>
      <point x="37" y="441"/>
      <point x="15" y="429"/>
      <point x="-8" y="422" type="curve"/>
      <point x="-9" y="457" type="line"/>
      <point x="8" y="463"/>
      <point x="83" y="494"/>
      <point x="125" y="494" type="curve" smooth="yes"/>
      <point x="149" y="494"/>
      <point x="209" y="483"/>
      <point x="198" y="429" type="curve" smooth="yes"/>
      <point x="137" y="134" type="line" smooth="yes"/>
      <point x="126" y="81"/>
      <point x="170" y="54"/>
      <point x="192" y="54" type="curve" smooth="yes"/>
      <point x="224" y="54"/>
      <point x="287" y="86"/>
      <point x="331" y="132" type="curve"/>
      <point x="403" y="482" type="line"/>
    </contour>
  </outline>
</glyph>
<glyph name="uni0270" format="1">
  <advance width="775"/>
  <unicode hex="0270"/>
  <outline>
    <contour>
      <point x="744" y="482" type="line"/>
      <point x="615" y="-149" type="line"/>
      <point x="699" y="-158" type="line"/>
      <point x="699" y="-187" type="line"/>
      <point x="548" y="-218" type="line"/>
      <point x="507" y="-218" type="line"/>
      <point x="568" y="80" type="line"/>
      <point x="520" y="33"/>
      <point x="455" y="-12"/>
      <point x="396" y="-12" type="curve" smooth="yes"/>
      <point x="329" y="-12"/>
      <point x="312" y="44"/>
      <point x="307" y="80" type="curve"/>
      <point x="259" y="32"/>
      <point x="186" y="-12"/>
      <point x="125" y="-12" type="curve" smooth="yes"/>
      <point x="58" y="-12"/>
      <point x="23" y="38"/>
      <point x="39" y="115" type="curve" smooth="yes"/>
      <point x="94" y="385" type="line" smooth="yes"/>
      <point x="101" y="417"/>
      <point x="77" y="439"/>
      <point x="51" y="439" type="curve" smooth="yes"/>
      <point x="36" y="439"/>
      <point x="14" y="429"/>
      <point x="-12" y="422" type="curve"/>
      <point x="-12" y="456" type="line"/>
      <point x="23" y="470"/>
      <point x="76" y="494"/>
      <point x="114" y="494" type="curve" smooth="yes"/>
      <point x="169" y="494"/>
      <point x="205" y="470"/>
      <point x="195" y="424" type="curve" smooth="yes"/>
      <point x="141" y="157" type="line" smooth="yes"/>
      <point x="127" y="90"/>
      <point x="152" y="58"/>
      <point x="178" y="58" type="curve" smooth="yes"/>
      <point x="240" y="58"/>
      <point x="298" y="121"/>
      <point x="313" y="144" type="curve"/>
      <point x="383" y="482" type="line"/>
      <point x="476" y="482" type="line"/>
      <point x="409" y="156" type="line" smooth="yes"/>
      <point x="400" y="113"/>
      <point x="408" y="58"/>
      <point x="451" y="58" type="curve" smooth="yes"/>
      <point x="497" y="58"/>
      <point x="562" y="121"/>
      <point x="582" y="146" type="curve"/>
      <point x="651" y="482" type="line"/>
    </contour>
  </outline>
</glyph>
<glyph name="uni027A" format="1">
  <advance width="358"/>
  <unicode hex="027A"/>
  <outline>
    <contour>
      <point x="387" y="737" type="line"/>
      <point x="252" y="57" type="line"/>
      <point x="336" y="48" type="line"/>
      <point x="336" y="19" type="line"/>
      <point x="186" y="-12" type="line"/>
      <point x="146" y="-12" type="line"/>
      <point x="167" y="89" type="line"/>
      <point x="126" y="26"/>
      <point x="73" y="-12"/>
      <point x="13" y="-12" type="curve" smooth="yes"/>
      <point x="-35" y="-12"/>
      <point x="-51" y="28"/>
      <point x="-51" y="55" type="curve" smooth="yes"/>
      <point x="-51" y="102"/>
      <point x="-17" y="108"/>
      <point x="38" y="108" type="curve"/>
      <point x="62" y="60" type="line"/>
      <point x="111" y="81"/>
      <point x="183" y="172"/>
      <point x="194" y="230" type="curve" smooth="yes"/>
      <point x="281" y="668" type="line"/>
      <point x="192" y="677" type="line"/>
      <point x="192" y="707" type="line"/>
      <point x="346" y="737" type="line"/>
    </contour>
  </outline>
</glyph>
<glyph name="uni0280" format="1">
  <advance width="513"/>
  <unicode hex="0280"/>
  <outline>
    <contour>
      <point x="492" y="1" type="line"/>
      <point x="468" y="-8"/>
      <point x="449" y="-12"/>
      <point x="430" y="-12" type="curve" smooth="yes"/>
      <point x="370" y="-12"/>
      <point x="334" y="11"/>
      <point x="316" y="65" type="curve" smooth="yes"/>
      <point x="296" y="126"/>
      <point x="301" y="209"/>
      <point x="212" y="209" type="curve" smooth="yes"/>
      <point x="202" y="209"/>
      <point x="185" y="209"/>
      <point x="177" y="208" type="curve"/>
      <point x="146" y="63" type="line" smooth="yes"/>
      <point x="144" y="52"/>
      <point x="149" y="45"/>
      <point x="166" y="43" type="curve" smooth="yes"/>
      <point x="218" y="38" type="line"/>
      <point x="218" y="0" type="line"/>
      <point x="-20" y="0" type="line"/>
      <point x="-20" y="38" type="line"/>
      <point x="32" y="43" type="line" smooth="yes"/>
      <point x="45" y="44"/>
      <point x="54" y="50"/>
      <point x="57" y="62" type="curve" smooth="yes"/>
      <point x="131" y="419" type="line" smooth="yes"/>
      <point x="134" y="430"/>
      <point x="129" y="437"/>
      <point x="112" y="439" type="curve" smooth="yes"/>
      <point x="60" y="444" type="line"/>
      <point x="60" y="482" type="line"/>
      <point x="291" y="482" type="line" smooth="yes"/>
      <point x="377" y="482"/>
      <point x="465" y="460"/>
      <point x="465" y="374" type="curve" smooth="yes"/>
      <point x="465" y="297"/>
      <point x="397" y="251"/>
      <point x="314" y="228" type="curve"/>
      <point x="370" y="202"/>
      <point x="377" y="166"/>
      <point x="392" y="114" type="curve" smooth="yes"/>
      <point x="406" y="63"/>
      <point x="423" y="38"/>
      <point x="492" y="38" type="curve"/>
    </contour>
    <contour>
      <point x="368" y="363" type="curve" smooth="yes"/>
      <point x="368" y="427"/>
      <point x="299" y="443"/>
      <point x="238" y="438" type="curve" smooth="yes"/>
      <point x="227" y="437" type="line"/>
      <point x="187" y="254" type="line"/>
      <point x="198" y="254" type="line" smooth="yes"/>
      <point x="283" y="254"/>
      <point x="368" y="278"/>
    </contour>
  </outline>
</glyph>
<glyph name="uni028B" format="1">
  <advance width="526"/>
  <unicode hex="028B"/>
  <outline>
    <contour>
      <point x="496" y="320" type="curve" smooth="yes"/>
      <point x="496" y="250"/>
      <point x="435" y="-12"/>
      <point x="208" y="-12" type="curve" smooth="yes"/>
      <point x="129" y="-12"/>
      <point x="51" y="33"/>
      <point x="51" y="116" type="curve" smooth="yes"/>
      <point x="51" y="130"/>
      <point x="54" y="156"/>
      <point x="61" y="188" type="curve" smooth="yes"/>
      <point x="110" y="425" type="line"/>
      <point x="26" y="434" type="line"/>
      <point x="26" y="463" type="line"/>
      <point x="177" y="494" type="line"/>
      <point x="218" y="494" type="line"/>
      <point x="154" y="188" type="line" smooth="yes"/>
      <point x="150" y="168"/>
      <point x="148" y="152"/>
      <point x="148" y="145" type="curve" smooth="yes"/>
      <point x="148" y="88"/>
      <point x="210" y="59"/>
      <point x="265" y="59" type="curve" smooth="yes"/>
      <point x="372" y="59"/>
      <point x="441" y="242"/>
      <point x="441" y="302" type="curve" smooth="yes"/>
      <point x="441" y="341"/>
      <point x="433" y="371"/>
      <point x="406" y="399" type="curve"/>
      <point x="319" y="399" type="line"/>
      <point x="319" y="399"/>
      <point x="306" y="411"/>
      <point x="306" y="431" type="curve" smooth="yes"/>
      <point x="306" y="451"/>
      <point x="328" y="494"/>
      <point x="375" y="494" type="curve" smooth="yes"/>
      <point x="436" y="494"/>
      <point x="496" y="440"/>
    </contour>
  </outline>
</glyph>
<glyph name="uni0296" format="1">
  <advance width="438"/>
  <unicode hex="0296"/>
  <outline>
    <contour>
      <point x="406" y="194" type="curve" smooth="yes"/>
      <point x="406" y="43"/>
      <point x="267" y="-12"/>
      <point x="137" y="-12" type="curve" smooth="yes"/>
      <point x="40" y="-12"/>
      <point x="9" y="31"/>
      <point x="9" y="70" type="curve" smooth="yes"/>
      <point x="9" y="110"/>
      <point x="39" y="141"/>
      <point x="81" y="141" type="curve" smooth="yes"/>
      <point x="104" y="141" type="line"/>
      <point x="124" y="42" type="line"/>
      <point x="229" y="42"/>
      <point x="300" y="86"/>
      <point x="300" y="200" type="curve" smooth="yes"/>
      <point x="300" y="289"/>
      <point x="231" y="331"/>
      <point x="173" y="352" type="curve"/>
      <point x="223" y="600" type="line" smooth="yes"/>
      <point x="225" y="609"/>
      <point x="213" y="619"/>
      <point x="204" y="620" type="curve" smooth="yes"/>
      <point x="152" y="625" type="line"/>
      <point x="152" y="671" type="line"/>
      <point x="393" y="671" type="line"/>
      <point x="393" y="625" type="line"/>
      <point x="341" y="620" type="line" smooth="yes"/>
      <point x="332" y="619"/>
      <point x="318" y="609"/>
      <point x="316" y="600" type="curve" smooth="yes"/>
      <point x="273" y="388" type="line"/>
      <point x="341" y="355"/>
      <point x="406" y="327"/>
    </contour>
  </outline>
</glyph>
<glyph name="uni029A" format="1">
  <advance width="500"/>
  <unicode hex="029A"/>
  <outline>
    <contour>
      <point x="469" y="326" type="curve" smooth="yes"/>
      <point x="469" y="172"/>
      <point x="366" y="-12"/>
      <point x="191" y="-12" type="curve" smooth="yes"/>
      <point x="63" y="-12"/>
      <point x="7" y="30"/>
      <point x="7" y="101" type="curve" smooth="yes"/>
      <point x="7" y="181"/>
      <point x="63" y="230"/>
      <point x="158" y="243" type="curve"/>
      <point x="96" y="268"/>
      <point x="77" y="310"/>
      <point x="77" y="347" type="curve" smooth="yes"/>
      <point x="77" y="435"/>
      <point x="191" y="494"/>
      <point x="277" y="494" type="curve" smooth="yes"/>
      <point x="419" y="494"/>
      <point x="469" y="423"/>
    </contour>
    <contour>
      <point x="399" y="316" type="curve" smooth="yes"/>
      <point x="399" y="415"/>
      <point x="346" y="456"/>
      <point x="283" y="456" type="curve" smooth="yes"/>
      <point x="222" y="456"/>
      <point x="176" y="403"/>
      <point x="176" y="333" type="curve" smooth="yes"/>
      <point x="176" y="279"/>
      <point x="209" y="257"/>
      <point x="265" y="256" type="curve"/>
      <point x="265" y="217" type="line"/>
      <point x="226" y="217" type="line" smooth="yes"/>
      <point x="170" y="217"/>
      <point x="112" y="196"/>
      <point x="112" y="118" type="curve" smooth="yes"/>
      <point x="112" y="62"/>
      <point x="156" y="34"/>
      <point x="199" y="34" type="curve" smooth="yes"/>
      <point x="321" y="34"/>
      <point x="399" y="198"/>
    </contour>
  </outline>
</glyph>
<glyph name="uni02B4" format="1">
  <advance width="232"/>
  <unicode hex="02B4"/>
  <outline>
    <contour>
      <point x="276" y="672" type="line"/>
      <point x="220" y="417" type="line"/>
      <point x="274" y="412" type="line"/>
      <point x="274" y="395" type="line"/>
      <point x="177" y="376" type="line"/>
      <point x="151" y="376" type="line"/>
      <point x="165" y="437" type="line"/>
      <point x="139" y="399"/>
      <point x="104" y="376"/>
      <point x="65" y="376" type="curve" smooth="yes"/>
      <point x="33" y="376"/>
      <point x="23" y="400"/>
      <point x="23" y="417" type="curve" smooth="yes"/>
      <point x="23" y="445"/>
      <point x="45" y="448"/>
      <point x="81" y="448" type="curve"/>
      <point x="97" y="419" type="line"/>
      <point x="129" y="432"/>
      <point x="174" y="486"/>
      <point x="182" y="521" type="curve" smooth="yes"/>
      <point x="216" y="672" type="line"/>
    </contour>
  </outline>
</glyph>
<glyph name="uni02BD" format="1">
  <advance width="214"/>
  <unicode hex="02BD"/>
  <outline>
    <contour>
      <point x="244" y="662" type="curve" smooth="yes"/>
      <point x="244" y="642"/>
      <point x="234" y="621"/>
      <point x="219" y="608" type="curve"/>
      <point x="156" y="608" type="line"/>
      <point x="153" y="593"/>
      <point x="148" y="581"/>
      <point x="148" y="565" type="curve" smooth="yes"/>
      <point x="148" y="514"/>
      <point x="178" y="473"/>
      <point x="206" y="438" type="curve"/>
      <point x="167" y="430" type="line"/>
      <point x="148" y="450"/>
      <point x="90" y="503"/>
      <point x="90" y="582" type="curve" smooth="yes"/>
      <point x="90" y="645"/>
      <point x="123" y="709"/>
      <point x="194" y="709" type="curve" smooth="yes"/>
      <point x="225" y="709"/>
      <point x="244" y="689"/>
    </contour>
  </outline>
</glyph>
<glyph name="caron" format="1">
  <advance width="342"/>
  <unicode hex="02C7"/>
  <outline>
    <contour>
      <point x="435" y="720" type="line"/>
      <point x="269" y="551" type="line"/>
      <point x="190" y="551" type="line"/>
      <point x="92" y="720" type="line"/>
      <point x="162" y="720" type="line"/>
      <point x="245" y="628" type="line"/>
      <point x="364" y="720" type="line"/>
    </contour>
  </outline>
</glyph>
<glyph name="uni02CB" format="1">
  <advance width="253"/>
  <unicode hex="02CB"/>
  <outline>
    <contour>
      <point x="319" y="551" type="line"/>
      <point x="257" y="551" type="line"/>
      <point x="112" y="646" type="line" smooth="yes"/>
      <point x="98" y="655"/>
      <point x="89" y="668"/>
      <point x="89" y="688" type="curve" smooth="yes"/>
      <point x="89" y="708"/>
      <point x="99" y="732"/>
      <point x="134" y="732" type="curve" smooth="yes"/>
      <point x="162" y="732"/>
      <point x="173" y="721"/>
      <point x="185" y="707" type="curve" smooth="yes"/>
    </contour>
  </outline>
</glyph>
<glyph name="uni02CD" format="1">
  <advance width="305"/>
  <unicode hex="02CD"/>
  <outline>
    <contour>
      <point x="237" y="-88" type="line"/>
      <point x="225" y="-154" type="line"/>
      <point x="-78" y="-154" type="line"/>
      <point x="-64" y="-88" type="line"/>
    </contour>
  </outline>
</glyph>
<glyph name="uni02D3" format="1">
  <advance width="274"/>
  <unicode hex="02D3"/>
  <outline>
    <contour>
      <point x="242" y="350" type="curve"/>
      <point x="232" y="299" type="line"/>
      <point x="141" y="299"/>
      <point x="79" y="231"/>
      <point x="79" y="141" type="curve" smooth="yes"/>
      <point x="79" y="77"/>
      <point x="123" y="50"/>
      <point x="183" y="50" type="curve"/>
      <point x="173" y="0" type="line"/>
      <point x="88" y="0"/>
      <point x="28" y="43"/>
      <point x="28" y="132" type="curve" smooth="yes"/>
      <point x="28" y="253"/>
      <point x="120" y="350"/>
    </contour>
  </outline>
</glyph>
<glyph name="dotaccent" format="1">
  <advance width="112"/>
  <unicode hex="02D9"/>
  <outline>
    <contour>
      <point x="191" y="641" type="curve" smooth="yes"/>
      <point x="191" y="610"/>
      <point x="166" y="585"/>
      <point x="135" y="585" type="curve" smooth="yes"/>
      <point x="104" y="585"/>
      <point x="79" y="610"/>
      <point x="79" y="641" type="curve" smooth="yes"/>
      <point x="79" y="672"/>
      <point x="103" y="698"/>
      <point x="135" y="698" type="curve" smooth="yes"/>
      <point x="166" y="698"/>
      <point x="191" y="673"/>
    </contour>
  </outline>
</glyph>
<glyph name="ring" format="1">
  <advance width="233"/>
  <unicode hex="02DA"/>
  <outline>
    <contour>
      <point x="179" y="551" type="curve" smooth="yes"/>
      <point x="123" y="551"/>
      <point x="82" y="591"/>
      <point x="82" y="646" type="curve" smooth="yes"/>
      <point x="82" y="719"/>
      <point x="148" y="785"/>
      <point x="221" y="785" type="curve" smooth="yes"/>
      <point x="277" y="785"/>
      <point x="319" y="745"/>
      <point x="319" y="689" type="curve" smooth="yes"/>
      <point x="319" y="615"/>
      <point x="252" y="551"/>
    </contour>
    <contour>
      <point x="267" y="682" type="curve" smooth="yes"/>
      <point x="267" y="713"/>
      <point x="244" y="733"/>
      <point x="214" y="733" type="curve" smooth="yes"/>
      <point x="173" y="733"/>
      <point x="133" y="697"/>
      <point x="133" y="655" type="curve" smooth="yes"/>
      <point x="133" y="624"/>
      <point x="157" y="603"/>
      <point x="187" y="603" type="curve" smooth="yes"/>
      <point x="228" y="603"/>
      <point x="267" y="641"/>
    </contour>
  </outline>
</glyph>
<glyph name="ogonek" format="1">
  <advance width="184"/>
  <unicode hex="02DB"/>
  <outline>
    <contour>
      <point x="66" y="0" type="line"/>
      <point x="29" y="-29"/>
      <point x="-14" y="-72"/>
      <point x="-14" y="-123" type="curve" smooth="yes"/>
      <point x="-14" y="-147"/>
      <point x="4" y="-157"/>
      <point x="26" y="-157" type="curve" smooth="yes"/>
      <point x="39" y="-157"/>
      <point x="51" y="-155"/>
      <point x="63" y="-152" type="curve"/>
      <point x="54" y="-209" type="line"/>
      <point x="37" y="-213"/>
      <point x="18" y="-216"/>
      <point x="0" y="-216" type="curve" smooth="yes"/>
      <point x="-43" y="-216"/>
      <point x="-82" y="-199"/>
      <point x="-82" y="-150" type="curve" smooth="yes"/>
      <point x="-82" y="-91"/>
      <point x="-34" y="-33"/>
      <point x="12" y="0" type="curve"/>
    </contour>
  </outline>
</glyph>
<glyph name="uni02DE" format="1">
  <advance width="176"/>
  <unicode hex="02DE"/>
  <outline>
    <contour>
      <point x="191" y="367" type="line"/>
      <point x="177" y="317"/>
      <point x="141" y="263"/>
      <point x="84" y="263" type="curve" smooth="yes"/>
      <point x="40" y="263"/>
      <point x="19" y="285"/>
      <point x="19" y="319" type="curve" smooth="yes"/>
      <point x="19" y="324"/>
      <point x="20" y="330"/>
      <point x="21" y="336" type="curve" smooth="yes"/>
      <point x="35" y="409" type="line"/>
      <point x="-71" y="346" type="line"/>
      <point x="-80" y="376" type="line"/>
      <point x="56" y="458" type="line"/>
      <point x="77" y="446" type="line"/>
      <point x="60" y="358" type="line" smooth="yes"/>
      <point x="58" y="350"/>
      <point x="57" y="341"/>
      <point x="57" y="333" type="curve" smooth="yes"/>
      <point x="57" y="313"/>
      <point x="63" y="296"/>
      <point x="91" y="296" type="curve" smooth="yes"/>
      <point x="131" y="296"/>
      <point x="149" y="327"/>
      <point x="170" y="379" type="curve"/>
    </contour>
  </outline>
</glyph>
<glyph name="uni02DF" format="1">
  <advance width="231"/>
  <unicode hex="02DF"/>
  <outline>
    <contour>
      <point x="194" y="153" type="line"/>
      <point x="139" y="208" type="line"/>
      <point x="84" y="153" type="line"/>
      <point x="52" y="186" type="line"/>
      <point x="107" y="240" type="line"/>
      <point x="52" y="295" type="line"/>
      <point x="84" y="327" type="line"/>
      <point x="139" y="272" type="line"/>
      <point x="194" y="327" type="line"/>
      <point x="226" y="295" type="line"/>
      <point x="171" y="240" type="line"/>
      <point x="226" y="186" type="line"/>
    </contour>
  </outline>
</glyph>
<glyph name="uni02E0" format="1">
  <advance width="300"/>
  <unicode hex="02E0"/>
  <outline>
    <contour>
      <point x="358" y="643" type="curve" smooth="yes"/>
      <point x="358" y="623"/>
      <point x="349" y="606"/>
      <point x="345" y="599" type="curve" smooth="yes"/>
      <point x="305" y="530"/>
      <point x="262" y="477"/>
      <point x="204" y="412" type="curve"/>
      <point x="205" y="403"/>
      <point x="213" y="329"/>
      <point x="213" y="321" type="curve" smooth="yes"/>
      <point x="213" y="285"/>
      <point x="177" y="245"/>
      <point x="134" y="245" type="curve" smooth="yes"/>
      <point x="97" y="245"/>
      <point x="65" y="263"/>
      <point x="65" y="301" type="curve" smooth="yes"/>
      <point x="65" y="337"/>
      <point x="115" y="386"/>
      <point x="146" y="409" type="curve"/>
      <point x="140" y="467"/>
      <point x="132" y="576"/>
      <point x="117" y="627" type="curve" smooth="yes"/>
      <point x="115" y="636"/>
      <point x="110" y="639"/>
      <point x="103" y="640" type="curve" smooth="yes"/>
      <point x="57" y="642" type="line"/>
      <point x="57" y="660" type="line"/>
      <point x="126" y="679" type="line"/>
      <point x="161" y="679"/>
      <point x="176" y="665"/>
      <point x="179" y="637" type="curve" smooth="yes"/>
      <point x="200" y="452" type="line"/>
      <point x="244" y="505"/>
      <point x="273" y="546"/>
      <point x="293" y="593" type="curve"/>
      <point x="281" y="666" type="line"/>
      <point x="290" y="674"/>
      <point x="303" y="679"/>
      <point x="319" y="679" type="curve" smooth="yes"/>
      <point x="346" y="679"/>
      <point x="358" y="665"/>
    </contour>
    <contour>
      <point x="154" y="326" type="curve" smooth="yes"/>
      <point x="154" y="332"/>
      <point x="150" y="358"/>
      <point x="148" y="369" type="curve"/>
      <point x="138" y="360"/>
      <point x="103" y="319"/>
      <point x="103" y="308" type="curve" smooth="yes"/>
      <point x="103" y="299"/>
      <point x="109" y="287"/>
      <point x="122" y="287" type="curve" smooth="yes"/>
      <point x="136" y="287"/>
      <point x="154" y="301"/>
    </contour>
  </outline>
</glyph>
<glyph name="uni02EC" format="1">
  <advance width="340"/>
  <unicode hex="02EC"/>
  <outline>
    <contour>
      <point x="277" y="-61" type="line"/>
      <point x="112" y="-230" type="line"/>
      <point x="33" y="-230" type="line"/>
      <point x="-65" y="-61" type="line"/>
      <point x="5" y="-61" type="line"/>
      <point x="87" y="-153" type="line"/>
      <point x="207" y="-61" type="line"/>
    </contour>
  </outline>
</glyph>
<glyph name="uni02ED" format="1">
  <advance width="405"/>
  <unicode hex="02ED"/>
  <outline>
    <contour>
      <point x="399" y="469" type="line"/>
      <point x="386" y="403" type="line"/>
      <point x="49" y="403" type="line"/>
      <point x="63" y="469" type="line"/>
    </contour>
    <contour>
      <point x="425" y="588" type="line"/>
      <point x="412" y="522" type="line"/>
      <point x="75" y="522" type="line"/>
      <point x="89" y="588" type="line"/>
    </contour>
  </outline>
</glyph>
<glyph name="uni02F0" format="1">
  <advance width="237"/>
  <unicode hex="02F0"/>
  <outline>
    <contour>
      <point x="179" y="-244" type="line"/>
      <point x="156" y="-244" type="line"/>
      <point x="84" y="-83" type="line"/>
      <point x="13" y="-244" type="line"/>
      <point x="-9" y="-244" type="line"/>
      <point x="74" y="-64" type="line"/>
      <point x="96" y="-64" type="line"/>
    </contour>
  </outline>
</glyph>
<glyph name="gravecomb" format="1">
  <advance width="0"/>
  <unicode hex="0300"/>
  <outline>
    <contour>
      <point x="-85" y="551" type="line"/>
      <point x="-147" y="551" type="line"/>
      <point x="-292" y="646" type="line" smooth="yes"/>
      <point x="-306" y="655"/>
      <point x="-315" y="668"/>
      <point x="-315" y="688" type="curve" smooth="yes"/>
      <point x="-315" y="708"/>
      <point x="-306" y="732"/>
      <point x="-271" y="732" type="curve" smooth="yes"/>
      <point x="-243" y="732"/>
      <point x="-231" y="721"/>
      <point x="-219" y="707" type="curve" smooth="yes"/>
    </contour>
  </outline>
</glyph>
<glyph name="uni0306" format="1">
  <advance width="0"/>
  <unicode hex="0306"/>
  <outline>
    <contour>
      <point x="0" y="695" type="line"/>
      <point x="-16" y="627"/>
      <point x="-77" y="551"/>
      <point x="-182" y="551" type="curve" smooth="yes"/>
      <point x="-277" y="551"/>
      <point x="-312" y="611"/>
      <point x="-312" y="668" type="curve" smooth="yes"/>
      <point x="-312" y="676"/>
      <point x="-311" y="685"/>
      <point x="-310" y="695" type="curve"/>
      <point x="-258" y="695" type="line"/>
      <point x="-255" y="636"/>
      <point x="-211" y="617"/>
      <point x="-172" y="617" type="curve" smooth="yes"/>
      <point x="-131" y="617"/>
      <point x="-77" y="637"/>
      <point x="-51" y="695" type="curve"/>
    </contour>
  </outline>
</glyph>
<glyph name="uni030D" format="1">
  <advance width="0"/>
  <unicode hex="030D"/>
  <outline>
    <contour>
      <point x="-127" y="722" type="line"/>
      <point x="-161" y="551" type="line"/>
      <point x="-207" y="551" type="line"/>
      <point x="-173" y="722" type="line"/>
    </contour>
  </outline>
</glyph>
<glyph name="uni0314" format="1">
  <advance width="0"/>
  <unicode hex="0314"/>
  <outline>
    <contour>
      <point x="-75" y="760" type="curve" smooth="yes"/>
      <point x="-75" y="740"/>
      <point x="-85" y="719"/>
      <point x="-100" y="706" type="curve"/>
      <point x="-164" y="706" type="line"/>
      <point x="-167" y="691"/>
      <point x="-171" y="679"/>
      <point x="-171" y="663" type="curve" smooth="yes"/>
      <point x="-171" y="612"/>
      <point x="-141" y="571"/>
      <point x="-113" y="536" type="curve"/>
      <point x="-152" y="528" type="line"/>
      <point x="-171" y="548"/>
      <point x="-229" y="601"/>
      <point x="-229" y="680" type="curve" smooth="yes"/>
      <point x="-229" y="743"/>
      <point x="-196" y="807"/>
      <point x="-125" y="807" type="curve" smooth="yes"/>
      <point x="-94" y="807"/>
      <point x="-75" y="787"/>
    </contour>
  </outline>
</glyph>
<glyph name="uni0315" format="1">
  <advance width="122"/>
  <unicode hex="0315"/>
  <outline>
    <contour>
      <point x="208" y="793" type="curve" smooth="yes"/>
      <point x="208" y="709"/>
      <point x="137" y="662"/>
      <point x="62" y="648" type="curve"/>
      <point x="68" y="682" type="line"/>
      <point x="122" y="699"/>
      <point x="142" y="713"/>
      <point x="153" y="770" type="curve"/>
      <point x="100" y="770" type="line"/>
      <point x="94" y="777"/>
      <point x="92" y="788"/>
      <point x="92" y="797" type="curve" smooth="yes"/>
      <point x="92" y="830"/>
      <point x="121" y="854"/>
      <point x="153" y="854" type="curve" smooth="yes"/>
      <point x="190" y="854"/>
      <point x="208" y="829"/>
    </contour>
  </outline>
</glyph>
<glyph name="uni0319" format="1">
  <advance width="0"/>
  <unicode hex="0319"/>
  <outline>
    <contour>
      <point x="-266" y="-131" type="line"/>
      <point x="-273" y="-171" type="line"/>
      <point x="-358" y="-171" type="line"/>
      <point x="-373" y="-241" type="line"/>
      <point x="-413" y="-241" type="line"/>
      <point x="-376" y="-61" type="line"/>
      <point x="-336" y="-61" type="line"/>
      <point x="-351" y="-131" type="line"/>
    </contour>
  </outline>
</glyph>
<glyph name="uni031A" format="1">
  <advance width="270"/>
  <unicode hex="031A"/>
  <outline>
    <contour>
      <point x="309" y="688" type="line"/>
      <point x="268" y="479" type="line"/>
      <point x="228" y="479" type="line"/>
      <point x="261" y="648" type="line"/>
      <point x="102" y="648" type="line"/>
      <point x="109" y="688" type="line"/>
    </contour>
  </outline>
</glyph>
<glyph name="uni0325" format="1">
  <advance width="0"/>
  <unicode hex="0325"/>
  <outline>
    <contour>
      <point x="-359" y="-295" type="curve" smooth="yes"/>
      <point x="-415" y="-295"/>
      <point x="-457" y="-255"/>
      <point x="-457" y="-199" type="curve" smooth="yes"/>
      <point x="-457" y="-126"/>
      <point x="-389" y="-61"/>
      <point x="-316" y="-61" type="curve" smooth="yes"/>
      <point x="-261" y="-61"/>
      <point x="-219" y="-101"/>
      <point x="-219" y="-157" type="curve" smooth="yes"/>
      <point x="-219" y="-231"/>
      <point x="-286" y="-295"/>
    </contour>
    <contour>
      <point x="-270" y="-165" type="curve" smooth="yes"/>
      <point x="-270" y="-134"/>
      <point x="-294" y="-113"/>
      <point x="-324" y="-113" type="curve" smooth="yes"/>
      <point x="-365" y="-113"/>
      <point x="-405" y="-151"/>
      <point x="-405" y="-192" type="curve" smooth="yes"/>
      <point x="-405" y="-223"/>
      <point x="-382" y="-244"/>
      <point x="-352" y="-244" type="curve" smooth="yes"/>
      <point x="-311" y="-244"/>
      <point x="-270" y="-206"/>
    </contour>
  </outline>
</glyph>
<glyph name="uni0328" format="1">
  <advance width="0"/>
  <unicode hex="0328"/>
  <outline>
    <contour>
      <point x="-213" y="0" type="line"/>
      <point x="-250" y="-29"/>
      <point x="-293" y="-72"/>
      <point x="-293" y="-123" type="curve" smooth="yes"/>
      <point x="-293" y="-147"/>
      <point x="-275" y="-157"/>
      <point x="-253" y="-157" type="curve" smooth="yes"/>
      <point x="-240" y="-157"/>
      <point x="-228" y="-155"/>
      <point x="-216" y="-152" type="curve"/>
      <point x="-225" y="-209" type="line"/>
      <point x="-242" y="-213"/>
      <point x="-261" y="-216"/>
      <point x="-279" y="-216" type="curve" smooth="yes"/>
      <point x="-322" y="-216"/>
      <point x="-361" y="-199"/>
      <point x="-361" y="-150" type="curve" smooth="yes"/>
      <point x="-361" y="-91"/>
      <point x="-313" y="-33"/>
      <point x="-267" y="0" type="curve"/>
    </contour>
  </outline>
</glyph>
<glyph name="uni032C" format="1">
  <advance width="0"/>
  <unicode hex="032C"/>
  <outline>
    <contour>
      <point x="-143" y="-61" type="line"/>
      <point x="-308" y="-230" type="line"/>
      <point x="-387" y="-230" type="line"/>
      <point x="-485" y="-61" type="line"/>
      <point x="-415" y="-61" type="line"/>
      <point x="-333" y="-153" type="line"/>
      <point x="-213" y="-61" type="line"/>
    </contour>
  </outline>
</glyph>
<glyph name="uni032E" format="1">
  <advance width="0"/>
  <unicode hex="032E"/>
  <outline>
    <contour>
      <point x="-159" y="-61" type="line"/>
      <point x="-176" y="-129"/>
      <point x="-237" y="-205"/>
      <point x="-342" y="-205" type="curve" smooth="yes"/>
      <point x="-437" y="-205"/>
      <point x="-471" y="-145"/>
      <point x="-471" y="-88" type="curve" smooth="yes"/>
      <point x="-471" y="-80"/>
      <point x="-471" y="-71"/>
      <point x="-469" y="-61" type="curve"/>
      <point x="-418" y="-61" type="line"/>
      <point x="-415" y="-120"/>
      <point x="-370" y="-139"/>
      <point x="-331" y="-139" type="curve" smooth="yes"/>
      <point x="-291" y="-139"/>
      <point x="-237" y="-119"/>
      <point x="-211" y="-61" type="curve"/>
    </contour>
  </outline>
</glyph>
<glyph name="uni032F" format="1">
  <advance width="0"/>
  <unicode hex="032F"/>
  <outline>
    <contour>
      <point x="-193" y="-177" type="curve" smooth="yes"/>
      <point x="-193" y="-186"/>
      <point x="-193" y="-196"/>
      <point x="-195" y="-205" type="curve"/>
      <point x="-238" y="-205" type="line"/>
      <point x="-239" y="-151"/>
      <point x="-280" y="-129"/>
      <point x="-327" y="-129" type="curve" smooth="yes"/>
      <point x="-374" y="-129"/>
      <point x="-424" y="-151"/>
      <point x="-447" y="-205" type="curve"/>
      <point x="-491" y="-205" type="line"/>
      <point x="-477" y="-137"/>
      <point x="-413" y="-61"/>
      <point x="-315" y="-61" type="curve" smooth="yes"/>
      <point x="-230" y="-61"/>
      <point x="-193" y="-118"/>
    </contour>
  </outline>
</glyph>
<glyph name="uni033D" format="1">
  <advance width="0"/>
  <unicode hex="033D"/>
  <outline>
    <contour>
      <point x="-12" y="734" type="line"/>
      <point x="-132" y="642" type="line"/>
      <point x="-48" y="551" type="line"/>
      <point x="-116" y="551" type="line"/>
      <point x="-172" y="613" type="line"/>
      <point x="-253" y="551" type="line"/>
      <point x="-320" y="551" type="line"/>
      <point x="-200" y="642" type="line"/>
      <point x="-284" y="734" type="line"/>
      <point x="-216" y="734" type="line"/>
      <point x="-160" y="672" type="line"/>
      <point x="-80" y="734" type="line"/>
    </contour>
  </outline>
</glyph>
<glyph name="uni0348" format="1">
  <advance width="0"/>
  <unicode hex="0348"/>
  <outline>
    <contour>
      <point x="-230" y="-61" type="line"/>
      <point x="-264" y="-232" type="line"/>
      <point x="-310" y="-232" type="line"/>
      <point x="-276" y="-61" type="line"/>
    </contour>
    <contour>
      <point x="-352" y="-61" type="line"/>
      <point x="-386" y="-232" type="line"/>
      <point x="-432" y="-232" type="line"/>
      <point x="-398" y="-61" type="line"/>
    </contour>
  </outline>
</glyph>
<glyph name="uni0353" format="1">
  <advance width="0"/>
  <unicode hex="0353"/>
  <outline>
    <contour>
      <point x="-282" y="-262" type="line"/>
      <point x="-337" y="-208" type="line"/>
      <point x="-392" y="-262" type="line"/>
      <point x="-424" y="-230" type="line"/>
      <point x="-369" y="-175" type="line"/>
      <point x="-424" y="-121" type="line"/>
      <point x="-392" y="-88" type="line"/>
      <point x="-337" y="-143" type="line"/>
      <point x="-282" y="-88" type="line"/>
      <point x="-250" y="-121" type="line"/>
      <point x="-305" y="-175" type="line"/>
      <point x="-250" y="-230" type="line"/>
    </contour>
  </outline>
</glyph>
<glyph name="uni0356" format="1">
  <advance width="0"/>
  <unicode hex="0356"/>
  <outline>
    <contour>
      <point x="-284" y="-217" type="line"/>
      <point x="-716" y="-354" type="line"/>
      <point x="-716" y="-316" type="line"/>
      <point x="-330" y="-198" type="line"/>
      <point x="-716" y="-79" type="line"/>
      <point x="-716" y="-41" type="line"/>
      <point x="-284" y="-179" type="line"/>
    </contour>
    <contour>
      <point x="80" y="-380" type="line"/>
      <point x="35" y="-380" type="line"/>
      <point x="-108" y="-58" type="line"/>
      <point x="-251" y="-380" type="line"/>
      <point x="-296" y="-380" type="line"/>
      <point x="-130" y="-20" type="line"/>
      <point x="-86" y="-20" type="line"/>
    </contour>
  </outline>
</glyph>
<glyph name="uni0360" format="1">
  <advance width="0"/>
  <unicode hex="0360"/>
  <outline>
    <contour>
      <point x="634" y="883" type="line"/>
      <point x="606" y="831"/>
      <point x="525" y="776"/>
      <point x="397" y="776" type="curve" smooth="yes"/>
      <point x="157" y="776"/>
      <point x="83" y="849"/>
      <point x="-155" y="849" type="curve" smooth="yes"/>
      <point x="-273" y="849"/>
      <point x="-329" y="796"/>
      <point x="-353" y="756" type="curve"/>
      <point x="-380" y="792" type="line"/>
      <point x="-349" y="848"/>
      <point x="-285" y="907"/>
      <point x="-150" y="907" type="curve" smooth="yes"/>
      <point x="106" y="907"/>
      <point x="165" y="833"/>
      <point x="404" y="833" type="curve" smooth="yes"/>
      <point x="513" y="833"/>
      <point x="587" y="881"/>
      <point x="606" y="919" type="curve"/>
    </contour>
  </outline>
</glyph>
<glyph name="uni0364" format="1">
  <advance width="0"/>
  <unicode hex="0364"/>
  <outline>
    <contour>
      <point x="-32" y="801" type="curve" smooth="yes"/>
      <point x="-32" y="736"/>
      <point x="-138" y="702"/>
      <point x="-216" y="698" type="curve"/>
      <point x="-217" y="690"/>
      <point x="-218" y="677"/>
      <point x="-218" y="670" type="curve" smooth="yes"/>
      <point x="-218" y="626"/>
      <point x="-194" y="595"/>
      <point x="-157" y="595" type="curve" smooth="yes"/>
      <point x="-128" y="595"/>
      <point x="-93" y="614"/>
      <point x="-46" y="653" type="curve"/>
      <point x="-46" y="615" type="line"/>
      <point x="-70" y="593"/>
      <point x="-119" y="559"/>
      <point x="-178" y="559" type="curve" smooth="yes"/>
      <point x="-218" y="559"/>
      <point x="-282" y="576"/>
      <point x="-282" y="668" type="curve" smooth="yes"/>
      <point x="-282" y="762"/>
      <point x="-203" y="862"/>
      <point x="-110" y="862" type="curve" smooth="yes"/>
      <point x="-50" y="862"/>
      <point x="-32" y="819"/>
    </contour>
    <contour>
      <point x="-89" y="802" type="curve" smooth="yes"/>
      <point x="-89" y="818"/>
      <point x="-103" y="834"/>
      <point x="-124" y="834" type="curve" smooth="yes"/>
      <point x="-167" y="834"/>
      <point x="-202" y="766"/>
      <point x="-213" y="721" type="curve"/>
      <point x="-158" y="725"/>
      <point x="-89" y="760"/>
    </contour>
  </outline>
</glyph>
<glyph name="uni0367" format="1">
  <advance width="0"/>
  <unicode hex="0367"/>
  <outline>
    <contour>
      <point x="10" y="580" type="line"/>
      <point x="-6" y="572"/>
      <point x="-50" y="559"/>
      <point x="-78" y="559" type="curve" smooth="yes"/>
      <point x="-127" y="559"/>
      <point x="-121" y="594"/>
      <point x="-121" y="603" type="curve"/>
      <point x="-155" y="574"/>
      <point x="-192" y="559"/>
      <point x="-235" y="559" type="curve" smooth="yes"/>
      <point x="-296" y="559"/>
      <point x="-309" y="602"/>
      <point x="-301" y="634" type="curve" smooth="yes"/>
      <point x="-259" y="821" type="line"/>
      <point x="-314" y="826" type="line"/>
      <point x="-314" y="844" type="line"/>
      <point x="-216" y="862" type="line"/>
      <point x="-189" y="862" type="line"/>
      <point x="-241" y="634" type="line" smooth="yes"/>
      <point x="-246" y="613"/>
      <point x="-224" y="596"/>
      <point x="-207" y="596" type="curve" smooth="yes"/>
      <point x="-176" y="596"/>
      <point x="-142" y="613"/>
      <point x="-118" y="634" type="curve"/>
      <point x="-68" y="855" type="line"/>
      <point x="-8" y="855" type="line"/>
      <point x="-60" y="624" type="line" smooth="yes"/>
      <point x="-66" y="599"/>
      <point x="-45" y="590"/>
      <point x="-31" y="590" type="curve" smooth="yes"/>
      <point x="-23" y="590"/>
      <point x="-9" y="592"/>
      <point x="10" y="601" type="curve"/>
    </contour>
  </outline>
</glyph>
<glyph name="Alpha" format="1">
  <advance width="672"/>
  <unicode hex="0391"/>
  <outline>
    <contour>
      <point x="626" y="0" type="line"/>
      <point x="391" y="0" type="line"/>
      <point x="391" y="42" type="line"/>
      <point x="437" y="47" type="line" smooth="yes"/>
      <point x="452" y="49"/>
      <point x="458" y="55"/>
      <point x="456" y="66" type="curve" smooth="yes"/>
      <point x="426" y="257" type="line"/>
      <point x="199" y="257" type="line"/>
      <point x="97" y="66" type="line" smooth="yes"/>
      <point x="90" y="53"/>
      <point x="97" y="49"/>
      <point x="116" y="47" type="curve" smooth="yes"/>
      <point x="162" y="42" type="line"/>
      <point x="162" y="0" type="line"/>
      <point x="-53" y="0" type="line"/>
      <point x="-53" y="42" type="line"/>
      <point x="3" y="48" type="line"/>
      <point x="372" y="687" type="line"/>
      <point x="452" y="687" type="line"/>
      <point x="560" y="66" type="line" smooth="yes"/>
      <point x="562" y="53"/>
      <point x="566" y="48"/>
      <point x="580" y="47" type="curve" smooth="yes"/>
      <point x="626" y="42" type="line"/>
    </contour>
    <contour>
      <point x="417" y="304" type="line"/>
      <point x="374" y="564" type="line"/>
      <point x="226" y="304" type="line"/>
    </contour>
  </outline>
</glyph>
<glyph name="Gamma" format="1">
  <advance width="551"/>
  <unicode hex="0393"/>
  <outline>
    <contour>
      <point x="528" y="516" type="line"/>
      <point x="514" y="516" type="line"/>
      <point x="493" y="593"/>
      <point x="470" y="654"/>
      <point x="388" y="654" type="curve" smooth="yes"/>
      <point x="262" y="654" type="line" smooth="yes"/>
      <point x="237" y="654"/>
      <point x="217" y="639"/>
      <point x="217" y="606" type="curve" smooth="yes"/>
      <point x="217" y="85" type="line" smooth="yes"/>
      <point x="217" y="40"/>
      <point x="275" y="15"/>
      <point x="319" y="15" type="curve"/>
      <point x="319" y="0" type="line"/>
      <point x="18" y="0" type="line"/>
      <point x="18" y="15" type="line"/>
      <point x="62" y="15"/>
      <point x="120" y="40"/>
      <point x="120" y="85" type="curve" smooth="yes"/>
      <point x="120" y="595" type="line" smooth="yes"/>
      <point x="120" y="652"/>
      <point x="80" y="673"/>
      <point x="18" y="673" type="curve"/>
      <point x="18" y="688" type="line"/>
      <point x="508" y="688" type="line"/>
    </contour>
  </outline>
</glyph>
<glyph name="lambda" format="1">
  <advance width="566"/>
  <unicode hex="03BB"/>
  <outline>
    <contour>
      <point x="574" y="80" type="curve" smooth="yes"/>
      <point x="574" y="14"/>
      <point x="498" y="-12"/>
      <point x="413" y="-12" type="curve" smooth="yes"/>
      <point x="345" y="-12"/>
      <point x="325" y="33"/>
      <point x="310" y="110" type="curve" smooth="yes"/>
      <point x="263" y="337" type="line"/>
      <point x="63" y="0" type="line"/>
      <point x="-34" y="0" type="line"/>
      <point x="238" y="456" type="line"/>
      <point x="210" y="582" type="line" smooth="yes"/>
      <point x="190" y="675"/>
      <point x="184" y="690"/>
      <point x="136" y="690" type="curve"/>
      <point x="69" y="585" type="line"/>
      <point x="29" y="585"/>
      <point x="6" y="618"/>
      <point x="6" y="645" type="curve" smooth="yes"/>
      <point x="6" y="711"/>
      <point x="82" y="737"/>
      <point x="167" y="737" type="curve" smooth="yes"/>
      <point x="235" y="737"/>
      <point x="254" y="692"/>
      <point x="271" y="615" type="curve" smooth="yes"/>
      <point x="369" y="143" type="line" smooth="yes"/>
      <point x="389" y="49"/>
      <point x="396" y="35"/>
      <point x="444" y="35" type="curve"/>
      <point x="511" y="140" type="line"/>
      <point x="550" y="140"/>
      <point x="574" y="107"/>
    </contour>
  </outline>
</glyph>
<glyph name="uni03BC" format="1">
  <advance width="493"/>
  <unicode hex="03BC"/>
  <outline>
    <contour>
      <point x="38" y="194" type="curve"/>
      <point x="38" y="193" type="line"/>
      <point x="41" y="208" type="line"/>
      <point x="96" y="482" type="line"/>
      <point x="182" y="482" type="line"/>
      <point x="119" y="169" type="line" smooth="yes"/>
      <point x="105" y="98"/>
      <point x="121" y="56"/>
      <point x="186" y="56" type="curve" smooth="yes"/>
      <point x="221" y="56"/>
      <point x="266" y="77"/>
      <point x="292" y="91" type="curve"/>
      <point x="372" y="482" type="line"/>
      <point x="465" y="482" type="line"/>
      <point x="385" y="97" type="line" smooth="yes"/>
      <point x="376" y="56"/>
      <point x="407" y="41"/>
      <point x="429" y="41" type="curve" smooth="yes"/>
      <point x="442" y="41"/>
      <point x="464" y="43"/>
      <point x="492" y="59" type="curve"/>
      <point x="492" y="24" type="line"/>
      <point x="467" y="10"/>
      <point x="399" y="-12"/>
      <point x="356" y="-12" type="curve" smooth="yes"/>
      <point x="297" y="-12"/>
      <point x="289" y="29"/>
      <point x="288" y="54" type="curve"/>
      <point x="250" y="28"/>
      <point x="181" y="-12"/>
      <point x="125" y="-12" type="curve" smooth="yes"/>
      <point x="106" y="-12"/>
      <point x="80" y="5"/>
      <point x="60" y="39" type="curve"/>
      <point x="53" y="-41"/>
      <point x="60" y="-115"/>
      <point x="62" y="-167" type="curve"/>
      <point x="54" y="-206" type="line"/>
      <point x="-41" y="-206" type="line"/>
      <point x="-28" y="-143"/>
      <point x="-17" y="-87"/>
    </contour>
  </outline>
</glyph>
<glyph name="phi" format="1">
  <advance width="670"/>
  <unicode hex="03C6"/>
  <outline>
    <contour>
      <point x="126" y="244" type="curve" smooth="yes"/>
      <point x="107" y="146"/>
      <point x="115" y="48"/>
      <point x="246" y="31" type="curve"/>
      <point x="290" y="257" type="line" smooth="yes"/>
      <point x="320" y="412"/>
      <point x="373" y="494"/>
      <point x="489" y="494" type="curve" smooth="yes"/>
      <point x="646" y="494"/>
      <point x="665" y="383"/>
      <point x="638" y="244" type="curve" smooth="yes"/>
      <point x="612" y="112"/>
      <point x="517" y="3"/>
      <point x="322" y="-11" type="curve"/>
      <point x="282" y="-220" type="line"/>
      <point x="197" y="-220" type="line"/>
      <point x="237" y="-11" type="line"/>
      <point x="49" y="3"/>
      <point x="3" y="112"/>
      <point x="29" y="244" type="curve" smooth="yes"/>
      <point x="53" y="369"/>
      <point x="149" y="475"/>
      <point x="291" y="494" type="curve"/>
      <point x="291" y="466" type="line"/>
      <point x="183" y="430"/>
      <point x="143" y="330"/>
    </contour>
    <contour>
      <point x="377" y="272" type="curve" smooth="yes"/>
      <point x="331" y="31" type="line"/>
      <point x="465" y="45"/>
      <point x="519" y="128"/>
      <point x="541" y="244" type="curve" smooth="yes"/>
      <point x="566" y="374"/>
      <point x="554" y="457"/>
      <point x="486" y="457" type="curve" smooth="yes"/>
      <point x="419" y="457"/>
      <point x="394" y="357"/>
    </contour>
  </outline>
</glyph>
<glyph name="uni0403" format="1">
  <advance width="527"/>
  <unicode hex="0403"/>
  <outline>
    <contour>
      <point x="586" y="671" type="line"/>
      <point x="550" y="487" type="line"/>
      <point x="498" y="487" type="line"/>
      <point x="504" y="604" type="line" smooth="yes"/>
      <point x="505" y="613"/>
      <point x="493" y="620"/>
      <point x="485" y="620" type="curve" smooth="yes"/>
      <point x="278" y="620" type="line"/>
      <point x="169" y="68" type="line" smooth="yes"/>
      <point x="168" y="60"/>
      <point x="172" y="48"/>
      <point x="186" y="47" type="curve" smooth="yes"/>
      <point x="240" y="43" type="line"/>
      <point x="240" y="0" type="line"/>
      <point x="-25" y="0" type="line"/>
      <point x="-25" y="43" type="line"/>
      <point x="43" y="47" type="line" smooth="yes"/>
      <point x="57" y="48"/>
      <point x="67" y="60"/>
      <point x="68" y="68" type="curve" smooth="yes"/>
      <point x="174" y="603" type="line" smooth="yes"/>
      <point x="176" y="611"/>
      <point x="171" y="622"/>
      <point x="157" y="624" type="curve" smooth="yes"/>
      <point x="99" y="628" type="line"/>
      <point x="99" y="671" type="line"/>
    </contour>
    <contour>
      <point x="508" y="884" type="curve" smooth="yes"/>
      <point x="508" y="865"/>
      <point x="499" y="853"/>
      <point x="484" y="843" type="curve" smooth="yes"/>
      <point x="334" y="746" type="line"/>
      <point x="264" y="746" type="line"/>
      <point x="400" y="902" type="line" smooth="yes"/>
      <point x="413" y="917"/>
      <point x="428" y="927"/>
      <point x="458" y="927" type="curve" smooth="yes"/>
      <point x="493" y="927"/>
      <point x="508" y="904"/>
    </contour>
  </outline>
</glyph>
<glyph name="uni0411" format="1">
  <advance width="594"/>
  <unicode hex="0411"/>
  <outline>
    <contour>
      <point x="562" y="671" type="line"/>
      <point x="531" y="515" type="line"/>
      <point x="476" y="515" type="line"/>
      <point x="480" y="605" type="line" smooth="yes"/>
      <point x="481" y="614"/>
      <point x="477" y="624"/>
      <point x="467" y="624" type="curve" smooth="yes"/>
      <point x="299" y="624" type="line" smooth="yes"/>
      <point x="285" y="624"/>
      <point x="276" y="611"/>
      <point x="274" y="603" type="curve" smooth="yes"/>
      <point x="237" y="414" type="line"/>
      <point x="237" y="414"/>
      <point x="282" y="419"/>
      <point x="311" y="419" type="curve" smooth="yes"/>
      <point x="442" y="419"/>
      <point x="534" y="360"/>
      <point x="534" y="249" type="curve" smooth="yes"/>
      <point x="534" y="52"/>
      <point x="382" y="0"/>
      <point x="211" y="0" type="curve" smooth="yes"/>
      <point x="-28" y="0" type="line"/>
      <point x="-28" y="43" type="line"/>
      <point x="42" y="47" type="line" smooth="yes"/>
      <point x="56" y="48"/>
      <point x="66" y="60"/>
      <point x="67" y="68" type="curve" smooth="yes"/>
      <point x="173" y="603" type="line" smooth="yes"/>
      <point x="175" y="614"/>
      <point x="168" y="623"/>
      <point x="156" y="624" type="curve" smooth="yes"/>
      <point x="104" y="628" type="line"/>
      <point x="104" y="671" type="line"/>
    </contour>
    <contour>
      <point x="432" y="254" type="curve" smooth="yes"/>
      <point x="432" y="335"/>
      <point x="383" y="371"/>
      <point x="292" y="371" type="curve" smooth="yes"/>
      <point x="271" y="371"/>
      <point x="227" y="366"/>
      <point x="227" y="366" type="curve"/>
      <point x="164" y="48" type="line"/>
      <point x="164" y="48"/>
      <point x="189" y="46"/>
      <point x="214" y="46" type="curve" smooth="yes"/>
      <point x="357" y="46"/>
      <point x="432" y="115"/>
    </contour>
  </outline>
</glyph>
<glyph name="uni0417" format="1">
  <advance width="545"/>
  <unicode hex="0417"/>
  <outline>
    <contour>
      <point x="535" y="548" type="curve" smooth="yes"/>
      <point x="535" y="442"/>
      <point x="425" y="378"/>
      <point x="335" y="353" type="curve"/>
      <point x="414" y="348"/>
      <point x="495" y="306"/>
      <point x="495" y="218" type="curve" smooth="yes"/>
      <point x="495" y="46"/>
      <point x="326" y="-16"/>
      <point x="182" y="-16" type="curve" smooth="yes"/>
      <point x="113" y="-16"/>
      <point x="56" y="-2"/>
      <point x="-9" y="19" type="curve"/>
      <point x="21" y="176" type="line"/>
      <point x="82" y="176" type="line"/>
      <point x="78" y="85" type="line" smooth="yes"/>
      <point x="77" y="49"/>
      <point x="169" y="31"/>
      <point x="193" y="31" type="curve" smooth="yes"/>
      <point x="296" y="31"/>
      <point x="397" y="111"/>
      <point x="397" y="218" type="curve" smooth="yes"/>
      <point x="397" y="293"/>
      <point x="329" y="319"/>
      <point x="265" y="319" type="curve" smooth="yes"/>
      <point x="247" y="319"/>
      <point x="223" y="319"/>
      <point x="206" y="315" type="curve"/>
      <point x="217" y="374" type="line"/>
      <point x="247" y="373" type="line" smooth="yes"/>
      <point x="340" y="370"/>
      <point x="432" y="432"/>
      <point x="432" y="534" type="curve" smooth="yes"/>
      <point x="432" y="601"/>
      <point x="375" y="636"/>
      <point x="313" y="636" type="curve" smooth="yes"/>
      <point x="280" y="636"/>
      <point x="199" y="612"/>
      <point x="186" y="576" type="curve" smooth="yes"/>
      <point x="153" y="485" type="line"/>
      <point x="93" y="485" type="line"/>
      <point x="123" y="637" type="line"/>
      <point x="198" y="671"/>
      <point x="264" y="687"/>
      <point x="346" y="687" type="curve" smooth="yes"/>
      <point x="431" y="687"/>
      <point x="535" y="648"/>
    </contour>
  </outline>
</glyph>
<glyph name="uni041E" format="1">
  <advance width="709"/>
  <unicode hex="041E"/>
  <outline>
    <contour>
      <point x="691" y="417" type="curve" smooth="yes"/>
      <point x="691" y="206"/>
      <point x="555" y="-16"/>
      <point x="320" y="-16" type="curve" smooth="yes"/>
      <point x="160" y="-16"/>
      <point x="48" y="94"/>
      <point x="48" y="262" type="curve" smooth="yes"/>
      <point x="48" y="477"/>
      <point x="200" y="687"/>
      <point x="420" y="687" type="curve" smooth="yes"/>
      <point x="586" y="687"/>
      <point x="691" y="566"/>
    </contour>
    <contour>
      <point x="577" y="417" type="curve" smooth="yes"/>
      <point x="577" y="550"/>
      <point x="507" y="637"/>
      <point x="411" y="637" type="curve" smooth="yes"/>
      <point x="265" y="637"/>
      <point x="161" y="431"/>
      <point x="161" y="254" type="curve" smooth="yes"/>
      <point x="161" y="119"/>
      <point x="234" y="36"/>
      <point x="327" y="36" type="curve" smooth="yes"/>
      <point x="473" y="36"/>
      <point x="577" y="246"/>
    </contour>
  </outline>
</glyph>
<glyph name="uni0421" format="1">
  <advance width="629"/>
  <unicode hex="0421"/>
  <outline>
    <contour>
      <point x="644" y="647" type="curve"/>
      <point x="617" y="491" type="line"/>
      <point x="558" y="491" type="line"/>
      <point x="558" y="584" type="line" smooth="yes"/>
      <point x="558" y="594"/>
      <point x="549" y="608"/>
      <point x="540" y="611" type="curve" smooth="yes"/>
      <point x="535" y="614"/>
      <point x="503" y="636"/>
      <point x="455" y="636" type="curve" smooth="yes"/>
      <point x="302" y="636"/>
      <point x="154" y="487"/>
      <point x="154" y="256" type="curve" smooth="yes"/>
      <point x="154" y="105"/>
      <point x="247" y="35"/>
      <point x="359" y="35" type="curve" smooth="yes"/>
      <point x="402" y="35"/>
      <point x="429" y="50"/>
      <point x="434" y="52" type="curve" smooth="yes"/>
      <point x="442" y="53"/>
      <point x="453" y="63"/>
      <point x="457" y="72" type="curve" smooth="yes"/>
      <point x="500" y="186" type="line"/>
      <point x="559" y="186" type="line"/>
      <point x="532" y="24" type="line"/>
      <point x="517" y="19"/>
      <point x="423" y="-16"/>
      <point x="326" y="-16" type="curve" smooth="yes"/>
      <point x="127" y="-16"/>
      <point x="48" y="125"/>
      <point x="48" y="267" type="curve" smooth="yes"/>
      <point x="48" y="480"/>
      <point x="212" y="687"/>
      <point x="450" y="687" type="curve" smooth="yes"/>
      <point x="515" y="687"/>
      <point x="567" y="672"/>
    </contour>
  </outline>
</glyph>
<glyph name="uni0424" format="1">
  <advance width="816"/>
  <unicode hex="0424"/>
  <outline>
    <contour>
      <point x="799" y="390" type="curve" smooth="yes"/>
      <point x="799" y="244"/>
      <point x="667" y="93"/>
      <point x="517" y="93" type="curve" smooth="yes"/>
      <point x="481" y="93"/>
      <point x="456" y="104"/>
      <point x="430" y="113" type="curve"/>
      <point x="421" y="68" type="line" smooth="yes"/>
      <point x="419" y="57"/>
      <point x="426" y="48"/>
      <point x="437" y="47" type="curve" smooth="yes"/>
      <point x="503" y="43" type="line"/>
      <point x="503" y="0" type="line"/>
      <point x="225" y="0" type="line"/>
      <point x="225" y="43" type="line"/>
      <point x="294" y="47" type="line" smooth="yes"/>
      <point x="309" y="48"/>
      <point x="318" y="60"/>
      <point x="320" y="68" type="curve" smooth="yes"/>
      <point x="329" y="113" type="line"/>
      <point x="298" y="104"/>
      <point x="270" y="93"/>
      <point x="233" y="93" type="curve" smooth="yes"/>
      <point x="140" y="93"/>
      <point x="48" y="167"/>
      <point x="48" y="286" type="curve" smooth="yes"/>
      <point x="48" y="434"/>
      <point x="178" y="578"/>
      <point x="329" y="578" type="curve" smooth="yes"/>
      <point x="365" y="578"/>
      <point x="389" y="568"/>
      <point x="417" y="558" type="curve"/>
      <point x="425" y="603" type="line" smooth="yes"/>
      <point x="427" y="614"/>
      <point x="420" y="623"/>
      <point x="409" y="624" type="curve" smooth="yes"/>
      <point x="350" y="628" type="line"/>
      <point x="350" y="671" type="line"/>
      <point x="618" y="671" type="line"/>
      <point x="618" y="628" type="line"/>
      <point x="552" y="624" type="line" smooth="yes"/>
      <point x="538" y="623"/>
      <point x="528" y="611"/>
      <point x="526" y="603" type="curve" smooth="yes"/>
      <point x="518" y="558" type="line"/>
      <point x="550" y="568"/>
      <point x="577" y="578"/>
      <point x="613" y="578" type="curve" smooth="yes"/>
      <point x="706" y="578"/>
      <point x="799" y="513"/>
    </contour>
    <contour>
      <point x="687" y="393" type="curve" smooth="yes"/>
      <point x="687" y="467"/>
      <point x="659" y="537"/>
      <point x="595" y="537" type="curve" smooth="yes"/>
      <point x="557" y="537"/>
      <point x="539" y="528"/>
      <point x="508" y="511" type="curve"/>
      <point x="439" y="160" type="line"/>
      <point x="462" y="143"/>
      <point x="477" y="134"/>
      <point x="515" y="134" type="curve" smooth="yes"/>
      <point x="631" y="134"/>
      <point x="687" y="295"/>
    </contour>
    <contour>
      <point x="407" y="511" type="line"/>
      <point x="384" y="528"/>
      <point x="370" y="537"/>
      <point x="331" y="537" type="curve" smooth="yes"/>
      <point x="219" y="537"/>
      <point x="157" y="355"/>
      <point x="157" y="258" type="curve" smooth="yes"/>
      <point x="157" y="180"/>
      <point x="189" y="134"/>
      <point x="251" y="134" type="curve" smooth="yes"/>
      <point x="290" y="134"/>
      <point x="308" y="143"/>
      <point x="338" y="160" type="curve"/>
    </contour>
  </outline>
</glyph>
<glyph name="uni042F" format="1">
  <advance width="606"/>
  <unicode hex="042F"/>
  <outline>
    <contour>
      <point x="667" y="628" type="line"/>
      <point x="613" y="624" type="line" smooth="yes"/>
      <point x="599" y="622"/>
      <point x="590" y="611"/>
      <point x="588" y="603" type="curve" smooth="yes"/>
      <point x="482" y="68" type="line" smooth="yes"/>
      <point x="481" y="60"/>
      <point x="485" y="49"/>
      <point x="499" y="47" type="curve" smooth="yes"/>
      <point x="552" y="43" type="line"/>
      <point x="552" y="0" type="line"/>
      <point x="293" y="0" type="line"/>
      <point x="293" y="43" type="line"/>
      <point x="356" y="47" type="line" smooth="yes"/>
      <point x="370" y="48"/>
      <point x="380" y="60"/>
      <point x="381" y="68" type="curve" smooth="yes"/>
      <point x="427" y="298" type="line"/>
      <point x="427" y="298"/>
      <point x="403" y="300"/>
      <point x="375" y="300" type="curve" smooth="yes"/>
      <point x="191" y="300"/>
      <point x="227" y="129"/>
      <point x="116" y="25" type="curve" smooth="yes"/>
      <point x="82" y="-8"/>
      <point x="20" y="-8"/>
      <point x="9" y="-8" type="curve" smooth="yes"/>
      <point x="-21" y="-8"/>
      <point x="-42" y="1"/>
      <point x="-42" y="1" type="curve"/>
      <point x="-42" y="43" type="line"/>
      <point x="-42" y="43"/>
      <point x="10" y="36"/>
      <point x="42" y="63" type="curve" smooth="yes"/>
      <point x="130" y="140"/>
      <point x="89" y="287"/>
      <point x="262" y="325" type="curve"/>
      <point x="184" y="344"/>
      <point x="119" y="381"/>
      <point x="119" y="456" type="curve" smooth="yes"/>
      <point x="119" y="626"/>
      <point x="278" y="671"/>
      <point x="420" y="671" type="curve" smooth="yes"/>
      <point x="667" y="671" type="line"/>
    </contour>
    <contour>
      <point x="491" y="623" type="line"/>
      <point x="440" y="623" type="line" smooth="yes"/>
      <point x="313" y="623"/>
      <point x="227" y="573"/>
      <point x="227" y="439" type="curve" smooth="yes"/>
      <point x="227" y="373"/>
      <point x="281" y="350"/>
      <point x="381" y="350" type="curve" smooth="yes"/>
      <point x="402" y="350"/>
      <point x="437" y="351"/>
      <point x="437" y="351" type="curve"/>
    </contour>
  </outline>
</glyph>
<glyph name="uni0444" format="1">
  <advance width="732"/>
  <unicode hex="0444"/>
  <outline>
    <contour>
      <point x="702" y="307" type="curve" smooth="yes"/>
      <point x="702" y="159"/>
      <point x="599" y="-12"/>
      <point x="436" y="-12" type="curve" smooth="yes"/>
      <point x="399" y="-12"/>
      <point x="366" y="0"/>
      <point x="366" y="0" type="curve"/>
      <point x="335" y="-155" type="line" smooth="yes"/>
      <point x="333" y="-164"/>
      <point x="345" y="-175"/>
      <point x="354" y="-176" type="curve" smooth="yes"/>
      <point x="403" y="-180" type="line"/>
      <point x="403" y="-218" type="line"/>
      <point x="155" y="-218" type="line"/>
      <point x="155" y="-180" type="line"/>
      <point x="217" y="-176" type="line" smooth="yes"/>
      <point x="226" y="-175"/>
      <point x="240" y="-164"/>
      <point x="242" y="-155" type="curve" smooth="yes"/>
      <point x="273" y="0" type="line"/>
      <point x="273" y="0"/>
      <point x="235" y="-12"/>
      <point x="198" y="-12" type="curve" smooth="yes"/>
      <point x="93" y="-12"/>
      <point x="31" y="61"/>
      <point x="31" y="173" type="curve" smooth="yes"/>
      <point x="31" y="322"/>
      <point x="134" y="494"/>
      <point x="299" y="494" type="curve" smooth="yes"/>
      <point x="336" y="494"/>
      <point x="368" y="482"/>
      <point x="368" y="482" type="curve"/>
      <point x="404" y="665" type="line"/>
      <point x="328" y="665" type="line"/>
      <point x="328" y="698" type="line"/>
      <point x="471" y="737" type="line"/>
      <point x="511" y="737" type="line"/>
      <point x="461" y="482" type="line"/>
      <point x="461" y="482"/>
      <point x="498" y="494"/>
      <point x="535" y="494" type="curve" smooth="yes"/>
      <point x="642" y="494"/>
      <point x="702" y="418"/>
    </contour>
    <contour>
      <point x="603" y="306" type="curve" smooth="yes"/>
      <point x="603" y="383"/>
      <point x="572" y="447"/>
      <point x="519" y="447" type="curve" smooth="yes"/>
      <point x="475" y="447"/>
      <point x="451" y="429"/>
      <point x="451" y="429" type="curve"/>
      <point x="376" y="53" type="line"/>
      <point x="376" y="53"/>
      <point x="394" y="35"/>
      <point x="438" y="35" type="curve" smooth="yes"/>
      <point x="538" y="35"/>
      <point x="603" y="217"/>
    </contour>
    <contour>
      <point x="358" y="429" type="line"/>
      <point x="358" y="429"/>
      <point x="340" y="447"/>
      <point x="296" y="447" type="curve" smooth="yes"/>
      <point x="195" y="447"/>
      <point x="131" y="265"/>
      <point x="131" y="176" type="curve" smooth="yes"/>
      <point x="131" y="98"/>
      <point x="162" y="35"/>
      <point x="214" y="35" type="curve" smooth="yes"/>
      <point x="258" y="35"/>
      <point x="283" y="53"/>
      <point x="283" y="53" type="curve"/>
    </contour>
  </outline>
</glyph>
<glyph name="uni0447" format="1">
  <advance width="481"/>
  <unicode hex="0447"/>
  <outline>
    <contour>
      <point x="480" y="29" type="line"/>
      <point x="446" y="11"/>
      <point x="395" y="-12"/>
      <point x="346" y="-12" type="curve" smooth="yes"/>
      <point x="284" y="-12"/>
      <point x="258" y="29"/>
      <point x="265" y="61" type="curve" smooth="yes"/>
      <point x="293" y="208" type="line"/>
      <point x="257" y="190"/>
      <point x="212" y="172"/>
      <point x="176" y="172" type="curve" smooth="yes"/>
      <point x="114" y="172"/>
      <point x="61" y="201"/>
      <point x="77" y="281" type="curve" smooth="yes"/>
      <point x="104" y="425" type="line"/>
      <point x="19" y="434" type="line"/>
      <point x="19" y="463" type="line"/>
      <point x="170" y="494" type="line"/>
      <point x="210" y="494" type="line"/>
      <point x="172" y="294" type="line" smooth="yes"/>
      <point x="163" y="247"/>
      <point x="175" y="225"/>
      <point x="223" y="225" type="curve" smooth="yes"/>
      <point x="243" y="225"/>
      <point x="268" y="231"/>
      <point x="301" y="247" type="curve"/>
      <point x="345" y="482" type="line"/>
      <point x="438" y="482" type="line"/>
      <point x="363" y="85" type="line" smooth="yes"/>
      <point x="357" y="52"/>
      <point x="380" y="46"/>
      <point x="399" y="46" type="curve" smooth="yes"/>
      <point x="420" y="46"/>
      <point x="442" y="53"/>
      <point x="480" y="65" type="curve"/>
    </contour>
  </outline>
</glyph>
<glyph name="uni044F" format="1">
  <advance width="503"/>
  <unicode hex="044F"/>
  <outline>
    <contour>
      <point x="502" y="25" type="line"/>
      <point x="502" y="25"/>
      <point x="420" y="-12"/>
      <point x="360" y="-12" type="curve" smooth="yes"/>
      <point x="301" y="-12"/>
      <point x="289" y="20"/>
      <point x="289" y="57" type="curve" smooth="yes"/>
      <point x="289" y="78"/>
      <point x="310" y="197"/>
      <point x="313" y="212" type="curve"/>
      <point x="279" y="212" type="line" smooth="yes"/>
      <point x="226" y="212"/>
      <point x="214" y="199"/>
      <point x="193" y="178" type="curve" smooth="yes"/>
      <point x="147" y="129"/>
      <point x="145" y="67"/>
      <point x="87" y="16" type="curve" smooth="yes"/>
      <point x="60" y="-9"/>
      <point x="0" y="-12"/>
      <point x="-11" y="-12" type="curve" smooth="yes"/>
      <point x="-37" y="-12"/>
      <point x="-62" y="0"/>
      <point x="-62" y="0" type="curve"/>
      <point x="-56" y="30" type="line"/>
      <point x="-56" y="30"/>
      <point x="-4" y="23"/>
      <point x="19" y="41" type="curve" smooth="yes"/>
      <point x="47" y="64"/>
      <point x="55" y="94"/>
      <point x="65" y="118" type="curve" smooth="yes"/>
      <point x="77" y="145"/>
      <point x="90" y="173"/>
      <point x="120" y="201" type="curve" smooth="yes"/>
      <point x="133" y="212"/>
      <point x="162" y="226"/>
      <point x="189" y="232" type="curve"/>
      <point x="121" y="249"/>
      <point x="61" y="287"/>
      <point x="74" y="355" type="curve" smooth="yes"/>
      <point x="92" y="447"/>
      <point x="166" y="482"/>
      <point x="307" y="482" type="curve" smooth="yes"/>
      <point x="456" y="482" type="line"/>
      <point x="383" y="80" type="line" smooth="yes"/>
      <point x="378" y="51"/>
      <point x="404" y="42"/>
      <point x="423" y="42" type="curve" smooth="yes"/>
      <point x="448" y="42"/>
      <point x="489" y="57"/>
      <point x="502" y="62" type="curve"/>
    </contour>
    <contour>
      <point x="357" y="446" type="line"/>
      <point x="324" y="446" type="line" smooth="yes"/>
      <point x="227" y="446"/>
      <point x="187" y="416"/>
      <point x="175" y="355" type="curve" smooth="yes"/>
      <point x="161" y="278"/>
      <point x="194" y="248"/>
      <point x="282" y="248" type="curve" smooth="yes"/>
      <point x="294" y="248"/>
      <point x="320" y="249"/>
      <point x="320" y="249" type="curve"/>
    </contour>
  </outline>
</glyph>
<glyph name="uni0472" format="1">
  <advance width="709"/>
  <unicode hex="0472"/>
  <outline>
    <contour>
      <point x="691" y="417" type="curve" smooth="yes"/>
      <point x="691" y="206"/>
      <point x="555" y="-16"/>
      <point x="320" y="-16" type="curve" smooth="yes"/>
      <point x="160" y="-16"/>
      <point x="48" y="94"/>
      <point x="48" y="262" type="curve" smooth="yes"/>
      <point x="48" y="477"/>
      <point x="200" y="687"/>
      <point x="420" y="687" type="curve" smooth="yes"/>
      <point x="586" y="687"/>
      <point x="691" y="566"/>
    </contour>
    <contour>
      <point x="577" y="417" type="line" smooth="yes"/>
      <point x="577" y="550"/>
      <point x="507" y="637"/>
      <point x="411" y="637" type="curve" smooth="yes"/>
      <point x="294" y="637"/>
      <point x="205" y="506"/>
      <point x="173" y="364" type="curve"/>
      <point x="193" y="379"/>
      <point x="238" y="408"/>
      <point x="290" y="408" type="curve" smooth="yes"/>
      <point x="358" y="408"/>
      <point x="412" y="332"/>
      <point x="468" y="332" type="curve" smooth="yes"/>
      <point x="515" y="332"/>
      <point x="551" y="373"/>
      <point x="577" y="402" type="curve"/>
    </contour>
    <contour>
      <point x="567" y="323" type="curve"/>
      <point x="537" y="289"/>
      <point x="504" y="258"/>
      <point x="449" y="258" type="curve" smooth="yes"/>
      <point x="378" y="258"/>
      <point x="329" y="335"/>
      <point x="259" y="335" type="curve" smooth="yes"/>
      <point x="217" y="335"/>
      <point x="182" y="309"/>
      <point x="162" y="286" type="curve"/>
      <point x="161" y="275"/>
      <point x="161" y="265"/>
      <point x="161" y="254" type="curve" smooth="yes"/>
      <point x="161" y="119"/>
      <point x="234" y="36"/>
      <point x="327" y="36" type="curve" smooth="yes"/>
      <point x="446" y="36"/>
      <point x="538" y="177"/>
    </contour>
  </outline>
</glyph>
<glyph name="uni0473" format="1">
  <advance width="516"/>
  <unicode hex="0473"/>
  <outline>
    <contour>
      <point x="485" y="300" type="curve" smooth="yes"/>
      <point x="485" y="138"/>
      <point x="368" y="-12"/>
      <point x="214" y="-12" type="curve" smooth="yes"/>
      <point x="104" y="-12"/>
      <point x="31" y="61"/>
      <point x="31" y="177" type="curve" smooth="yes"/>
      <point x="31" y="339"/>
      <point x="144" y="494"/>
      <point x="301" y="494" type="curve" smooth="yes"/>
      <point x="397" y="494"/>
      <point x="485" y="435"/>
    </contour>
    <contour>
      <point x="383" y="304" type="line" smooth="yes"/>
      <point x="383" y="399"/>
      <point x="341" y="451"/>
      <point x="290" y="451" type="curve" smooth="yes"/>
      <point x="221" y="451"/>
      <point x="163" y="364"/>
      <point x="141" y="264" type="curve"/>
      <point x="160" y="280"/>
      <point x="181" y="287"/>
      <point x="221" y="287" type="curve" smooth="yes"/>
      <point x="275" y="287"/>
      <point x="267" y="242"/>
      <point x="312" y="242" type="curve" smooth="yes"/>
      <point x="346" y="242"/>
      <point x="366" y="264"/>
      <point x="383" y="283" type="curve"/>
    </contour>
    <contour>
      <point x="375" y="226" type="curve"/>
      <point x="360" y="212"/>
      <point x="330" y="189"/>
      <point x="298" y="189" type="curve" smooth="yes"/>
      <point x="241" y="189"/>
      <point x="253" y="235"/>
      <point x="198" y="235" type="curve" smooth="yes"/>
      <point x="166" y="235"/>
      <point x="146" y="223"/>
      <point x="133" y="209" type="curve"/>
      <point x="133" y="200"/>
      <point x="132" y="191"/>
      <point x="132" y="182" type="curve" smooth="yes"/>
      <point x="132" y="83"/>
      <point x="176" y="33"/>
      <point x="226" y="33" type="curve" smooth="yes"/>
      <point x="301" y="33"/>
      <point x="355" y="128"/>
    </contour>
  </outline>
</glyph>
<glyph name="uni048C" format="1">
  <advance width="567"/>
  <unicode hex="048C"/>
  <outline>
    <contour>
      <point x="85" y="621" type="line"/>
      <point x="85" y="671" type="line"/>
      <point x="188" y="671" type="line"/>
      <point x="201" y="740" type="line"/>
      <point x="302" y="740" type="line"/>
      <point x="289" y="671" type="line"/>
      <point x="384" y="671" type="line"/>
      <point x="384" y="621" type="line"/>
      <point x="278" y="621" type="line"/>
      <point x="238" y="414" type="line"/>
      <point x="238" y="414"/>
      <point x="283" y="419"/>
      <point x="312" y="419" type="curve" smooth="yes"/>
      <point x="443" y="419"/>
      <point x="535" y="360"/>
      <point x="535" y="249" type="curve" smooth="yes"/>
      <point x="535" y="52"/>
      <point x="383" y="0"/>
      <point x="212" y="0" type="curve" smooth="yes"/>
      <point x="-27" y="0" type="line"/>
      <point x="-27" y="43" type="line"/>
      <point x="43" y="47" type="line" smooth="yes"/>
      <point x="57" y="48"/>
      <point x="67" y="60"/>
      <point x="68" y="68" type="curve" smooth="yes"/>
      <point x="177" y="621" type="line"/>
    </contour>
    <contour>
      <point x="424" y="260" type="curve" smooth="yes"/>
      <point x="424" y="336"/>
      <point x="382" y="371"/>
      <point x="293" y="371" type="curve" smooth="yes"/>
      <point x="272" y="371"/>
      <point x="228" y="366"/>
      <point x="228" y="366" type="curve"/>
      <point x="166" y="50" type="line"/>
      <point x="166" y="50"/>
      <point x="191" y="48"/>
      <point x="216" y="48" type="curve" smooth="yes"/>
      <point x="363" y="48"/>
      <point x="424" y="122"/>
    </contour>
  </outline>
</glyph>
<glyph name="uni0495" format="1">
  <advance width="492"/>
  <unicode hex="0495"/>
  <outline>
    <contour>
      <point x="428" y="354" type="line"/>
      <point x="391" y="354" type="line"/>
      <point x="391" y="421" type="line" smooth="yes"/>
      <point x="391" y="428"/>
      <point x="383" y="433"/>
      <point x="378" y="433" type="curve" smooth="yes"/>
      <point x="233" y="433" type="line"/>
      <point x="207" y="298" type="line"/>
      <point x="219" y="299"/>
      <point x="237" y="301"/>
      <point x="254" y="301" type="curve" smooth="yes"/>
      <point x="381" y="301"/>
      <point x="453" y="188"/>
      <point x="429" y="68" type="curve" smooth="yes"/>
      <point x="392" y="-113"/>
      <point x="258" y="-200"/>
      <point x="146" y="-200" type="curve" smooth="yes"/>
      <point x="115" y="-200"/>
      <point x="87" y="-194"/>
      <point x="56" y="-186" type="curve"/>
      <point x="55" y="-150" type="line"/>
      <point x="76" y="-156"/>
      <point x="107" y="-159"/>
      <point x="121" y="-159" type="curve" smooth="yes"/>
      <point x="208" y="-159"/>
      <point x="299" y="-105"/>
      <point x="329" y="43" type="curve" smooth="yes"/>
      <point x="352" y="158"/>
      <point x="325" y="257"/>
      <point x="237" y="257" type="curve" smooth="yes"/>
      <point x="225" y="257"/>
      <point x="209" y="254"/>
      <point x="198" y="253" type="curve"/>
      <point x="155" y="35"/>
      <point x="146" y="0"/>
      <point x="146" y="0" type="curve"/>
      <point x="55" y="0" type="line"/>
      <point x="55" y="0"/>
      <point x="68" y="51"/>
      <point x="139" y="424" type="curve" smooth="yes"/>
      <point x="140" y="431"/>
      <point x="137" y="439"/>
      <point x="126" y="439" type="curve" smooth="yes"/>
      <point x="84" y="442" type="line"/>
      <point x="84" y="481" type="line"/>
      <point x="454" y="481" type="line"/>
    </contour>
  </outline>
</glyph>
<glyph name="uni04A1" format="1">
  <advance width="592"/>
  <unicode hex="04A1"/>
  <outline>
    <contour>
      <point x="43" y="481" type="line"/>
      <point x="265" y="481" type="line"/>
      <point x="222" y="257" type="line"/>
      <point x="287" y="257"/>
      <point x="316" y="292"/>
      <point x="345" y="345" type="curve" smooth="yes"/>
      <point x="370" y="392"/>
      <point x="383" y="433"/>
      <point x="427" y="470" type="curve" smooth="yes"/>
      <point x="448" y="488"/>
      <point x="474" y="495"/>
      <point x="499" y="495" type="curve" smooth="yes"/>
      <point x="535" y="495"/>
      <point x="557" y="474"/>
      <point x="557" y="447" type="curve" smooth="yes"/>
      <point x="557" y="426"/>
      <point x="537" y="408"/>
      <point x="515" y="393" type="curve"/>
      <point x="439" y="427" type="line"/>
      <point x="401" y="393"/>
      <point x="389" y="342"/>
      <point x="362" y="300" type="curve" smooth="yes"/>
      <point x="346" y="276"/>
      <point x="328" y="256"/>
      <point x="309" y="244" type="curve"/>
      <point x="323" y="237"/>
      <point x="342" y="222"/>
      <point x="348" y="210" type="curve" smooth="yes"/>
      <point x="411" y="86" type="line" smooth="yes"/>
      <point x="417" y="73"/>
      <point x="427" y="63"/>
      <point x="439" y="63" type="curve" smooth="yes"/>
      <point x="465" y="63"/>
      <point x="516" y="111"/>
      <point x="531" y="129" type="curve"/>
      <point x="545" y="103" type="line"/>
      <point x="530" y="83"/>
      <point x="455" y="-12"/>
      <point x="397" y="-12" type="curve" smooth="yes"/>
      <point x="376" y="-12"/>
      <point x="362" y="5"/>
      <point x="352" y="25" type="curve" smooth="yes"/>
      <point x="267" y="191" type="line" smooth="yes"/>
      <point x="259" y="207"/>
      <point x="247" y="211"/>
      <point x="212" y="211" type="curve"/>
      <point x="170" y="0" type="line"/>
      <point x="79" y="0" type="line"/>
      <point x="164" y="433" type="line"/>
      <point x="100" y="433" type="line" smooth="yes"/>
      <point x="95" y="433"/>
      <point x="84" y="428"/>
      <point x="82" y="421" type="curve" smooth="yes"/>
      <point x="54" y="350" type="line"/>
      <point x="17" y="350" type="line"/>
    </contour>
  </outline>
</glyph>
<glyph name="uni04A6" format="1">
  <advance width="974"/>
  <unicode hex="04A6"/>
  <outline>
    <contour>
      <point x="643" y="603" type="curve" smooth="yes"/>
      <point x="605" y="412" type="line"/>
      <point x="605" y="412"/>
      <point x="640" y="419"/>
      <point x="685" y="419" type="curve" smooth="yes"/>
      <point x="900" y="419"/>
      <point x="923" y="249"/>
      <point x="897" y="115" type="curve" smooth="yes"/>
      <point x="835" y="-212"/>
      <point x="567" y="-228"/>
      <point x="439" y="-172" type="curve"/>
      <point x="439" y="-172"/>
      <point x="442" y="-131"/>
      <point x="442" y="-129" type="curve"/>
      <point x="595" y="-186"/>
      <point x="749" y="-121"/>
      <point x="786" y="89" type="curve" smooth="yes"/>
      <point x="814" y="253"/>
      <point x="790" y="371"/>
      <point x="666" y="371" type="curve" smooth="yes"/>
      <point x="625" y="371"/>
      <point x="596" y="364"/>
      <point x="596" y="364" type="curve"/>
      <point x="537" y="68" type="line" smooth="yes"/>
      <point x="535" y="60"/>
      <point x="540" y="49"/>
      <point x="554" y="47" type="curve" smooth="yes"/>
      <point x="602" y="43" type="line"/>
      <point x="602" y="0" type="line"/>
      <point x="343" y="0" type="line"/>
      <point x="343" y="43" type="line"/>
      <point x="411" y="47" type="line" smooth="yes"/>
      <point x="425" y="48"/>
      <point x="434" y="60"/>
      <point x="436" y="68" type="curve" smooth="yes"/>
      <point x="541" y="599" type="line" smooth="yes"/>
      <point x="543" y="608"/>
      <point x="538" y="620"/>
      <point x="524" y="620" type="curve" smooth="yes"/>
      <point x="298" y="620" type="line" smooth="yes"/>
      <point x="284" y="620"/>
      <point x="275" y="608"/>
      <point x="273" y="599" type="curve" smooth="yes"/>
      <point x="168" y="68" type="line" smooth="yes"/>
      <point x="166" y="60"/>
      <point x="171" y="48"/>
      <point x="185" y="47" type="curve" smooth="yes"/>
      <point x="238" y="43" type="line"/>
      <point x="238" y="0" type="line"/>
      <point x="-21" y="0" type="line"/>
      <point x="-21" y="43" type="line"/>
      <point x="42" y="47" type="line" smooth="yes"/>
      <point x="56" y="48"/>
      <point x="65" y="60"/>
      <point x="67" y="68" type="curve" smooth="yes"/>
      <point x="172" y="603" type="line" smooth="yes"/>
      <point x="174" y="611"/>
      <point x="170" y="622"/>
      <point x="156" y="624" type="curve" smooth="yes"/>
      <point x="104" y="628" type="line"/>
      <point x="104" y="671" type="line"/>
      <point x="727" y="671" type="line"/>
      <point x="727" y="628" type="line"/>
      <point x="668" y="624" type="line" smooth="yes"/>
      <point x="654" y="622"/>
      <point x="644" y="611"/>
    </contour>
  </outline>
</glyph>
<glyph name="uni04AA" format="1">
  <advance width="629"/>
  <unicode hex="04AA"/>
  <outline>
    <contour>
      <point x="260" y="0" type="curve"/>
      <point x="314" y="0" type="line"/>
      <point x="348" y="-33"/>
      <point x="373" y="-91"/>
      <point x="351" y="-150" type="curve" smooth="yes"/>
      <point x="332" y="-199"/>
      <point x="286" y="-216"/>
      <point x="244" y="-216" type="curve" smooth="yes"/>
      <point x="226" y="-216"/>
      <point x="208" y="-213"/>
      <point x="193" y="-209" type="curve"/>
      <point x="206" y="-152" type="line"/>
      <point x="217" y="-155"/>
      <point x="228" y="-157"/>
      <point x="241" y="-157" type="curve" smooth="yes"/>
      <point x="263" y="-157"/>
      <point x="285" y="-147"/>
      <point x="293" y="-123" type="curve" smooth="yes"/>
      <point x="312" y="-72"/>
      <point x="286" y="-29"/>
    </contour>
    <contour>
      <point x="644" y="647" type="curve"/>
      <point x="617" y="491" type="line"/>
      <point x="558" y="491" type="line"/>
      <point x="558" y="584" type="line" smooth="yes"/>
      <point x="558" y="594"/>
      <point x="549" y="608"/>
      <point x="540" y="611" type="curve" smooth="yes"/>
      <point x="535" y="614"/>
      <point x="503" y="636"/>
      <point x="455" y="636" type="curve" smooth="yes"/>
      <point x="302" y="636"/>
      <point x="154" y="487"/>
      <point x="154" y="256" type="curve" smooth="yes"/>
      <point x="154" y="105"/>
      <point x="247" y="35"/>
      <point x="359" y="35" type="curve" smooth="yes"/>
      <point x="402" y="35"/>
      <point x="429" y="50"/>
      <point x="434" y="52" type="curve" smooth="yes"/>
      <point x="442" y="53"/>
      <point x="453" y="63"/>
      <point x="457" y="72" type="curve" smooth="yes"/>
      <point x="500" y="186" type="line"/>
      <point x="559" y="186" type="line"/>
      <point x="532" y="24" type="line"/>
      <point x="517" y="19"/>
      <point x="423" y="-16"/>
      <point x="326" y="-16" type="curve" smooth="yes"/>
      <point x="127" y="-16"/>
      <point x="48" y="125"/>
      <point x="48" y="267" type="curve" smooth="yes"/>
      <point x="48" y="480"/>
      <point x="212" y="687"/>
      <point x="450" y="687" type="curve" smooth="yes"/>
      <point x="515" y="687"/>
      <point x="567" y="672"/>
    </contour>
  </outline>
</glyph>
<glyph name="uni04BD" format="1">
  <advance width="553"/>
  <unicode hex="04BD"/>
  <outline>
    <contour>
      <point x="156" y="218" type="curve"/>
      <point x="74" y="218"/>
      <point x="24" y="260"/>
      <point x="24" y="312" type="curve" smooth="yes"/>
      <point x="24" y="352"/>
      <point x="49" y="395"/>
      <point x="92" y="395" type="curve" smooth="yes"/>
      <point x="113" y="395"/>
      <point x="131" y="387"/>
      <point x="144" y="366" type="curve"/>
      <point x="94" y="285" type="line"/>
      <point x="103" y="268"/>
      <point x="132" y="256"/>
      <point x="165" y="256" type="curve"/>
      <point x="199" y="385"/>
      <point x="301" y="493"/>
      <point x="416" y="493" type="curve" smooth="yes"/>
      <point x="508" y="493"/>
      <point x="537" y="422"/>
      <point x="537" y="393" type="curve" smooth="yes"/>
      <point x="537" y="284"/>
      <point x="372" y="227"/>
      <point x="253" y="220" type="curve"/>
      <point x="251" y="207"/>
      <point x="250" y="186"/>
      <point x="250" y="174" type="curve" smooth="yes"/>
      <point x="250" y="100"/>
      <point x="287" y="48"/>
      <point x="345" y="48" type="curve" smooth="yes"/>
      <point x="389" y="48"/>
      <point x="441" y="81"/>
      <point x="514" y="145" type="curve"/>
      <point x="514" y="82" type="line"/>
      <point x="477" y="46"/>
      <point x="403" y="-12"/>
      <point x="312" y="-12" type="curve" smooth="yes"/>
      <point x="251" y="-12"/>
      <point x="153" y="18"/>
      <point x="153" y="170" type="curve" smooth="yes"/>
      <point x="153" y="184"/>
      <point x="155" y="204"/>
    </contour>
    <contour>
      <point x="448" y="394" type="curve" smooth="yes"/>
      <point x="448" y="420"/>
      <point x="427" y="447"/>
      <point x="394" y="447" type="curve" smooth="yes"/>
      <point x="328" y="447"/>
      <point x="276" y="334"/>
      <point x="258" y="258" type="curve"/>
      <point x="343" y="266"/>
      <point x="448" y="323"/>
    </contour>
  </outline>
</glyph>
<glyph name="uni04C1" format="1">
  <advance width="891"/>
  <unicode hex="04C1"/>
  <outline>
    <contour>
      <point x="947" y="629" type="curve" smooth="yes"/>
      <point x="947" y="606"/>
      <point x="924" y="583"/>
      <point x="897" y="564" type="curve"/>
      <point x="802" y="607" type="line"/>
      <point x="738" y="554"/>
      <point x="730" y="483"/>
      <point x="686" y="416" type="curve" smooth="yes"/>
      <point x="657" y="372"/>
      <point x="628" y="341"/>
      <point x="598" y="325" type="curve"/>
      <point x="632" y="316"/>
      <point x="661" y="296"/>
      <point x="672" y="271" type="curve" smooth="yes"/>
      <point x="767" y="48" type="line"/>
      <point x="835" y="43" type="line"/>
      <point x="835" y="0" type="line"/>
      <point x="667" y="0" type="line"/>
      <point x="667" y="32" type="line"/>
      <point x="563" y="264" type="line" smooth="yes"/>
      <point x="552" y="287"/>
      <point x="533" y="297"/>
      <point x="503" y="299" type="curve"/>
      <point x="458" y="69" type="line" smooth="yes"/>
      <point x="456" y="60"/>
      <point x="460" y="49"/>
      <point x="474" y="48" type="curve" smooth="yes"/>
      <point x="525" y="43" type="line"/>
      <point x="525" y="0" type="line"/>
      <point x="267" y="0" type="line"/>
      <point x="267" y="43" type="line"/>
      <point x="331" y="48" type="line" smooth="yes"/>
      <point x="345" y="49"/>
      <point x="355" y="60"/>
      <point x="356" y="69" type="curve" smooth="yes"/>
      <point x="402" y="299" type="line"/>
      <point x="371" y="297"/>
      <point x="348" y="287"/>
      <point x="329" y="264" type="curve" smooth="yes"/>
      <point x="133" y="32" type="line"/>
      <point x="133" y="0" type="line"/>
      <point x="-43" y="0" type="line"/>
      <point x="-43" y="43" type="line"/>
      <point x="39" y="48" type="line"/>
      <point x="222" y="271" type="line" smooth="yes"/>
      <point x="244" y="298"/>
      <point x="277" y="318"/>
      <point x="317" y="325" type="curve"/>
      <point x="292" y="345"/>
      <point x="277" y="372"/>
      <point x="266" y="416" type="curve" smooth="yes"/>
      <point x="248" y="483"/>
      <point x="268" y="554"/>
      <point x="225" y="607" type="curve"/>
      <point x="113" y="564" type="line"/>
      <point x="94" y="583"/>
      <point x="88" y="606"/>
      <point x="88" y="629" type="curve" smooth="yes"/>
      <point x="88" y="660"/>
      <point x="136" y="687"/>
      <point x="183" y="687" type="curve" smooth="yes"/>
      <point x="217" y="687"/>
      <point x="249" y="677"/>
      <point x="268" y="653" type="curve" smooth="yes"/>
      <point x="326" y="582"/>
      <point x="292" y="492"/>
      <point x="325" y="419" type="curve" smooth="yes"/>
      <point x="344" y="378"/>
      <point x="347" y="350"/>
      <point x="412" y="350" type="curve"/>
      <point x="462" y="602" type="line" smooth="yes"/>
      <point x="464" y="611"/>
      <point x="459" y="622"/>
      <point x="445" y="623" type="curve" smooth="yes"/>
      <point x="391" y="628" type="line"/>
      <point x="391" y="671" type="line"/>
      <point x="649" y="671" type="line"/>
      <point x="649" y="628" type="line"/>
      <point x="588" y="623" type="line" smooth="yes"/>
      <point x="574" y="622"/>
      <point x="565" y="611"/>
      <point x="563" y="602" type="curve" smooth="yes"/>
      <point x="513" y="350" type="line"/>
      <point x="579" y="350"/>
      <point x="593" y="378"/>
      <point x="627" y="419" type="curve" smooth="yes"/>
      <point x="690" y="492"/>
      <point x="691" y="582"/>
      <point x="777" y="653" type="curve" smooth="yes"/>
      <point x="806" y="677"/>
      <point x="841" y="687"/>
      <point x="875" y="687" type="curve" smooth="yes"/>
      <point x="922" y="687"/>
      <point x="947" y="660"/>
    </contour>
    <contour>
      <point x="711" y="875" type="line"/>
      <point x="679" y="801"/>
      <point x="627" y="744"/>
      <point x="536" y="744" type="curve" smooth="yes"/>
      <point x="475" y="744"/>
      <point x="408" y="773"/>
      <point x="408" y="834" type="curve" smooth="yes"/>
      <point x="408" y="862"/>
      <point x="428" y="894"/>
      <point x="459" y="894" type="curve" smooth="yes"/>
      <point x="468" y="894"/>
      <point x="493" y="889"/>
      <point x="500" y="885" type="curve"/>
      <point x="519" y="806" type="line"/>
      <point x="529" y="797"/>
      <point x="547" y="792"/>
      <point x="565" y="792" type="curve" smooth="yes"/>
      <point x="624" y="792"/>
      <point x="660" y="846"/>
      <point x="673" y="875" type="curve"/>
    </contour>
  </outline>
</glyph>
